<svg width="440" height="398" viewBox="0 0 440 398" fill="none" xmlns="http://www.w3.org/2000/svg">
<path fill-rule="evenodd" clip-rule="evenodd" d="M302.731 -180.741C265.631 -220.795 220.214 -304.523 172.573 -277.856C120.245 -248.564 199.283 -144.049 158.553 -100.035C122.485 -61.0595 11.2747 -144.284 0.793274 -92.2257C-11.572 -30.811 124.644 -20.3139 129.933 42.1095C134.076 90.995 39.8143 93.4374 20.342 138.468C4.03992 176.168 -4.6261 252.757 35.865 259.65C106.394 271.656 169.107 138.066 230.801 174.294C290.799 209.525 203.014 323.56 242.389 380.924C264.965 413.815 334.738 393.066 359.496 361.785C394.513 317.543 344.947 232.469 388.389 196.463C424.312 166.688 488.852 255.847 524.14 225.321C554.734 198.856 494 150.633 487.529 110.701C483.731 87.2608 501.603 62.9352 494.17 40.3822C486.606 17.4273 453.041 9.77975 446.595 -13.5139C438.181 -43.9181 478.818 -88.4802 453.355 -107.105C425.942 -127.157 386.634 -64.7763 356.121 -79.6931C321.603 -96.568 328.841 -152.553 302.731 -180.741Z" fill="#F29C6B"/>
</svg>
