<svg width="219" height="49" viewBox="0 0 219 49" fill="none" xmlns="http://www.w3.org/2000/svg">
<path d="M67.7 18.6C66.95 18.6 66.3333 18.3833 65.85 17.95C65.3833 17.5 65.15 16.95 65.15 16.3C65.15 15.6333 65.3833 15.0833 65.85 14.65C66.3333 14.2 66.95 13.975 67.7 13.975C68.4333 13.975 69.0333 14.2 69.5 14.65C69.9833 15.0833 70.225 15.6333 70.225 16.3C70.225 16.95 69.9833 17.5 69.5 17.95C69.0333 18.3833 68.4333 18.6 67.7 18.6ZM69.825 20.05V34H65.55V20.05H69.825ZM81.423 19.9C83.0564 19.9 84.3564 20.4333 85.323 21.5C86.3064 22.55 86.798 24 86.798 25.85V34H82.548V26.425C82.548 25.4917 82.3064 24.7667 81.823 24.25C81.3397 23.7333 80.6897 23.475 79.873 23.475C79.0564 23.475 78.4064 23.7333 77.923 24.25C77.4397 24.7667 77.198 25.4917 77.198 26.425V34H72.923V20.05H77.198V21.9C77.6314 21.2833 78.2147 20.8 78.948 20.45C79.6814 20.0833 80.5064 19.9 81.423 19.9ZM97.5438 30.375V34H95.3688C93.8188 34 92.6104 33.625 91.7438 32.875C90.8771 32.1083 90.4438 30.8667 90.4438 29.15V23.6H88.7438V20.05H90.4438V16.65H94.7188V20.05H97.5188V23.6H94.7188V29.2C94.7188 29.6167 94.8188 29.9167 95.0188 30.1C95.2188 30.2833 95.5521 30.375 96.0188 30.375H97.5438ZM113.075 26.8C113.075 27.2 113.05 27.6167 113 28.05H103.325C103.392 28.9167 103.667 29.5833 104.15 30.05C104.65 30.5 105.258 30.725 105.975 30.725C107.042 30.725 107.783 30.275 108.2 29.375H112.75C112.517 30.2917 112.092 31.1167 111.475 31.85C110.875 32.5833 110.117 33.1583 109.2 33.575C108.283 33.9917 107.258 34.2 106.125 34.2C104.758 34.2 103.542 33.9083 102.475 33.325C101.408 32.7417 100.575 31.9083 99.975 30.825C99.375 29.7417 99.075 28.475 99.075 27.025C99.075 25.575 99.3667 24.3083 99.95 23.225C100.55 22.1417 101.383 21.3083 102.45 20.725C103.517 20.1417 104.742 19.85 106.125 19.85C107.475 19.85 108.675 20.1333 109.725 20.7C110.775 21.2667 111.592 22.075 112.175 23.125C112.775 24.175 113.075 25.4 113.075 26.8ZM108.7 25.675C108.7 24.9417 108.45 24.3583 107.95 23.925C107.45 23.4917 106.825 23.275 106.075 23.275C105.358 23.275 104.75 23.4833 104.25 23.9C103.767 24.3167 103.467 24.9083 103.35 25.675H108.7ZM120.63 19.85C121.614 19.85 122.472 20.05 123.205 20.45C123.955 20.85 124.53 21.375 124.93 22.025V20.05H129.205V33.975C129.205 35.2583 128.947 36.4167 128.43 37.45C127.93 38.5 127.155 39.3333 126.105 39.95C125.072 40.5667 123.78 40.875 122.23 40.875C120.164 40.875 118.489 40.3833 117.205 39.4C115.922 38.4333 115.189 37.1167 115.005 35.45H119.23C119.364 35.9833 119.68 36.4 120.18 36.7C120.68 37.0167 121.297 37.175 122.03 37.175C122.914 37.175 123.614 36.9167 124.13 36.4C124.664 35.9 124.93 35.0917 124.93 33.975V32C124.514 32.65 123.939 33.1833 123.205 33.6C122.472 34 121.614 34.2 120.63 34.2C119.48 34.2 118.439 33.9083 117.505 33.325C116.572 32.725 115.83 31.8833 115.28 30.8C114.747 29.7 114.48 28.4333 114.48 27C114.48 25.5667 114.747 24.3083 115.28 23.225C115.83 22.1417 116.572 21.3083 117.505 20.725C118.439 20.1417 119.48 19.85 120.63 19.85ZM124.93 27.025C124.93 25.9583 124.63 25.1167 124.03 24.5C123.447 23.8833 122.73 23.575 121.88 23.575C121.03 23.575 120.305 23.8833 119.705 24.5C119.122 25.1 118.83 25.9333 118.83 27C118.83 28.0667 119.122 28.9167 119.705 29.55C120.305 30.1667 121.03 30.475 121.88 30.475C122.73 30.475 123.447 30.1667 124.03 29.55C124.63 28.9333 124.93 28.0917 124.93 27.025ZM136.573 22.375C137.073 21.6083 137.698 21.0083 138.448 20.575C139.198 20.125 140.031 19.9 140.948 19.9V24.425H139.773C138.706 24.425 137.906 24.6583 137.373 25.125C136.84 25.575 136.573 26.375 136.573 27.525V34H132.298V20.05H136.573V22.375ZM142.141 27C142.141 25.5667 142.408 24.3083 142.941 23.225C143.491 22.1417 144.233 21.3083 145.166 20.725C146.1 20.1417 147.141 19.85 148.291 19.85C149.275 19.85 150.133 20.05 150.866 20.45C151.616 20.85 152.191 21.375 152.591 22.025V20.05H156.866V34H152.591V32.025C152.175 32.675 151.591 33.2 150.841 33.6C150.108 34 149.25 34.2 148.266 34.2C147.133 34.2 146.1 33.9083 145.166 33.325C144.233 32.725 143.491 31.8833 142.941 30.8C142.408 29.7 142.141 28.4333 142.141 27ZM152.591 27.025C152.591 25.9583 152.291 25.1167 151.691 24.5C151.108 23.8833 150.391 23.575 149.541 23.575C148.691 23.575 147.966 23.8833 147.366 24.5C146.783 25.1 146.491 25.9333 146.491 27C146.491 28.0667 146.783 28.9167 147.366 29.55C147.966 30.1667 148.691 30.475 149.541 30.475C150.391 30.475 151.108 30.1667 151.691 29.55C152.291 28.9333 152.591 28.0917 152.591 27.025ZM177.759 19.9C179.493 19.9 180.868 20.425 181.884 21.475C182.918 22.525 183.434 23.9833 183.434 25.85V34H179.184V26.425C179.184 25.525 178.943 24.8333 178.459 24.35C177.993 23.85 177.343 23.6 176.509 23.6C175.676 23.6 175.018 23.85 174.534 24.35C174.068 24.8333 173.834 25.525 173.834 26.425V34H169.584V26.425C169.584 25.525 169.343 24.8333 168.859 24.35C168.393 23.85 167.743 23.6 166.909 23.6C166.076 23.6 165.418 23.85 164.934 24.35C164.468 24.8333 164.234 25.525 164.234 26.425V34H159.959V20.05H164.234V21.8C164.668 21.2167 165.234 20.7583 165.934 20.425C166.634 20.075 167.426 19.9 168.309 19.9C169.359 19.9 170.293 20.125 171.109 20.575C171.943 21.025 172.593 21.6667 173.059 22.5C173.543 21.7333 174.201 21.1083 175.034 20.625C175.868 20.1417 176.776 19.9 177.759 19.9ZM188.574 18.6C187.824 18.6 187.207 18.3833 186.724 17.95C186.257 17.5 186.024 16.95 186.024 16.3C186.024 15.6333 186.257 15.0833 186.724 14.65C187.207 14.2 187.824 13.975 188.574 13.975C189.307 13.975 189.907 14.2 190.374 14.65C190.857 15.0833 191.099 15.6333 191.099 16.3C191.099 16.95 190.857 17.5 190.374 17.95C189.907 18.3833 189.307 18.6 188.574 18.6ZM190.699 20.05V34H186.424V20.05H190.699ZM192.947 27.025C192.947 25.575 193.239 24.3083 193.822 23.225C194.422 22.1417 195.247 21.3083 196.297 20.725C197.364 20.1417 198.58 19.85 199.947 19.85C201.697 19.85 203.155 20.3083 204.322 21.225C205.505 22.1417 206.28 23.4333 206.647 25.1H202.097C201.714 24.0333 200.972 23.5 199.872 23.5C199.089 23.5 198.464 23.8083 197.997 24.425C197.53 25.025 197.297 25.8917 197.297 27.025C197.297 28.1583 197.53 29.0333 197.997 29.65C198.464 30.25 199.089 30.55 199.872 30.55C200.972 30.55 201.714 30.0167 202.097 28.95H206.647C206.28 30.5833 205.505 31.8667 204.322 32.8C203.139 33.7333 201.68 34.2 199.947 34.2C198.58 34.2 197.364 33.9083 196.297 33.325C195.247 32.7417 194.422 31.9083 193.822 30.825C193.239 29.7417 192.947 28.475 192.947 27.025Z" fill="#153259"/>
<circle cx="24.5" cy="24.5" r="24.5" fill="#153259"/>
<path d="M24.5172 17.4669C23.4828 17.4669 22.6322 17.164 21.9655 16.5581C21.3218 15.9288 21 15.1598 21 14.2509C21 13.3188 21.3218 12.5497 21.9655 11.9438C22.6322 11.3146 23.4828 11 24.5172 11C25.5287 11 26.3563 11.3146 27 11.9438C27.6667 12.5497 28 13.3188 28 14.2509C28 15.1598 27.6667 15.9288 27 16.5581C26.3563 17.164 25.5287 17.4669 24.5172 17.4669ZM27.4483 19.4944V39H21.5517V19.4944H27.4483Z" fill="white"/>
</svg>
