<svg width="528" height="600" viewBox="0 0 528 600" fill="none" xmlns="http://www.w3.org/2000/svg">
<path fill-rule="evenodd" clip-rule="evenodd" d="M255.97 102.259C293.071 62.2048 338.488 -21.5231 386.129 5.14449C438.456 34.4357 359.419 138.951 400.149 182.965C436.216 221.94 547.427 138.716 557.909 190.774C570.274 252.189 434.058 262.686 428.768 325.11C424.626 373.995 518.888 376.437 538.36 421.468C554.662 459.168 563.328 535.757 522.837 542.65C452.308 554.656 389.595 421.066 327.901 457.294C267.903 492.525 355.688 606.56 316.313 663.924C293.737 696.815 223.964 676.066 199.206 644.785C164.189 600.543 213.755 515.469 170.313 479.463C134.39 449.688 69.85 538.847 34.5621 508.321C3.96783 481.856 64.7015 433.633 71.1725 393.701C74.971 370.261 57.0992 345.935 64.5315 323.382C72.0961 300.427 105.661 292.78 112.107 269.486C120.521 239.082 79.8843 194.52 105.346 175.895C132.759 155.843 172.068 218.224 202.581 203.307C237.099 186.432 229.861 130.447 255.97 102.259Z" fill="#F29C6B"/>
<path d="M19.5338 201.801L197.789 201.801V193.981L19.5338 193.981V201.801Z" fill="#EBEBEB"/>
<path d="M187.786 201.811H179.966V227.668H187.786V201.811Z" fill="#EBEBEB"/>
<path d="M187.786 201.811H179.966V209.803H187.786V201.811Z" fill="#DBDBDB"/>
<path d="M37.3346 201.811H29.5146V227.668H37.3346V201.811Z" fill="#EBEBEB"/>
<path d="M37.3346 201.811H29.5146V209.803H37.3346V201.811Z" fill="#DBDBDB"/>
<path d="M164.508 193.991V144.173H151.96V193.991H164.508Z" fill="#C7C7C7"/>
<path d="M164.508 146.986V141.509H151.96V146.986H164.508Z" fill="#DBDBDB"/>
<path d="M164.508 156.026V153.993H151.96V156.026H164.508Z" fill="#DBDBDB"/>
<path d="M164.508 187.455V181.978H150.398V187.455H164.508Z" fill="#DBDBDB"/>
<path d="M151.96 193.991V135.871H143.188V193.991H151.96Z" fill="#DBDBDB"/>
<path d="M150.248 163.685V141.338H144.985V163.685H150.248Z" fill="#EBEBEB"/>
<path d="M86.987 194.012L128.32 153.152L122.153 146.913L80.8201 187.773L86.987 194.012Z" fill="#C7C7C7"/>
<path d="M95.4276 183.156L111.32 167.446L107.62 163.703L91.7274 179.413L95.4276 183.156Z" fill="#DBDBDB"/>
<path d="M143.199 193.991V149.853H128.308V193.991H143.199Z" fill="#A6A6A6"/>
<path d="M143.198 189.327V185.209H128.307V189.327H143.198Z" fill="#C7C7C7"/>
<path d="M143.198 182.502V180.908H128.307V182.502H143.198Z" fill="#C7C7C7"/>
<path d="M174.799 194.002V152.517H164.519V194.002H174.799Z" fill="#A6A6A6"/>
<path d="M174.799 189.595V185.733H164.519V189.595H174.799Z" fill="#C7C7C7"/>
<path d="M174.799 164.926V161.064H164.519V164.926H174.799Z" fill="#C7C7C7"/>
<path d="M174.789 169.077V167.579H164.508V169.077H174.789Z" fill="#C7C7C7"/>
<path d="M55.5739 140.846C64.346 149.404 65.8223 162.733 63.9716 174.372C63.9716 174.629 63.5116 174.565 63.5116 174.308C63.5116 171.666 63.5971 169.034 63.5865 166.424C63.5865 166.295 63.5009 166.188 63.4474 166.071C61.0835 164.513 59.1281 162.411 57.7455 159.941C56.28 157.063 55.7023 153.811 54.5897 150.794C54.4828 150.506 54.793 150.591 54.9855 150.741C60.3344 154.678 62.0246 158.914 63.5437 164.573C63.5086 161.612 63.197 158.661 62.613 155.758C61.5942 150.286 59.0758 145.205 55.3386 141.081C55.3185 141.048 55.31 141.01 55.3146 140.971C55.3191 140.933 55.3363 140.898 55.3635 140.871C55.3907 140.843 55.4262 140.826 55.4644 140.822C55.5026 140.817 55.5411 140.826 55.5739 140.846Z" fill="#A6A6A6"/>
<path d="M53.9267 141.851C52.4076 141.851 51.4662 144.312 50.2895 145.06C50.1657 145.161 50.022 145.234 49.8679 145.276C49.7138 145.317 49.5528 145.325 49.3953 145.3C49.2378 145.275 49.0874 145.216 48.9539 145.129C48.8204 145.042 48.7069 144.927 48.6207 144.793C47.4546 143.167 49.0593 141.167 50.5569 140.043C49.565 140.599 48.5182 141.051 47.4332 141.391C47.285 141.443 47.1272 141.462 46.9709 141.446C46.8146 141.431 46.6637 141.381 46.5289 141.3C46.3941 141.219 46.2787 141.11 46.191 140.98C46.1032 140.849 46.0452 140.701 46.0211 140.546C45.5076 138.332 48.289 137.337 50.2039 137.337C49.2732 136.695 46.6202 134.951 48.0644 134.127C49.5086 133.304 52.6109 135.764 53.6165 136.588C55.1141 137.797 56.8899 139.615 56.9648 141.509C57.0183 143.67 55.082 142.311 53.9267 141.851Z" fill="#DBDBDB"/>
<path d="M54.3545 142.226C52.4289 141.338 48.7169 142.611 48.4066 141.872C47.7648 140.386 50.728 139.369 52.3327 139.166C50.8564 138.77 48.0536 138.096 48.1178 136.716C48.2248 134.983 52.4503 136.47 54.5899 138.107C57.275 140.172 57.2643 142.172 56.815 142.568C56.2052 143.113 54.6754 142.365 54.3545 142.226Z" fill="#EBEBEB"/>
<path d="M75.5575 140C66.4645 148.248 64.4854 161.471 65.9296 173.163C65.9296 173.431 66.3789 173.377 66.3896 173.163C66.4859 170.521 66.5073 167.889 66.6142 165.279L66.764 164.926C69.1855 163.467 71.2187 161.445 72.6905 159.032C74.2738 156.207 74.9691 152.977 76.1993 150.013C76.317 149.725 76.0068 149.799 75.8035 149.939C70.3156 153.672 68.4542 157.844 66.7105 163.439C66.8564 160.482 67.279 157.545 67.9728 154.667C69.2044 149.232 71.923 144.247 75.8249 140.268C75.8604 140.232 75.8803 140.184 75.8803 140.134C75.8803 140.084 75.8604 140.036 75.8249 140C75.7894 139.965 75.7413 139.945 75.6912 139.945C75.641 139.945 75.5929 139.965 75.5575 140Z" fill="#A6A6A6"/>
<path d="M77.162 141.059C78.6704 141.166 79.5262 143.616 80.6709 144.365C80.7908 144.471 80.9316 144.55 81.0842 144.597C81.2368 144.644 81.3976 144.659 81.5561 144.639C81.7147 144.62 81.8674 144.568 82.0043 144.485C82.1412 144.403 82.2591 144.293 82.3504 144.162C83.5806 142.579 82.0509 140.514 80.596 139.337C81.5636 139.961 82.5924 140.484 83.6662 140.899C83.8124 140.957 83.9696 140.982 84.1266 140.972C84.2835 140.962 84.4364 140.918 84.5743 140.842C84.7122 140.767 84.8317 140.662 84.9244 140.535C85.017 140.408 85.0806 140.262 85.1104 140.107C85.6988 137.904 82.9709 136.813 81.056 136.695C81.9974 136.085 84.7146 134.438 83.3453 133.486C81.976 132.533 78.7667 134.973 77.6969 135.775C76.1565 136.93 74.3165 138.674 74.1774 140.557C74.0062 142.76 75.9853 141.477 77.162 141.059Z" fill="#DBDBDB"/>
<path d="M76.7126 141.391C78.681 140.589 82.3289 141.99 82.6712 141.273C83.3666 139.819 80.4461 138.685 78.8628 138.428C80.3498 138.086 83.1419 137.551 83.1419 136.128C83.1419 134.395 78.8628 135.721 76.627 137.283C73.867 139.241 73.8029 141.231 74.2308 141.648C74.8298 142.236 76.3917 141.552 76.7126 141.391Z" fill="#EBEBEB"/>
<path d="M66.25 161.792C65.6411 166.204 64.6969 170.563 63.4259 174.832C63.4088 174.916 63.3593 174.989 63.288 175.036C63.2168 175.083 63.1298 175.1 63.0461 175.083C62.9624 175.066 62.8889 175.017 62.8417 174.946C62.7946 174.874 62.7777 174.787 62.7947 174.704C63.3938 170.681 64.4849 166.734 65.0733 162.722C65.7304 158.653 65.967 154.527 65.7793 150.409C65.3942 143.638 63.5542 136.427 59.1361 131.153C59.0398 131.025 59.2431 130.843 59.3393 130.961C68.197 141.284 66.8277 153.939 66.8277 155.073C68.0793 150.794 69.3737 145.906 74.1128 141.552C74.316 141.359 74.4765 141.455 74.4444 141.776C73.5993 149.693 71.3956 153.832 66.7956 158.069C66.6137 159.299 66.4533 160.551 66.25 161.792Z" fill="#A6A6A6"/>
<path d="M59.0507 132.32C57.4568 131.614 55.2638 133.635 53.7019 133.774C53.5265 133.816 53.3443 133.822 53.1667 133.79C52.9892 133.758 52.8202 133.689 52.6704 133.589C52.5207 133.488 52.3934 133.358 52.2965 133.206C52.1997 133.054 52.1355 132.883 52.108 132.705C51.7122 130.437 54.3866 129.153 56.5047 128.747C55.1675 128.661 53.8517 129.025 52.5359 128.672C52.3546 128.651 52.1801 128.59 52.0244 128.495C51.8686 128.4 51.7353 128.273 51.6336 128.121C51.5319 127.97 51.4643 127.798 51.4354 127.618C51.4065 127.438 51.417 127.253 51.4661 127.078C52.0545 124.521 55.4349 124.938 57.4461 125.805C56.8042 124.735 54.9321 121.526 56.8256 121.344C58.7191 121.162 60.7196 125.323 61.3507 126.693C62.2921 128.704 63.2335 131.474 62.3456 133.475C61.3507 135.764 60.0242 133.379 59.0507 132.32Z" fill="#DBDBDB"/>
<path d="M59.3181 132.919C57.7562 131.047 53.2739 130.49 53.3167 129.57C53.4023 127.709 56.986 128.137 58.7511 128.736C57.4246 127.58 54.8144 125.527 55.6167 124.072C56.6009 122.328 60.2274 125.997 61.6288 128.779C63.3832 132.277 62.3562 134.331 61.693 134.523C60.7837 134.78 59.5748 133.24 59.3181 132.919Z" fill="#EBEBEB"/>
<path d="M72.0804 164.166L75.985 193.991H52.2256C52.7177 191.349 57.1358 164.134 57.1358 164.134L72.0804 164.166Z" fill="#DBDBDB"/>
<path d="M355.419 171.805C356.066 169.061 357.243 166.47 358.885 164.177C360.446 162.038 362.964 160.483 366.437 159.513C367.507 159.192 368.758 158.85 370.267 158.443C371.819 158.066 373.336 157.558 374.803 156.924C376.295 156.287 377.672 155.409 378.878 154.325C380.101 153.221 380.956 151.768 381.328 150.163C381.648 149.009 381.688 147.795 381.446 146.622C381.221 145.568 380.784 144.571 380.162 143.691C379.519 142.804 378.704 142.054 377.766 141.487C376.806 140.893 375.759 140.453 374.664 140.182C373.406 139.859 372.095 139.797 370.812 140C369.646 140.174 368.509 140.505 367.432 140.985C366.382 141.455 365.391 142.048 364.479 142.75C363.639 143.388 362.835 144.074 362.072 144.804L355.547 137.315C356.762 135.674 358.245 134.249 359.933 133.101C361.577 131.984 363.38 131.122 365.282 130.544C367.219 129.964 369.229 129.658 371.251 129.634C373.339 129.605 375.422 129.853 377.445 130.373C379.75 130.954 381.958 131.866 384.003 133.079C386.046 134.284 387.828 135.884 389.244 137.786C390.705 139.773 391.713 142.055 392.197 144.472C392.741 147.314 392.617 150.244 391.833 153.03C391.427 154.773 390.763 156.446 389.865 157.994C389.067 159.327 388.063 160.526 386.891 161.546C385.73 162.542 384.447 163.387 383.072 164.06C381.581 164.778 380.04 165.39 378.461 165.889C377.06 166.317 375.68 166.702 374.3 167.066C372.969 167.409 371.673 167.875 370.427 168.456C369.236 168.996 368.15 169.742 367.218 170.66C366.261 171.669 365.595 172.918 365.292 174.276L355.419 171.805ZM350.273 193.018L353.429 180.48L363.517 183.016L360.361 195.553L350.273 193.018Z" fill="#EBEBEB"/>
<path d="M37.1313 404.318C37.5905 406.344 37.6486 408.441 37.3025 410.49C36.7918 412.67 35.5729 414.619 33.8364 416.032C33.2374 416.577 32.4992 417.219 31.622 417.947C30.7139 418.696 29.8727 419.523 29.1081 420.418C28.3198 421.32 27.6871 422.346 27.236 423.456C26.7833 424.584 26.6862 425.823 26.9579 427.007C27.1244 427.878 27.4906 428.698 28.0276 429.404C28.5187 430.028 29.1298 430.549 29.8248 430.934C30.5395 431.308 31.3212 431.537 32.1248 431.607C32.9538 431.694 33.7911 431.651 34.6067 431.479C35.5358 431.299 36.4196 430.936 37.2062 430.409C37.9256 429.92 38.5737 429.333 39.1318 428.666C39.6753 428.008 40.1418 427.29 40.5225 426.526C40.8779 425.833 41.1887 425.119 41.4532 424.387L48.1927 427.211C47.9116 428.693 47.3837 430.118 46.6308 431.426C45.8991 432.704 44.9755 433.862 43.8922 434.86C42.7972 435.876 41.5614 436.73 40.2229 437.395C38.8476 438.086 37.3873 438.593 35.8797 438.903C34.1646 439.265 32.4063 439.376 30.6592 439.235C28.9161 439.097 27.2178 438.613 25.6634 437.812C24.0508 436.962 22.6419 435.772 21.5342 434.325C20.2608 432.615 19.4004 430.635 19.0202 428.537C18.723 427.251 18.6221 425.927 18.7207 424.611C18.8158 423.469 19.0939 422.349 19.5444 421.295C19.9866 420.256 20.5659 419.281 21.2667 418.396C22.0182 417.43 22.8406 416.522 23.7272 415.679C24.5188 414.951 25.3104 414.245 26.1127 413.539C26.8883 412.891 27.6044 412.175 28.2523 411.4C28.83 410.652 29.2717 409.808 29.5574 408.907C29.8697 407.927 29.9067 406.88 29.6644 405.88L37.1313 404.318ZM33.6867 388.582L35.6443 397.921L28.156 399.493L26.1983 390.165L33.6867 388.582Z" fill="#EBEBEB"/>
<path d="M374.022 308.863C375.281 310.516 376.208 312.398 376.749 314.404C377.18 316.607 376.868 318.891 375.862 320.898C375.551 321.646 375.145 322.534 374.653 323.561C374.133 324.619 373.711 325.722 373.39 326.856C373.048 328.004 372.9 329.201 372.952 330.397C373.013 331.61 373.438 332.777 374.171 333.745C374.683 334.467 375.357 335.057 376.14 335.468C376.848 335.834 377.623 336.052 378.418 336.11C379.224 336.161 380.032 336.049 380.793 335.778C381.578 335.505 382.317 335.116 382.986 334.623C383.758 334.076 384.41 333.377 384.901 332.569C385.37 331.825 385.73 331.018 385.971 330.172C386.187 329.35 386.312 328.508 386.345 327.658C386.389 326.885 386.389 326.11 386.345 325.337L393.641 325.102C394.009 326.562 394.125 328.074 393.983 329.573C393.844 331.045 393.483 332.488 392.914 333.852C392.334 335.23 391.563 336.519 390.624 337.682C389.664 338.892 388.549 339.971 387.308 340.891C385.895 341.935 384.339 342.767 382.687 343.363C381.044 343.96 379.298 344.225 377.552 344.143C375.735 344.041 373.962 343.548 372.353 342.699C370.484 341.67 368.877 340.224 367.656 338.474C366.852 337.428 366.21 336.266 365.752 335.029C365.361 333.951 365.148 332.817 365.121 331.67C365.09 330.54 365.208 329.41 365.474 328.311C365.765 327.123 366.14 325.958 366.597 324.824C367.015 323.829 367.432 322.855 367.881 321.903C368.328 320.987 368.686 320.031 368.951 319.047C369.193 318.123 369.272 317.163 369.186 316.212C369.06 315.192 368.657 314.227 368.02 313.42L374.022 308.863ZM364.394 296.026L370.053 303.696L363.88 308.253L358.221 300.583L364.394 296.026Z" fill="#EBEBEB"/>
<path d="M409.152 289.564C409.116 287.277 409.53 285.005 410.372 282.878C411.417 280.645 413.18 278.826 415.378 277.711C416.138 277.251 417.079 276.738 418.192 276.149C419.32 275.548 420.394 274.85 421.401 274.063C422.456 273.276 423.367 272.313 424.097 271.218C424.829 270.101 425.203 268.787 425.167 267.452C425.185 266.529 424.997 265.614 424.616 264.774C424.234 263.934 423.67 263.189 422.963 262.595C422.286 262.026 421.5 261.6 420.652 261.344C419.78 261.068 418.871 260.927 417.957 260.927C416.917 260.914 415.884 261.107 414.918 261.494C414.035 261.864 413.204 262.349 412.447 262.938C411.712 263.518 411.048 264.182 410.468 264.917C409.935 265.582 409.442 266.278 408.992 267.003L402.381 262.446C403.015 260.915 403.901 259.501 405.002 258.263C406.083 257.06 407.338 256.025 408.725 255.193C410.137 254.351 411.66 253.71 413.25 253.288C414.884 252.858 416.567 252.642 418.256 252.647C420.187 252.647 422.108 252.928 423.958 253.481C425.802 254.023 427.519 254.929 429.007 256.145C430.544 257.42 431.788 259.01 432.655 260.809C433.667 262.936 434.176 265.268 434.142 267.623C434.162 269.07 433.971 270.511 433.575 271.902C433.207 273.107 432.655 274.247 431.938 275.283C431.228 276.299 430.386 277.216 429.435 278.011C428.402 278.873 427.308 279.659 426.162 280.364C425.156 280.974 424.14 281.562 423.124 282.119C422.146 282.654 421.218 283.277 420.353 283.98C419.538 284.638 418.847 285.435 418.31 286.333C417.753 287.31 417.476 288.42 417.507 289.543L409.152 289.564ZM409.302 307.258V296.774H417.732V307.258H409.302Z" fill="#EBEBEB"/>
<path d="M145.434 350.337C144.926 348.108 144.86 345.8 145.242 343.544C145.803 341.145 147.151 339.002 149.072 337.458C149.724 336.848 150.527 336.152 151.5 335.318C152.49 334.487 153.413 333.578 154.26 332.601C155.118 331.603 155.808 330.472 156.303 329.252C156.8 328.012 156.905 326.649 156.603 325.348C156.421 324.391 156.018 323.49 155.426 322.716C154.877 322.053 154.2 321.508 153.436 321.112C152.654 320.694 151.795 320.439 150.912 320.363C150.003 320.278 149.088 320.329 148.194 320.512C147.174 320.718 146.204 321.122 145.338 321.7C144.542 322.243 143.822 322.891 143.199 323.625C142.605 324.347 142.096 325.132 141.68 325.968C141.275 326.73 140.917 327.516 140.61 328.322L133.325 325.198C133.629 323.57 134.204 322.004 135.026 320.566C135.828 319.161 136.842 317.887 138.032 316.79C139.232 315.669 140.587 314.725 142.054 313.987C143.567 313.231 145.171 312.67 146.825 312.318C148.713 311.924 150.647 311.801 152.57 311.954C154.484 312.104 156.349 312.631 158.058 313.506C159.831 314.432 161.379 315.735 162.593 317.325C164.821 320.431 165.923 324.205 165.717 328.022C165.61 329.274 165.306 330.501 164.819 331.659C164.334 332.807 163.701 333.886 162.936 334.869C162.102 335.924 161.198 336.921 160.229 337.853C159.363 338.656 158.496 339.437 157.619 340.185C156.772 340.914 155.992 341.715 155.287 342.582C154.63 343.399 154.117 344.321 153.768 345.31C153.434 346.389 153.397 347.538 153.661 348.637L145.434 350.337ZM149.253 367.614L147.114 357.366L155.362 355.611L157.501 365.87L149.253 367.614Z" fill="#EBEBEB"/>
<path d="M402.68 433.319L416.972 433.02L424.012 432.902C426.354 432.848 428.676 432.902 431.008 432.838L430.537 433.319L430.473 421.348L431.008 421.883L416.812 421.819C412.094 421.819 407.377 421.691 402.648 421.637L402.948 421.348C402.948 423.306 402.852 425.274 402.798 427.275L402.68 433.319ZM402.68 433.319L402.531 427.393C402.531 425.403 402.413 423.381 402.392 421.348V421.06H402.68C407.409 421.006 412.126 420.888 416.844 420.878L431.008 420.814H431.543V421.348V433.319V433.801H431.061C428.676 433.801 426.279 433.801 423.905 433.736L416.78 433.619L402.68 433.319Z" fill="#EBEBEB"/>
<path d="M418.481 448.414L432.773 448.114L439.812 447.996C442.155 447.943 444.476 447.996 446.808 447.932L446.337 448.414L446.284 436.443L446.808 436.978L432.644 436.914C427.927 436.914 423.209 436.785 418.481 436.732L418.78 436.443C418.78 438.401 418.684 440.369 418.641 442.369L418.481 448.414ZM418.481 448.414L418.331 442.487C418.331 440.497 418.213 438.475 418.192 436.443V436.154H418.481C423.209 436.101 427.927 435.983 432.644 435.972L446.808 435.908H447.354V436.443L447.289 448.414V448.895H446.765C444.38 448.895 441.994 448.895 439.609 448.831L432.484 448.713L418.481 448.414Z" fill="#EBEBEB"/>
<path d="M386.859 448.414L401.151 448.114L408.19 447.996C410.522 447.943 412.854 447.996 415.186 447.932L414.715 448.414L414.673 436.443L415.207 436.978L401.044 436.914C396.326 436.914 391.598 436.785 386.88 436.732L387.169 436.443C387.169 438.401 387.083 440.369 387.03 442.369L386.859 448.414ZM386.859 448.414L386.709 442.487C386.655 440.497 386.591 438.475 386.57 436.443V436.154H386.859C391.576 436.101 396.305 435.983 401.022 435.972L415.186 435.908H415.721V436.443L415.742 448.414V448.895H415.272C412.886 448.895 410.49 448.895 408.115 448.831L400.99 448.713L386.859 448.414Z" fill="#EBEBEB"/>
<path d="M21.78 448.414L36.0614 448.114L43.1004 447.996C45.4432 447.943 47.7753 447.996 50.1074 447.932L49.626 448.414L49.5725 436.443L50.1074 436.978L35.9758 436.914C31.2474 436.914 26.5298 436.785 21.8121 436.732L22.1009 436.443C22.1009 438.401 22.0047 440.369 21.9619 442.369L21.78 448.414ZM21.78 448.414L21.6195 442.487C21.6195 440.497 21.5019 438.475 21.4805 436.443V436.154H21.78C26.4977 436.101 31.2153 435.983 35.9437 435.972L50.1074 435.908H50.6422V436.443L50.5781 448.414V448.895H50.1074C47.7218 448.895 45.3255 448.895 42.9399 448.831L35.8153 448.713L21.78 448.414Z" fill="#EBEBEB"/>
<path d="M21.78 115.471L36.0614 115.171L43.1004 115.043C45.4432 115.043 47.7753 115.043 50.1074 115.043L49.626 115.524L49.5725 103.554L50.1074 104.078L35.9758 103.949C31.2474 103.949 26.5298 103.832 21.8121 103.778L22.1009 103.489C22.1009 105.447 22.0047 107.415 21.9619 109.405L21.78 115.471ZM21.78 115.471L21.6195 109.544C21.6195 107.544 21.5019 105.522 21.4805 103.5V103.211H21.78C26.4977 103.211 31.2153 103.04 35.9437 103.04L50.1074 102.976H50.6422V103.522L50.5781 115.492V115.963H50.1074C47.7218 115.963 45.3255 115.963 42.9399 115.909L35.8153 115.717L21.78 115.471Z" fill="#EBEBEB"/>
<path d="M6.02268 130.565L20.304 130.266L27.3431 130.137C29.6859 130.137 32.0073 130.137 34.35 130.137L33.8686 130.619V118.648L34.4035 119.172L20.1436 119.054C15.4152 119.054 10.6975 118.926 6.02268 118.926L6.31151 118.637C6.31151 120.595 6.21523 122.563 6.17244 124.553L6.02268 130.565ZM6.02268 130.565L5.86221 124.639C5.86221 122.638 5.74454 120.616 5.72314 118.594V118.306H6.02268C10.7403 118.306 15.458 118.134 20.1864 118.134L34.35 118.07H34.8849V118.616L34.8207 130.587V131.057H34.35C31.9538 131.057 29.5682 131.057 27.1826 131.057L20.058 130.929L6.02268 130.565Z" fill="#EBEBEB"/>
<path d="M418.481 115.481L432.773 115.182L439.812 115.064C442.155 115.064 444.476 115.064 446.808 115L446.337 115.481L446.284 103.511L446.808 104.046L432.644 103.949C427.927 103.949 423.209 103.832 418.481 103.778L418.78 103.489C418.78 105.447 418.684 107.415 418.641 109.405L418.481 115.481ZM418.481 115.481L418.331 109.555C418.331 107.555 418.213 105.543 418.192 103.511V103.222H418.481C423.209 103.169 427.927 103.062 432.644 103.051L446.765 102.976H447.311V103.511L447.257 115.481V115.963H446.765C444.38 115.963 441.994 115.963 439.609 115.963L432.484 115.845L418.481 115.481Z" fill="#EBEBEB"/>
<path d="M265.13 270.651L250.849 270.95L243.81 271.068C241.467 271.121 239.135 271.068 236.803 271.132L237.284 270.651L237.338 282.621L236.803 282.087L250.967 282.161C255.695 282.161 260.413 282.279 265.13 282.333L264.841 282.621C264.841 280.664 264.938 278.695 264.981 276.706L265.13 270.651ZM265.13 270.651L265.291 276.577C265.291 278.578 265.408 280.589 265.43 282.621V282.91H265.13C260.413 282.91 255.695 283.071 250.967 283.081L236.803 283.146H236.268V282.6L236.332 270.629V270.148H236.803C239.189 270.148 241.585 270.148 243.97 270.202L251.095 270.319L265.13 270.651Z" fill="#EBEBEB"/>
<path d="M249.33 255.556L235.049 255.856L228.01 255.974C225.667 255.974 223.335 255.974 221.003 256.038L221.484 255.556L221.538 267.527L221.003 266.992L235.166 267.067C239.884 267.067 244.612 267.185 249.33 267.238L249.041 267.527C249.041 265.569 249.127 263.601 249.18 261.611L249.33 255.556ZM249.33 255.556L249.48 261.483C249.533 263.483 249.608 265.494 249.619 267.527V267.816H249.319C244.602 267.869 239.873 267.976 235.156 267.987L220.992 268.051H220.457V267.516L220.521 255.546V255.064H221.045C223.431 255.064 225.827 255.064 228.213 255.118L235.337 255.235L249.33 255.556Z" fill="#EBEBEB"/>
<path d="M0 502.458L56.6012 502.201L113.202 502.105L226.394 501.923L339.586 502.105L396.187 502.201L452.788 502.458L396.187 502.725L339.586 502.822L226.394 502.993L113.202 502.822L56.6012 502.725L0 502.458Z" fill="#263238"/>
<path d="M226.394 557.743C332.971 557.743 419.369 549.333 419.369 538.958C419.369 528.584 332.971 520.173 226.394 520.173C119.817 520.173 33.4194 528.584 33.4194 538.958C33.4194 549.333 119.817 557.743 226.394 557.743Z" fill="#C19074"/>
<path d="M415.743 384.752C411.678 380.772 406.425 375.958 400.21 377.681C394.369 379.296 392.133 385.672 391.085 390.988C389.737 397.846 388.688 404.756 387.597 411.656C386.506 418.556 385.458 425.563 384.463 432.57C383.892 436.507 383.336 440.447 382.794 444.391C382.516 446.359 382.241 448.328 381.97 450.296C381.703 452.232 381.382 454.169 381.275 456.116C381.275 456.736 382.216 456.822 382.345 456.233C383.104 452.949 383.414 449.526 383.896 446.199C384.377 442.872 384.869 439.481 385.351 436.133C386.324 429.468 387.34 422.814 388.335 416.149C389.33 409.485 390.379 402.841 391.448 396.188C392.347 390.539 392.775 383.532 397.771 379.809C399.129 378.882 400.7 378.315 402.338 378.161C403.975 378.008 405.624 378.273 407.131 378.932C410.415 380.195 413.047 382.548 415.625 384.88C415.743 384.955 415.85 384.837 415.743 384.752Z" fill="#263238"/>
<path d="M410.212 380.687C410.212 380.687 401.9 377.702 397.803 383.757C393.706 389.812 398.605 405.238 436.421 413.935C435.315 402.115 432.242 390.563 427.328 379.756C419.22 362.073 404.767 368.77 410.212 380.687Z" fill="#F25E3D"/>
<path d="M434.25 411.41C433.679 410.352 433.043 409.33 432.346 408.351C431.714 407.377 431.073 406.404 430.431 405.441C429.949 404.714 429.447 403.986 428.955 403.301C428.955 403.13 428.955 402.948 429.019 402.767L429.147 401.782C429.243 401.076 429.35 400.36 429.447 399.643C429.543 398.926 429.671 398.242 429.81 397.503C429.897 396.747 430.062 396.001 430.302 395.278C430.302 395.161 430.153 395.107 430.142 395.278C430.061 395.707 429.946 396.129 429.8 396.541L429.543 397.493C429.361 398.209 429.19 398.926 429.029 399.632C428.869 400.338 428.751 400.969 428.634 401.633C428.58 401.964 428.537 402.285 428.495 402.606C427.821 401.643 427.125 400.691 426.419 399.761C424.408 397.118 422.29 394.572 420.086 392.08C420.086 392.08 420.086 392.08 420.086 392.015C420.289 388.047 420.193 384.11 421.07 380.248C421.07 380.141 420.942 380.077 420.91 380.184C419.913 383.868 419.438 387.675 419.498 391.491C418.717 390.614 417.915 389.737 417.112 388.87C415.262 386.891 413.389 384.934 411.475 383.029C411.4 382.955 411.271 383.029 411.346 383.147C414.555 386.581 417.562 390.154 420.514 393.791C418.204 393.754 415.894 393.839 413.593 394.048C411.036 394.23 408.49 394.562 405.944 394.915C405.826 394.915 405.858 395.096 405.944 395.086C408.475 394.713 411.025 394.484 413.582 394.401C416.053 394.294 418.503 394.401 420.974 394.401C422.572 396.369 424.144 398.359 425.692 400.37H425.371C424.793 400.37 424.215 400.37 423.638 400.37C422.482 400.37 421.338 400.477 420.193 400.574C417.843 400.769 415.509 401.126 413.208 401.643C413.185 401.643 413.163 401.652 413.147 401.668C413.131 401.684 413.122 401.706 413.122 401.729C413.122 401.752 413.131 401.773 413.147 401.789C413.163 401.805 413.185 401.815 413.208 401.815C415.529 401.547 417.861 401.333 420.193 401.248C421.263 401.248 422.429 401.248 423.542 401.248H425.371C425.691 401.291 426.016 401.262 426.323 401.162C427.336 402.481 428.348 403.804 429.361 405.131C430.163 406.201 430.955 407.27 431.736 408.34C432.517 409.41 433.255 410.64 434.132 411.667C434.175 411.592 434.293 411.496 434.25 411.41Z" fill="#263238"/>
<path d="M413.828 389.277C412.487 389.106 411.135 389.041 409.784 389.084C408.436 389.084 407.078 389.084 405.73 389.17C405.612 389.17 405.623 389.341 405.73 389.341C407.099 389.234 408.468 389.213 409.838 389.234C411.207 389.255 412.491 389.384 413.807 389.341C413.871 389.341 413.871 389.288 413.828 389.277Z" fill="#263238"/>
<path d="M425.702 392.326C425.852 391.031 426.013 389.737 426.291 388.464C426.291 388.441 426.282 388.419 426.266 388.403C426.25 388.387 426.228 388.378 426.205 388.378C426.183 388.378 426.161 388.387 426.145 388.403C426.129 388.419 426.12 388.441 426.12 388.464C425.927 389.737 425.681 390.999 425.499 392.272C425.403 392.903 425.317 393.545 425.232 394.176C425.123 394.773 425.073 395.378 425.082 395.984C425.089 396.008 425.104 396.029 425.125 396.044C425.145 396.059 425.169 396.067 425.194 396.067C425.219 396.067 425.244 396.059 425.264 396.044C425.284 396.029 425.299 396.008 425.307 395.984C425.419 395.388 425.483 394.783 425.499 394.176C425.553 393.556 425.628 392.935 425.702 392.326Z" fill="#263238"/>
<path d="M423.231 378.012C422.899 379.275 422.568 380.548 422.343 381.821C422.225 382.473 422.118 383.126 422.033 383.778C421.915 384.409 421.872 385.052 421.904 385.693C421.904 385.707 421.91 385.721 421.92 385.731C421.93 385.741 421.944 385.747 421.958 385.747C421.972 385.747 421.986 385.741 421.996 385.731C422.006 385.721 422.011 385.707 422.011 385.693C422.161 385.097 422.258 384.488 422.3 383.875C422.386 383.243 422.482 382.623 422.589 381.992C422.824 380.676 423.06 379.371 423.391 378.076C423.402 377.969 423.231 377.905 423.231 378.012Z" fill="#263238"/>
<path d="M374.022 454.714C373.808 452.339 373.573 449.954 373.327 447.579C372.82 442.872 372.253 438.169 371.626 433.469C370.995 428.794 370.395 424.098 369.636 419.433C369.363 417.252 368.879 415.103 368.192 413.015C367.947 412.124 367.502 411.302 366.89 410.61C366.278 409.918 365.516 409.376 364.662 409.025C360.211 407.495 357.173 412.106 355.419 415.368C355.365 415.465 355.504 415.54 355.569 415.454C356.638 413.903 359.612 409.57 362.993 409.774C365.261 409.902 367.079 411.517 368.17 417.176C370.888 431.286 373.337 459.967 373.626 461.796C373.776 462.791 374.471 462.748 374.482 461.678C374.439 459.389 374.172 457.046 374.022 454.714Z" fill="#263238"/>
<path d="M356.563 413.667C356.563 413.667 360.457 399.932 351.856 406.8C337.543 418.235 337.04 443.065 337.04 443.065C337.04 443.065 362.479 428.291 365.635 418.546C370.353 404.061 356.563 413.667 356.563 413.667Z" fill="#F25E3D"/>
<path d="M361.377 420.407C359.387 420.814 357.355 421.081 355.344 421.37L352.477 421.776C351.835 421.862 351.182 421.926 350.53 422.001C352.423 419.391 354.338 416.791 356.157 414.128C356.174 414.105 356.181 414.076 356.177 414.048C356.173 414.02 356.158 413.995 356.135 413.978C356.113 413.961 356.084 413.953 356.056 413.957C356.028 413.961 356.003 413.976 355.985 413.999C354.469 415.555 353.04 417.194 351.706 418.909L350.572 415.7C350.145 414.47 349.674 413.25 349.364 411.977C349.364 411.87 349.171 411.977 349.203 412.031C349.545 413.282 349.792 414.577 350.134 415.839C350.476 417.101 350.829 418.257 351.257 419.444C350.326 420.653 349.428 421.894 348.561 423.146C348.123 421.905 347.577 420.707 347.203 419.444C347.203 419.337 346.999 419.391 347.032 419.444C347.492 420.846 347.738 422.29 348.165 423.723C347.577 424.579 346.999 425.435 346.443 426.291C345.373 427.885 344.443 429.5 343.501 431.126C343.428 431.158 343.366 431.212 343.325 431.282C343.285 431.351 343.268 431.431 343.277 431.511C341.672 434.293 340.142 437.106 338.634 439.952C338.623 439.971 338.62 439.995 338.626 440.017C338.632 440.039 338.646 440.058 338.666 440.069C338.686 440.081 338.709 440.084 338.731 440.078C338.754 440.072 338.772 440.057 338.784 440.037C340.292 437.224 341.993 434.485 343.715 431.8C343.985 431.711 344.266 431.657 344.55 431.64L345.427 431.447C346.079 431.308 346.732 431.137 347.385 430.976C348.679 430.655 349.952 430.345 351.268 430.12C351.375 430.12 351.321 429.939 351.268 429.96C349.727 430.249 348.187 430.431 346.625 430.602C345.887 430.687 345.159 430.784 344.432 430.901H344.325C345.231 429.518 346.158 428.141 347.106 426.772C348.026 425.435 348.979 424.108 349.931 422.782C350.819 422.664 351.685 422.429 352.562 422.268L355.515 421.691C357.483 421.295 359.452 420.856 361.431 420.535C361.538 420.6 361.484 420.386 361.377 420.407Z" fill="#263238"/>
<path d="M346.09 421.766C345.973 421.402 345.866 421.038 345.748 420.696C345.509 419.937 345.313 419.166 345.16 418.385C345.16 418.278 344.978 418.332 344.999 418.385C345.17 419.166 345.352 419.936 345.523 420.707C345.679 421.484 345.901 422.246 346.187 422.985C346.205 423.016 346.232 423.04 346.266 423.054C346.299 423.067 346.336 423.069 346.37 423.06C346.404 423.05 346.435 423.029 346.456 423C346.477 422.971 346.488 422.935 346.486 422.9C346.369 422.536 346.208 422.151 346.09 421.766Z" fill="#263238"/>
<path d="M363.977 417.23C362.822 417.401 361.656 417.487 360.479 417.594C359.302 417.7 358.158 417.85 356.991 418.032C356.927 418.032 356.927 418.139 356.991 418.128C358.158 418.054 359.324 417.957 360.49 417.807C361.656 417.658 362.811 417.487 363.988 417.401C364.095 417.39 364.084 417.219 363.977 417.23Z" fill="#263238"/>
<path d="M392.689 437.331C392.229 427.221 391.619 417.123 390.55 407.056C390.047 402.039 389.48 397.033 388.774 392.08C388.15 387.172 387.181 382.313 385.875 377.542C384.979 373.831 383.333 370.344 381.039 367.293C379.906 365.809 378.414 364.638 376.704 363.889C374.993 363.141 373.121 362.84 371.262 363.014C366.844 363.56 363.271 366.352 360.19 369.379C356.734 372.781 353.568 376.493 350.369 380.077C349.556 380.997 348.754 381.928 347.952 382.858C347.887 382.944 348.005 383.062 348.08 382.976C351.214 379.382 354.499 375.883 357.868 372.546C361.013 369.454 364.287 366.127 368.566 364.801C370.592 364.158 372.759 364.107 374.813 364.651C376.45 365.168 377.924 366.1 379.092 367.357C381.553 369.903 382.922 373.359 383.906 376.707C386.624 386.003 387.597 395.749 388.603 405.345C389.608 414.941 390.325 424.868 390.817 434.667C391.309 444.466 391.694 454.361 392.646 464.182C392.764 465.391 392.914 466.599 393.074 467.808C393.171 468.611 394.433 468.621 394.369 467.808C393.609 457.646 393.138 447.493 392.689 437.331Z" fill="#263238"/>
<path d="M359.655 370.449C359.655 370.449 365.432 359.751 358.585 356.328C351.739 352.905 328.931 378.387 322.267 415.657C322.267 415.657 359.141 399.343 371.668 383.083C384.195 366.823 370.01 363.25 359.655 370.449Z" fill="#F25E3D"/>
<path d="M365.079 379.135C360.939 379.135 356.799 378.825 352.659 378.847L354.991 376.183C356.143 375 357.215 373.742 358.2 372.417C358.254 372.332 358.136 372.214 358.051 372.278C356.924 373.242 355.876 374.294 354.916 375.423C353.846 376.493 352.841 377.627 351.814 378.74C350.231 380.462 348.679 382.195 347.128 383.949C347.128 383.778 347.128 383.607 347.128 383.447C347.128 382.719 347.128 381.992 347.128 381.307C347.128 379.906 347.128 378.494 347.128 377.092C347.128 374.247 347.128 371.38 347.342 368.534C347.342 368.427 347.182 368.427 347.171 368.534C346.978 371.401 346.679 374.247 346.54 377.092C346.476 378.504 346.444 379.906 346.422 381.318C346.422 382.035 346.422 382.762 346.422 383.457C346.422 383.853 346.422 384.27 346.422 384.677C346.187 384.955 345.93 385.222 345.695 385.49C342.389 389.277 339.276 393.181 336.174 397.161C336.174 396.947 336.174 396.712 336.12 396.498C336.12 396.059 336.024 395.621 335.981 395.182C335.874 394.23 335.746 393.288 335.596 392.336C335.446 391.384 335.329 390.561 335.179 389.673C335.029 388.785 334.762 387.672 334.687 386.667C334.692 386.654 334.693 386.64 334.692 386.626C334.69 386.612 334.685 386.599 334.677 386.588C334.669 386.577 334.659 386.567 334.646 386.561C334.634 386.555 334.62 386.551 334.607 386.551C334.593 386.551 334.579 386.555 334.567 386.561C334.555 386.567 334.544 386.577 334.536 386.588C334.529 386.599 334.523 386.612 334.522 386.626C334.52 386.64 334.522 386.654 334.526 386.667C334.694 387.673 334.808 388.687 334.869 389.705L335.125 392.443C335.2 393.353 335.286 394.262 335.382 395.182L335.511 396.498C335.511 396.712 335.564 396.936 335.596 397.15C335.606 397.337 335.665 397.518 335.767 397.674L334.195 399.728C332.055 402.499 330.044 405.302 327.99 408.094C327.926 408.18 328.054 408.297 328.119 408.212C330.065 405.676 332.066 403.184 334.088 400.723C335.607 400.788 337.158 400.67 338.677 400.648C340.196 400.627 341.886 400.648 343.47 400.648C343.492 400.648 343.514 400.639 343.53 400.623C343.546 400.607 343.555 400.586 343.555 400.563C343.555 400.54 343.546 400.518 343.53 400.502C343.514 400.486 343.492 400.477 343.47 400.477C341.865 400.477 340.26 400.531 338.666 400.541C337.072 400.552 335.725 400.477 334.27 400.541C336.045 398.402 337.853 396.262 339.618 394.069L341.715 391.716C342.329 391.796 342.948 391.818 343.566 391.78H345.705C347.064 391.78 348.423 391.78 349.792 391.727C352.605 391.727 355.419 391.588 358.232 391.577C358.245 391.582 358.259 391.583 358.273 391.581C358.287 391.58 358.3 391.575 358.311 391.567C358.322 391.559 358.332 391.548 358.338 391.536C358.344 391.524 358.348 391.51 358.348 391.497C358.348 391.483 358.344 391.469 358.338 391.457C358.332 391.445 358.322 391.434 358.311 391.426C358.3 391.418 358.287 391.413 358.273 391.412C358.259 391.41 358.245 391.412 358.232 391.416C355.408 391.416 352.595 391.256 349.781 391.181C348.412 391.181 347.053 391.106 345.684 391.085H343.545C343.138 391.085 342.71 391.085 342.282 391.085L346.936 385.575C346.972 385.551 347.001 385.518 347.021 385.479C348.53 383.693 350.038 381.917 351.568 380.13C351.782 379.895 351.996 379.66 352.199 379.414C356.478 379.542 360.757 379.264 365.036 379.349C365.197 379.307 365.197 379.135 365.079 379.135Z" fill="#263238"/>
<path d="M362.96 386.463H361.955C361.935 386.463 361.916 386.471 361.902 386.485C361.888 386.499 361.88 386.518 361.88 386.538C361.88 386.558 361.888 386.577 361.902 386.591C361.916 386.605 361.935 386.613 361.955 386.613H362.95C362.964 386.607 362.976 386.597 362.984 386.584C362.993 386.571 362.998 386.557 362.999 386.541C363 386.526 362.997 386.511 362.991 386.497C362.984 386.483 362.973 386.472 362.96 386.463Z" fill="#263238"/>
<path d="M360.725 386.474C359.398 386.474 358.072 386.474 356.745 386.389L354.766 386.367C354.151 386.292 353.53 386.292 352.915 386.367C352.898 386.367 352.882 386.374 352.87 386.386C352.858 386.398 352.851 386.414 352.851 386.431C352.851 386.448 352.858 386.465 352.87 386.477C352.882 386.489 352.898 386.496 352.915 386.496C353.528 386.619 354.153 386.662 354.777 386.624H356.766H360.746C360.842 386.645 360.842 386.474 360.725 386.474Z" fill="#263238"/>
<path d="M349.139 398.926C346.441 398.472 343.713 398.225 340.977 398.188V398.242C343.694 398.498 346.401 398.648 349.097 399.087C349.204 399.108 349.246 398.937 349.139 398.926Z" fill="#263238"/>
<path d="M338.046 387.052C338.046 386.816 337.992 386.581 337.96 386.346C337.896 385.811 337.81 385.276 337.725 384.752C337.564 383.735 337.393 382.73 337.2 381.714C337.2 381.628 337.019 381.649 337.029 381.714C337.158 382.783 337.275 383.8 337.372 384.848L337.5 386.388C337.486 386.881 337.554 387.373 337.703 387.843C337.725 387.875 337.755 387.901 337.79 387.916C337.825 387.932 337.864 387.938 337.902 387.932C337.94 387.926 337.976 387.91 338.005 387.885C338.034 387.86 338.056 387.827 338.067 387.79C338.104 387.545 338.097 387.295 338.046 387.052Z" fill="#263238"/>
<path d="M392.325 356.724C390.999 354.264 389.319 351.022 386.025 351.225C383.307 351.397 382.077 354.167 381.499 356.467C379.702 363.56 379.574 371.048 379.232 378.323C378.483 393.695 377.819 409.078 377.723 424.472C377.723 428.751 377.723 433.03 377.723 437.309C377.723 441.663 377.723 446.039 378.023 450.382C378.023 450.467 378.057 450.549 378.117 450.609C378.177 450.669 378.259 450.703 378.344 450.703C378.429 450.703 378.51 450.669 378.571 450.609C378.631 450.549 378.665 450.467 378.665 450.382C378.665 446.659 378.558 442.893 378.547 439.213C378.536 435.533 378.547 431.95 378.611 428.313C378.732 420.96 378.928 413.607 379.199 406.254C379.478 398.948 379.798 391.641 380.109 384.335C380.258 380.687 380.419 377.028 380.579 373.38C380.74 369.732 380.89 366.309 381.296 362.79C381.521 360.81 381.81 358.842 382.227 356.906C382.43 355.461 383.017 354.098 383.928 352.958C384.556 352.338 385.385 351.962 386.266 351.899C387.147 351.837 388.021 352.091 388.731 352.616C390.239 353.703 391.42 355.183 392.144 356.895C392.166 356.919 392.198 356.933 392.231 356.934C392.264 356.935 392.296 356.923 392.32 356.9C392.344 356.878 392.358 356.846 392.359 356.813C392.36 356.78 392.348 356.748 392.325 356.724Z" fill="#263238"/>
<path d="M391.427 355.547C391.427 355.547 388.72 345.984 394.711 350.765C404.681 358.724 405.034 376.044 405.034 376.044C405.034 376.044 387.308 365.753 385.105 358.928C381.82 348.85 391.427 355.547 391.427 355.547Z" fill="#F25E3D"/>
<path d="M401.301 368.951C401.14 368.684 400.969 368.427 400.798 368.16C400.819 367.889 400.819 367.617 400.798 367.347C400.798 366.94 400.798 366.523 400.798 366.116C400.798 365.303 400.798 364.49 400.884 363.688C400.884 363.665 400.875 363.644 400.859 363.628C400.843 363.612 400.821 363.602 400.798 363.602C400.775 363.602 400.754 363.612 400.738 363.628C400.721 363.644 400.712 363.665 400.712 363.688C400.712 364.48 400.638 365.282 400.616 366.074C400.616 366.469 400.616 366.865 400.616 367.261C400.616 367.411 400.616 367.593 400.616 367.775C399.921 366.705 399.204 365.635 398.477 364.565C398.263 364.255 398.038 363.956 397.824 363.656C397.71 362.619 397.692 361.573 397.771 360.532C397.771 359.463 397.771 358.307 397.835 357.195C397.835 357.088 397.664 357.088 397.664 357.195C397.664 358.35 397.578 359.505 397.514 360.661C397.444 361.482 397.423 362.308 397.45 363.132C395.738 360.81 393.919 358.564 392.101 356.328C392.037 356.253 391.908 356.328 391.973 356.435C393.106 357.879 394.198 359.356 395.267 360.853C393.181 360.361 391.063 360.083 388.945 359.783C388.838 359.783 388.795 359.933 388.945 359.955C391.192 360.297 393.395 360.853 395.61 361.345C396.455 362.543 397.3 363.742 398.124 364.95L399.129 366.427H399.044L398.348 366.33L396.872 366.202C395.856 366.116 394.829 366.063 393.802 366.009C393.695 366.009 393.706 366.181 393.802 366.181C394.807 366.181 395.813 366.277 396.808 366.384L398.402 366.576L399.086 366.662H399.29C399.857 367.496 400.434 368.331 400.991 369.165C401.996 370.652 402.895 372.235 403.954 373.658C403.968 373.67 403.985 373.677 404.003 373.679C404.021 373.68 404.039 373.676 404.055 373.667C404.07 373.657 404.082 373.643 404.089 373.626C404.096 373.609 404.097 373.59 404.093 373.573C403.256 371.978 402.324 370.434 401.301 368.951Z" fill="#263238"/>
<path d="M396.893 358.147C396.893 357.772 396.893 357.398 396.893 357.023C396.872 356.241 396.904 355.458 396.99 354.681C396.994 354.668 396.996 354.654 396.994 354.64C396.993 354.626 396.988 354.613 396.98 354.602C396.972 354.591 396.961 354.581 396.949 354.575C396.937 354.569 396.923 354.565 396.909 354.565C396.896 354.565 396.882 354.569 396.87 354.575C396.858 354.581 396.847 354.591 396.839 354.602C396.831 354.613 396.826 354.626 396.825 354.64C396.823 354.654 396.824 354.668 396.829 354.681C396.829 355.462 396.744 356.232 396.701 357.002C396.701 357.398 396.701 357.783 396.701 358.168V358.703C396.674 358.887 396.674 359.075 396.701 359.259C396.701 359.279 396.709 359.298 396.723 359.312C396.737 359.326 396.756 359.334 396.776 359.334C396.796 359.334 396.815 359.326 396.829 359.312C396.843 359.298 396.851 359.279 396.851 359.259C396.877 359.089 396.877 358.916 396.851 358.746L396.893 358.147Z" fill="#263238"/>
<path d="M394.701 362.105C394.037 361.987 393.363 361.955 392.7 361.902C392.037 361.848 391.245 361.773 390.561 361.677C390.538 361.677 390.516 361.686 390.5 361.702C390.484 361.718 390.475 361.74 390.475 361.763C390.475 361.785 390.484 361.807 390.5 361.823C390.516 361.839 390.538 361.848 390.561 361.848C391.962 361.934 393.353 362.19 394.754 362.233C394.765 362.244 394.776 362.116 394.701 362.105Z" fill="#263238"/>
<path d="M400.263 362.158C400.317 362.233 400.263 362.447 400.263 362.533V363.506C400.263 363.731 400.263 363.956 400.263 364.18C400.226 364.371 400.226 364.567 400.263 364.758C400.263 364.758 400.317 364.758 400.327 364.758C400.349 364.666 400.349 364.571 400.327 364.48C400.322 364.376 400.322 364.273 400.327 364.169V363.506C400.327 363.282 400.327 363.057 400.327 362.832V362.533C400.327 362.436 400.327 362.233 400.327 362.158C400.327 362.083 400.156 361.998 400.263 362.158Z" fill="#263238"/>
<path d="M392.732 407.762C389.009 404.97 385.661 400.948 380.644 400.745C376.504 400.584 373.605 403.697 371.947 407.163C371.117 409.013 370.441 410.927 369.925 412.887C369.176 415.497 368.463 418.125 367.785 420.771C366.494 425.97 365.389 431.212 364.469 436.496C363.966 439.438 363.495 442.391 363.121 445.354C362.651 448.358 362.361 451.387 362.254 454.426C362.253 454.542 362.294 454.656 362.371 454.743C362.448 454.831 362.555 454.887 362.671 454.901C362.787 454.914 362.904 454.884 362.999 454.816C363.094 454.748 363.16 454.647 363.185 454.533C363.688 452.051 363.902 449.494 364.255 446.991C364.608 444.487 365.004 441.952 365.421 439.449C366.277 434.457 367.268 429.464 368.395 424.472C369.465 419.776 370.534 415.015 372.021 410.448C373.091 407.174 374.846 403.355 378.386 402.178C383.735 400.392 388.646 404.938 392.582 407.901C392.7 407.955 392.818 407.827 392.732 407.762Z" fill="#263238"/>
<path d="M388.881 405.088C388.881 405.088 385.436 395.278 390.411 393.321C397.899 390.443 417.347 412.395 413.528 446.028C413.528 446.028 398.477 437.737 387.351 428.398C376.225 419.059 373.444 406.875 378.29 403.729C383.136 400.584 388.881 405.088 388.881 405.088Z" fill="#F25E3D"/>
<path d="M411.282 438.85C410.764 437.676 410.16 436.542 409.474 435.459C408.832 434.303 408.19 433.159 407.527 432.025C406.232 429.81 404.949 427.596 403.622 425.392L402.97 424.322C402.97 424.194 403.023 424.055 403.044 423.926L403.269 422.953C403.44 422.226 403.569 421.487 403.697 420.749C403.975 419.316 404.221 417.861 404.606 416.47C404.606 416.374 404.467 416.342 404.446 416.47C404.136 417.904 403.676 419.327 403.258 420.749C403.044 421.445 402.82 422.129 402.638 422.835L402.445 423.552C400.851 420.931 399.236 418.321 397.46 415.796C397.575 415.451 397.636 415.09 397.642 414.727C397.696 414.234 397.749 413.742 397.813 413.25C397.942 412.18 398.07 411.036 398.231 409.934C398.551 407.794 398.872 405.655 399.407 403.515C399.407 403.408 399.268 403.376 399.247 403.515C398.701 405.655 398.124 407.794 397.717 409.934C397.524 411.004 397.332 412.073 397.193 413.143C397.129 413.678 397.064 414.213 397.011 414.748C397.011 414.898 397.011 415.069 396.947 415.229C396.412 414.47 395.877 413.7 395.31 412.961C393.588 410.693 391.801 408.49 389.961 406.286C389.897 406.2 389.747 406.286 389.822 406.382C392.903 410.323 395.733 414.453 398.295 418.749L399.76 421.134L399.268 421.07C398.637 420.985 398.006 420.953 397.375 420.888L393.566 420.557C391.031 420.353 388.485 420.204 385.96 419.936C385.853 419.936 385.821 420.086 385.96 420.097C388.528 420.396 391.074 420.803 393.631 421.166C394.893 421.348 396.144 421.52 397.407 421.68C398.362 421.87 399.332 421.967 400.306 421.969C401.301 423.595 402.306 425.178 403.301 426.826C403.077 426.826 402.841 426.826 402.627 426.826H399.001C397.364 426.826 395.727 426.826 394.101 426.826C393.984 426.826 394.005 426.986 394.101 426.986C395.759 426.986 397.407 427.093 399.065 427.179L401.418 427.318L402.595 427.403C402.947 427.485 403.313 427.485 403.665 427.403L406.211 431.533C406.992 432.806 407.784 434.068 408.586 435.33C409.342 436.668 410.197 437.948 411.143 439.16C411.185 439.01 411.324 438.957 411.282 438.85Z" fill="#263238"/>
<path d="M404.103 411.667C403.953 412.751 403.728 413.823 403.429 414.876C403.151 415.946 402.841 417.016 402.488 418.086C402.482 418.099 402.48 418.114 402.48 418.129C402.48 418.144 402.484 418.158 402.49 418.172C402.496 418.185 402.505 418.197 402.516 418.207C402.528 418.217 402.541 418.224 402.555 418.229C402.569 418.233 402.584 418.235 402.599 418.233C402.613 418.231 402.628 418.227 402.64 418.219C402.653 418.212 402.664 418.202 402.673 418.19C402.682 418.178 402.688 418.164 402.691 418.15C403.023 417.08 403.323 416.01 403.579 414.941C403.836 413.871 404.007 412.801 404.275 411.678C404.276 411.655 404.268 411.633 404.253 411.616C404.238 411.599 404.217 411.588 404.194 411.587C404.172 411.585 404.149 411.593 404.132 411.608C404.115 411.623 404.105 411.644 404.103 411.667Z" fill="#263238"/>
<path d="M393.043 418.235C392.811 418.041 392.521 417.932 392.219 417.925L390.796 417.733C389.919 417.615 389.031 417.519 388.154 417.412C386.314 417.198 384.484 417.016 382.644 416.791C382.537 416.791 382.505 416.941 382.644 416.952C384.377 417.166 386.1 417.433 387.833 417.658L390.368 417.989L391.598 418.118C392.072 418.122 392.542 418.205 392.989 418.364C393.004 418.364 393.019 418.36 393.031 418.351C393.044 418.343 393.053 418.331 393.059 418.318C393.065 418.304 393.066 418.289 393.064 418.274C393.061 418.259 393.053 418.246 393.043 418.235Z" fill="#263238"/>
<path d="M404.082 433.03C403.216 432.955 402.338 432.923 401.472 432.902H400.156H399.525C399.251 432.928 398.975 432.928 398.701 432.902C398.584 432.902 398.573 433.084 398.701 433.062C398.957 433.036 399.215 433.036 399.471 433.062H400.156L401.461 433.148C402.328 433.201 403.205 433.255 404.071 433.255C404.178 433.212 404.189 433.03 404.082 433.03Z" fill="#263238"/>
<path d="M409.388 429.265L409.677 427.788C409.848 426.815 410.03 425.841 410.212 424.879C410.212 424.856 410.203 424.834 410.187 424.818C410.171 424.802 410.149 424.793 410.126 424.793C410.104 424.793 410.082 424.802 410.066 424.818C410.05 424.834 410.041 424.856 410.041 424.879L409.399 427.713C409.292 428.184 409.185 428.655 409.089 429.126C409.089 429.35 409.003 429.564 408.95 429.789C408.882 430.014 408.857 430.25 408.875 430.484C408.877 430.506 408.885 430.526 408.899 430.543C408.913 430.559 408.932 430.571 408.953 430.577C408.974 430.583 408.996 430.582 409.016 430.575C409.037 430.568 409.055 430.555 409.067 430.538C409.254 430.137 409.363 429.705 409.388 429.265Z" fill="#263238"/>
<path d="M358.403 450.66L359.452 462.588L363.014 502.843H394.54L398.99 462.588L400.306 450.66H358.403Z" fill="#37474F"/>
<path d="M358.403 450.66L359.452 462.588H398.99L400.306 450.66H358.403Z" fill="#263238"/>
<path d="M355.28 457.089H403.43V447.419H355.28V457.089Z" fill="#37474F"/>
<path d="M187.883 411.111C187.883 393.994 190.678 378.615 196.27 364.972C201.861 351.329 213.393 339.444 230.866 329.316C236.115 326.171 242.583 322.605 250.271 318.619C258.183 314.464 265.723 309.64 272.811 304.198C280.057 298.719 286.347 292.079 291.425 284.547C296.545 276.869 299.199 267.811 299.031 258.584C299.184 251.863 297.755 245.201 294.859 239.135C292.188 233.72 288.443 228.905 283.851 224.982C279.136 221.053 273.679 218.11 267.805 216.328C261.783 214.427 255.506 213.457 249.191 213.45C242.034 213.352 234.929 214.676 228.288 217.344C222.178 219.862 216.447 223.214 211.257 227.304C206.199 231.308 201.622 235.885 197.618 240.943C193.931 245.541 190.52 250.353 187.401 255.353H179.506L141.776 223.902C146.14 213.326 152.256 203.561 159.866 195.018C167.307 186.689 175.962 179.53 185.54 173.783C195.283 167.991 205.796 163.604 216.766 160.754C228.059 157.771 239.693 156.271 251.373 156.293C264.691 156.3 277.938 158.243 290.698 162.059C303.422 165.804 315.274 172.044 325.561 180.416C336.189 189.213 344.778 200.214 350.733 212.659C357.194 225.767 360.425 241.41 360.425 259.589C360.587 269.603 359.264 279.585 356.499 289.211C353.989 297.537 350.18 305.415 345.213 312.553C340.294 319.571 334.479 325.915 327.915 331.424C320.788 337.362 313.252 342.791 305.364 347.674C298.368 351.881 291.379 355.904 284.397 359.741C277.639 363.427 271.233 367.724 265.259 372.578C259.633 377.138 254.84 382.64 251.095 388.838C247.429 394.957 245.597 402.385 245.597 411.121L187.883 411.111ZM188.952 533.267V460.919H247.148V533.267H188.952Z" fill="#F25E3D"/>
<g opacity="0.2">
<path opacity="0.2" d="M187.882 411.111C187.882 393.994 190.678 378.615 196.269 364.972C201.86 351.329 213.393 339.444 230.865 329.316C236.114 326.171 242.583 322.605 250.271 318.619C258.182 314.464 265.723 309.64 272.811 304.198C280.057 298.719 286.346 292.079 291.425 284.547C296.545 276.869 299.198 267.811 299.031 258.584C299.184 251.863 297.755 245.201 294.859 239.135C292.187 233.72 288.442 228.905 283.851 224.982C279.135 221.053 273.679 218.11 267.804 216.328C261.782 214.427 255.505 213.457 249.19 213.45C242.034 213.352 234.929 214.676 228.287 217.344C222.178 219.862 216.446 223.214 211.257 227.304C206.198 231.308 201.621 235.885 197.617 240.943C193.931 245.541 190.519 250.353 187.401 255.353H179.506L141.775 223.902C146.14 213.326 152.255 203.561 159.865 195.018C167.306 186.689 175.962 179.53 185.539 173.783C195.283 167.991 205.795 163.604 216.766 160.754C228.059 157.771 239.692 156.271 251.373 156.293C264.691 156.3 277.937 158.243 290.697 162.059C303.422 165.804 315.273 172.044 325.561 180.416C336.188 189.213 344.777 200.214 350.732 212.659C357.194 225.767 360.425 241.41 360.425 259.589C360.586 269.603 359.263 279.585 356.498 289.211C353.989 297.537 350.18 305.415 345.212 312.553C340.294 319.571 334.478 325.915 327.914 331.424C320.787 337.362 313.252 342.791 305.364 347.674C298.367 351.881 291.378 355.904 284.396 359.741C277.639 363.427 271.233 367.724 265.258 372.578C259.632 377.138 254.84 382.64 251.095 388.838C247.429 394.957 245.596 402.385 245.596 411.121L187.882 411.111ZM188.952 533.267V460.919H247.147V533.267H188.952Z" fill="black"/>
</g>
<path d="M180.031 411.111C180.031 393.995 182.826 378.615 188.417 364.972C194.009 351.329 205.544 339.444 223.024 329.317C228.266 326.171 234.731 322.606 242.419 318.619C250.335 314.467 257.88 309.642 264.97 304.199C272.213 298.717 278.502 292.077 283.584 284.547C288.695 276.866 291.345 267.809 291.179 258.584C291.317 251.88 289.881 245.237 286.986 239.189C284.314 233.773 280.569 228.958 275.978 225.036C271.262 221.106 265.805 218.163 259.931 216.382C253.909 214.481 247.632 213.51 241.317 213.504C234.16 213.385 227.051 214.691 220.403 217.344C214.291 219.862 208.556 223.214 203.362 227.304C198.307 231.308 193.734 235.885 189.733 240.943C186.044 245.541 182.629 250.353 179.506 255.353L133.892 223.902C138.253 213.325 144.369 203.559 151.981 195.018C159.419 186.686 168.075 179.526 177.656 173.784C187.396 167.993 197.905 163.606 208.871 160.754C220.175 157.767 231.819 156.268 243.51 156.293C256.829 156.3 270.075 158.242 282.835 162.059C295.56 165.801 307.412 172.042 317.698 180.416C328.328 189.211 336.918 200.213 342.87 212.659C349.331 225.767 352.566 241.41 352.573 259.589C352.731 269.604 351.405 279.586 348.636 289.211C346.12 297.541 342.3 305.419 337.318 312.553C332.399 319.571 326.584 325.915 320.02 331.424C312.896 337.367 305.361 342.797 297.469 347.674C290.487 351.881 283.498 355.904 276.502 359.741C269.744 363.427 263.338 367.724 257.364 372.578C251.741 377.138 246.952 382.64 243.211 388.838C239.545 394.957 237.709 402.385 237.702 411.121L180.031 411.111ZM181.1 533.267V460.919H239.231V533.267H181.1Z" fill="#F25E3D"/>
<path d="M156.047 539.055C153.768 539.782 88.8012 538.948 86.3514 537.343C85.41 536.744 84.9821 527.276 84.7896 515.809V515.456C84.7896 513.091 84.7147 510.652 84.704 508.192C84.704 507.849 84.704 507.507 84.704 507.176C84.6184 490.637 84.8751 473.467 84.8751 473.467L128.34 473.906L127.024 507.25L126.97 508.577L126.703 515.488V516.194C126.703 516.194 151.404 527.683 153.918 529.715C156.432 531.748 158.325 538.327 156.047 539.055Z" fill="#AD6359"/>
<path d="M156.047 539.055C153.768 539.782 88.8013 538.948 86.3515 537.343C85.4101 536.744 84.9822 527.276 84.7897 515.809V515.456C84.7897 513.091 84.7148 510.652 84.7041 508.192C84.7041 507.85 84.7041 507.507 84.7041 507.176L127.035 507.293L126.981 508.62L126.714 515.53V516.236C126.714 516.236 151.404 527.683 153.918 529.715C156.432 531.748 158.325 538.327 156.047 539.055Z" fill="#EBEBEB"/>
<path d="M156.047 539.055C154.645 539.504 129.474 539.354 109.769 538.798C97.4663 538.466 87.3035 537.953 86.3514 537.343C85.3994 536.733 84.9929 527.544 84.8003 516.29C84.8003 516.129 84.8003 515.969 84.8003 515.809C84.8003 515.648 84.8003 515.562 84.8003 515.445L126.724 515.53V516.236C126.724 516.236 151.457 527.683 153.961 529.726C156.464 531.769 158.325 538.327 156.047 539.055Z" fill="#F25E3D"/>
<path d="M155.351 536.519C144.397 536.113 100.205 535.449 89.3469 535.909C89.2613 535.909 89.2613 535.974 89.3469 535.984C100.194 536.626 144.386 536.894 155.341 536.701C155.576 536.701 155.576 536.53 155.351 536.519Z" fill="#263238"/>
<path d="M131.367 515.702C127.088 514.846 121.793 515.434 118.455 518.462C118.327 518.579 118.455 518.761 118.637 518.718C122.774 517.447 127.034 516.619 131.346 516.247C131.41 516.237 131.468 516.206 131.511 516.157C131.554 516.109 131.579 516.048 131.581 515.983C131.584 515.919 131.564 515.855 131.525 515.804C131.486 515.753 131.43 515.716 131.367 515.702Z" fill="#263238"/>
<path d="M134.459 517.616C130.18 516.761 124.885 517.349 121.547 520.376C121.419 520.494 121.547 520.676 121.729 520.633C125.852 519.364 130.097 518.535 134.395 518.162C134.461 518.159 134.524 518.133 134.573 518.088C134.621 518.043 134.652 517.982 134.66 517.917C134.667 517.851 134.652 517.785 134.615 517.729C134.578 517.674 134.523 517.634 134.459 517.616Z" fill="#263238"/>
<path d="M137.54 519.531C133.261 518.676 127.965 519.264 124.628 522.291C124.499 522.409 124.628 522.591 124.809 522.548C128.947 521.28 133.207 520.456 137.518 520.088C137.592 520.09 137.664 520.064 137.718 520.014C137.772 519.964 137.804 519.894 137.807 519.82C137.81 519.746 137.783 519.675 137.733 519.62C137.683 519.566 137.613 519.534 137.54 519.531Z" fill="#263238"/>
<path d="M137.101 506.373C135.432 504.02 132.266 505.036 130.447 506.523C127.372 509.135 125.04 512.511 123.686 516.311C123.679 516.328 123.676 516.345 123.678 516.363C123.679 516.38 123.685 516.397 123.694 516.412C123.704 516.427 123.717 516.439 123.732 516.448C123.748 516.456 123.765 516.461 123.782 516.461C123.782 516.793 124.082 517.146 124.456 517.007C128.029 515.734 132.009 514.867 135.09 512.492C136.887 511.134 138.674 508.609 137.101 506.373ZM129.474 513.969C127.73 514.643 125.965 515.22 124.253 515.948C125.58 514.043 126.81 512.096 128.329 510.321C129.049 509.462 129.821 508.647 130.64 507.882C131.945 506.737 137.058 504.319 136.224 509.037C135.775 511.637 131.56 513.177 129.474 513.969Z" fill="#263238"/>
<path d="M112.742 515.038C116.273 516.6 120.359 516.579 124.135 516.996C124.521 516.996 124.724 516.622 124.66 516.301C124.676 516.295 124.691 516.286 124.704 516.274C124.717 516.262 124.726 516.247 124.733 516.23C124.739 516.214 124.741 516.196 124.74 516.179C124.738 516.162 124.733 516.145 124.724 516.13C122.524 512.748 119.478 510 115.888 508.16C113.748 507.09 110.453 506.876 109.383 509.55C108.314 512.225 110.678 514.129 112.742 515.038ZM110.838 511.936C108.956 507.539 114.486 508.727 116.005 509.54C116.987 510.084 117.927 510.699 118.819 511.38C120.651 512.799 122.408 514.313 124.082 515.916C122.242 515.595 120.391 515.445 118.541 515.188C116.337 514.899 111.929 514.364 110.86 511.936H110.838Z" fill="#263238"/>
<path d="M109.79 538.798C97.4878 538.466 87.325 537.953 86.3729 537.343C85.4208 536.733 85.0143 527.544 84.8218 516.29C89.8497 520.794 102.387 531.973 109.79 538.798Z" fill="#263238"/>
<path d="M71.5352 286.323C71.5352 286.323 81.2914 396.102 82.8747 404.478C83.2491 406.393 83.4737 416.77 83.6235 430.099C83.9551 459.207 83.7626 511.69 83.7626 511.69H129.559C129.559 511.69 128.201 420.76 126.168 404.018C124.135 387.276 111.191 286.344 111.191 286.344L71.5352 286.323Z" fill="#37474F"/>
<path d="M127.484 503.709C120.338 503.56 122.392 503.506 115.246 503.431C111.748 503.431 88.7693 503.207 85.4958 503.742C85.4759 503.742 85.4569 503.749 85.4428 503.764C85.4288 503.778 85.4209 503.797 85.4209 503.816C85.4209 503.836 85.4288 503.855 85.4428 503.869C85.4569 503.883 85.4759 503.891 85.4958 503.891C88.7693 504.426 111.748 504.234 115.246 504.191C122.392 504.127 120.338 504.073 127.484 503.923C127.512 503.923 127.54 503.912 127.56 503.892C127.58 503.872 127.591 503.845 127.591 503.816C127.591 503.788 127.58 503.761 127.56 503.741C127.54 503.721 127.512 503.709 127.484 503.709Z" fill="#263238"/>
<path d="M92.4599 451.73C92.4029 445.083 92.3529 438.44 92.3101 431.8C92.3101 425.381 92.3101 418.963 91.9678 412.544C91.3474 399.525 88.7585 386.731 86.833 373.862C84.9074 360.992 83.3883 348.07 81.9655 335.136C80.3716 320.63 78.9702 306.092 77.4832 291.575C77.4832 291.479 77.312 291.479 77.3227 291.575C79.4623 317.506 81.8906 343.427 85.4743 369.197C86.3729 375.616 87.35 382.013 88.4055 388.389C89.4753 394.808 90.545 401.312 91.0478 407.848C91.5506 414.384 91.6255 420.685 91.6897 427.104C91.7681 433.751 91.8359 440.39 91.8929 447.023C92.032 461.764 92.1711 484.465 92.3208 499.206C92.3319 499.256 92.3597 499.3 92.3996 499.332C92.4394 499.364 92.489 499.382 92.5401 499.382C92.5913 499.382 92.6408 499.364 92.6807 499.332C92.7206 499.3 92.7484 499.256 92.7594 499.206C92.6739 485.984 92.5562 464.877 92.4599 451.73Z" fill="#263238"/>
<path d="M61.8755 286.323C61.8755 286.323 81.2917 396.102 82.875 404.478C83.2494 406.393 83.474 416.77 83.6238 430.099L105.511 286.323H61.8755Z" fill="#263238"/>
<path d="M102.869 542.927C100.547 543.494 35.7943 538.049 33.4623 536.284C32.5636 535.621 32.8097 526.142 33.4623 514.696C33.4623 514.578 33.4623 514.45 33.4623 514.332C33.5906 511.979 33.7297 509.55 33.9009 507.09L33.965 506.02C35.0348 489.514 36.5218 472.408 36.5218 472.408L79.8365 475.981L76.1672 509.144L76.0282 510.46L75.2793 517.338L75.2044 518.044C75.2044 518.044 99.0495 531.213 101.414 533.428C103.778 535.642 105.19 542.36 102.869 542.927Z" fill="#AD6359"/>
<path d="M102.869 542.927C100.547 543.494 35.7943 538.049 33.4623 536.284C32.5636 535.621 32.8097 526.142 33.4623 514.696C33.4623 514.578 33.4623 514.45 33.4623 514.332C33.5906 511.979 33.7297 509.55 33.9009 507.09L33.965 506.02L76.1672 509.133L76.0282 510.449L75.2793 517.328L75.2044 518.034C75.2044 518.034 99.0495 531.202 101.414 533.417C103.778 535.631 105.19 542.36 102.869 542.927Z" fill="#EBEBEB"/>
<path d="M102.869 542.927C100.547 543.494 35.7943 538.049 33.4623 536.284C32.5636 535.621 32.8097 526.142 33.4623 514.696C33.4623 514.578 33.4623 514.45 33.4623 514.332L75.2793 517.381L75.2044 518.087C75.2044 518.087 99.0495 531.256 101.414 533.47C103.778 535.685 105.19 542.36 102.869 542.927Z" fill="#F25E3D"/>
<path d="M102.302 540.349C91.4114 539.161 47.3692 535.417 36.5111 535.064C36.4255 535.064 36.4148 535.128 36.5111 535.139C47.273 536.551 91.3472 539.942 102.291 540.488C102.558 540.541 102.58 540.413 102.302 540.349Z" fill="#263238"/>
<path d="M79.9011 517.884C75.622 516.729 70.3695 516.943 66.8286 519.724C66.6895 519.831 66.8286 520.034 66.989 520.002C71.1995 519.02 75.5032 518.493 79.8262 518.43C79.8932 518.429 79.9577 518.405 80.0081 518.361C80.0584 518.316 80.0912 518.256 80.1003 518.189C80.1094 518.123 80.0942 518.055 80.0576 517.999C80.0211 517.943 79.9655 517.902 79.9011 517.884Z" fill="#263238"/>
<path d="M82.8534 520.013C78.5743 518.857 73.3111 519.071 69.7702 521.853C69.6418 521.96 69.7702 522.163 69.9306 522.131C74.1412 521.149 78.4448 520.622 82.7678 520.558C82.8357 520.561 82.9022 520.538 82.9546 520.495C83.0071 520.452 83.0418 520.391 83.0524 520.323C83.0629 520.256 83.0485 520.188 83.0118 520.13C82.9752 520.073 82.9188 520.031 82.8534 520.013Z" fill="#263238"/>
<path d="M85.7955 522.142C81.5165 520.986 76.2532 521.2 72.7123 523.982C72.5839 524.089 72.7123 524.292 72.8835 524.26C77.0938 523.277 81.3976 522.75 85.7206 522.687C85.7876 522.687 85.8522 522.662 85.9025 522.618C85.9529 522.574 85.9856 522.513 85.9947 522.447C86.0038 522.38 85.9887 522.313 85.9521 522.257C85.9155 522.201 85.8599 522.16 85.7955 522.142Z" fill="#263238"/>
<path d="M86.2551 508.994C84.7681 506.523 81.5375 507.304 79.6119 508.663C76.3401 511.043 73.7565 514.246 72.1235 517.948C72.1235 518.034 72.1235 518.087 72.2091 518.109C72.1992 518.192 72.2091 518.277 72.2381 518.356C72.267 518.434 72.3141 518.505 72.3756 518.563C72.437 518.62 72.5111 518.662 72.5919 518.685C72.6726 518.709 72.7577 518.713 72.8403 518.697C76.4882 517.681 80.5319 517.05 83.7626 514.942C85.7309 513.669 87.6886 511.326 86.2551 508.994ZM78.1142 516.023C76.3277 516.568 74.5305 517.017 72.7654 517.627C74.1603 515.769 75.6492 513.984 77.2263 512.278C78.0014 511.467 78.8306 510.71 79.7082 510.01C81.0882 508.941 86.3514 506.897 85.1961 511.551C84.5863 514.14 80.2644 515.381 78.1356 516.023H78.1142Z" fill="#263238"/>
<path d="M61.3727 515.905C64.7852 517.713 68.861 517.98 72.5945 518.654C72.9796 518.729 73.215 518.333 73.1722 518.012C73.1888 518.007 73.204 517.997 73.2166 517.985C73.2292 517.973 73.2389 517.958 73.2451 517.942C73.2512 517.926 73.2536 517.908 73.2521 517.891C73.2506 517.873 73.2452 517.856 73.2364 517.841C71.2885 514.312 68.4433 511.36 64.9885 509.283C62.9559 508.096 59.6397 507.614 58.4094 510.203C57.1792 512.792 59.3829 514.846 61.3727 515.905ZM59.6932 512.696C58.1206 508.17 63.555 509.743 65.042 510.663C65.9786 511.283 66.8721 511.966 67.7164 512.706C69.4444 514.252 71.0906 515.888 72.648 517.606C70.8294 517.156 69.0001 516.868 67.1708 516.536C64.9671 516.012 60.5811 515.177 59.6932 512.674V512.696Z" fill="#263238"/>
<path d="M77.1303 514.161L31.3765 512.225C31.3765 512.225 43.8713 411.817 44.096 405.623C44.695 389.576 55.3392 286.248 55.3392 286.248H111.224C111.224 286.248 107.693 310.114 101.671 325.241C97.6167 326.66 93.7025 328.45 89.9782 330.59C89.9782 330.59 84.7363 398.937 84.5438 407.463C84.1158 424.344 77.1303 514.161 77.1303 514.161Z" fill="#37474F"/>
<path d="M75.9108 505.774C68.7862 505.325 70.8401 505.357 63.6941 504.983C60.2067 504.801 37.2495 503.635 33.9653 504.031C33.8905 504.031 33.8905 504.159 33.9653 504.18C37.1746 504.854 60.1853 505.635 63.6727 505.742C70.8187 505.978 68.7755 505.838 75.9215 505.988C75.9499 505.987 75.9765 505.974 75.9956 505.953C76.0146 505.932 76.0245 505.904 76.0231 505.876C76.0217 505.848 76.0091 505.821 75.988 505.802C75.9669 505.783 75.9392 505.773 75.9108 505.774Z" fill="#263238"/>
<path d="M59.4361 292.41C57.3608 318.437 55.2319 344.475 52.8464 370.503C50.4608 396.53 47.6687 422.664 44.2883 448.649C42.3948 463.144 40.2552 483.587 37.998 498.05C37.998 498.147 38.1264 498.19 38.1478 498.05C42.7585 472.376 46.1496 440.454 49.0273 414.513C51.905 388.571 54.2692 362.554 56.3766 336.538C57.564 321.818 58.6338 307.087 59.7677 292.367C59.7784 292.228 59.511 292.228 59.4361 292.41Z" fill="#263238"/>
<path d="M103.66 324.235C98.9209 325.971 94.3427 328.119 89.9781 330.654C89.9413 330.671 89.9126 330.702 89.8986 330.74C89.8846 330.778 89.8862 330.82 89.9033 330.857C89.9203 330.894 89.9513 330.923 89.9894 330.937C90.0275 330.951 90.0696 330.949 90.1065 330.932C94.7172 328.953 99.4135 327.059 103.906 324.824C103.984 324.791 104.046 324.729 104.078 324.65C104.111 324.572 104.11 324.484 104.078 324.406C104.045 324.328 103.983 324.267 103.904 324.234C103.826 324.202 103.738 324.203 103.66 324.235Z" fill="#263238"/>
<path d="M105.126 292.602C105.126 292.442 104.837 292.41 104.837 292.602C104.837 298.069 104.527 302.883 104.067 308.007C103.853 310.382 101.927 323.497 97.8196 322.545C97.1349 322.384 96.7498 321.7 96.675 320.662C96.6828 319.303 96.8661 317.952 97.2205 316.64C97.6698 313.891 98.0443 311.141 98.2903 308.36C98.7683 303.194 98.7109 297.992 98.1191 292.838C98.1108 292.809 98.0933 292.783 98.0692 292.765C98.045 292.747 98.0156 292.737 97.9854 292.737C97.9552 292.737 97.9258 292.747 97.9017 292.765C97.8775 292.783 97.86 292.809 97.8517 292.838C97.9735 299.991 97.5551 307.143 96.6001 314.233C96.0866 317.645 94.3643 322.791 97.9373 323.304C101.51 323.818 103.928 315.238 104.356 312.885C105.491 306.186 105.75 299.368 105.126 292.602Z" fill="#263238"/>
<path d="M97.9265 322.877C97.5562 323.76 97.2488 324.668 97.0065 325.594C96.7364 326.308 96.6056 327.067 96.6214 327.83C96.6214 327.979 96.8246 327.99 96.8995 327.894C97.3249 327.232 97.6494 326.511 97.8623 325.754C98.1725 324.909 98.5042 324.075 98.793 323.219C98.8384 323.104 98.8363 322.976 98.7871 322.862C98.738 322.749 98.6458 322.66 98.5309 322.614C98.416 322.569 98.2878 322.571 98.1744 322.62C98.0611 322.67 97.9719 322.762 97.9265 322.877Z" fill="#263238"/>
<path d="M79.291 296.892C79.304 296.32 79.2465 295.749 79.1198 295.191C79.1117 295.175 79.0995 295.162 79.0844 295.153C79.0693 295.144 79.0519 295.139 79.0343 295.139C79.0166 295.139 78.9992 295.144 78.9841 295.153C78.969 295.162 78.9568 295.175 78.9487 295.191C78.8356 295.676 78.7711 296.17 78.7561 296.667C78.7561 297.234 78.6277 297.737 78.5636 298.358C78.4447 299.515 78.2445 300.662 77.9645 301.792C77.4438 303.923 76.3572 305.875 74.8194 307.44C73.2858 308.949 71.4676 310.138 69.4706 310.938C67.2603 311.721 65.0064 312.374 62.7203 312.896C62.6977 312.896 62.6759 312.905 62.6598 312.921C62.6438 312.937 62.6348 312.959 62.6348 312.981C62.6348 313.004 62.6438 313.026 62.6598 313.042C62.6759 313.058 62.6977 313.067 62.7203 313.067C65.2515 313.062 67.7579 312.568 70.1017 311.612C72.1794 310.832 74.0707 309.626 75.6538 308.071C77.2341 306.464 78.3441 304.455 78.8631 302.262C79.125 301.131 79.2755 299.978 79.3124 298.818C79.3427 298.176 79.3355 297.533 79.291 296.892Z" fill="#263238"/>
<path d="M133.988 192.29C137.433 196.452 141.177 207.695 141.038 210.765C140.899 213.836 121.975 220.81 119.3 219.142C116.626 217.473 106.099 202.603 106.003 197.094C105.907 191.584 130.415 187.99 133.988 192.29Z" fill="#AD6359"/>
<path d="M105.511 184.652C103.778 182.844 98.1724 177.442 95.6799 179.881C94.118 181.4 97.8836 185.562 99.4668 187.209C102.73 190.59 105.254 196.57 106.431 199.49C107.608 202.41 113.117 196.644 113.117 196.644C113.117 196.644 110.036 189.349 105.511 184.652Z" fill="#AD6359"/>
<path d="M110.111 202.753C110.111 202.753 112.048 207.952 115.203 207.834C118.359 207.716 117.557 203.245 117.514 202.924C117.61 203.202 119.514 207.93 122.681 207.492C125.847 207.053 124.5 202.656 124.403 202.378C124.574 202.603 127.014 205.588 129.335 204.7C133.336 203.181 127.334 195.404 127.912 191.991C127.912 191.991 133.817 192.323 133.988 192.29C133.988 192.29 128.426 184.802 123.772 184.246C123.095 184.152 122.406 184.294 121.822 184.649C121.237 185.004 120.792 185.549 120.563 186.193C120.563 186.193 119.033 183.572 116.53 183.839C115.246 183.978 114.326 186.161 114.326 186.161C113.951 185.585 113.423 185.124 112.802 184.829C112.181 184.535 111.49 184.418 110.807 184.492C109.041 184.781 108.164 186.984 108.068 187.84C107.319 194.387 110.111 202.753 110.111 202.753Z" fill="#AD6359"/>
<path d="M108.271 187.241C108.271 187.241 108.196 187.241 108.186 187.241C107.221 192.558 107.896 198.043 110.122 202.967C110.197 203.117 110.475 203.063 110.421 202.881C108.953 197.799 108.229 192.531 108.271 187.241Z" fill="#263238"/>
<path d="M114.315 186.086C114.315 186.022 114.219 186.022 114.208 186.086C113.211 191.957 114.35 197.991 117.418 203.095C117.535 203.277 117.814 203.32 117.696 203.095C115.738 199.543 114.208 191.039 114.315 186.086Z" fill="#263238"/>
<path d="M124.767 202.656C121.836 197.629 120.798 192.173 120.552 186.407C120.552 186.332 120.445 186.343 120.424 186.407C119.782 189.263 120.327 192.911 120.991 195.724C121.559 198.342 122.802 200.765 124.596 202.753C124.649 202.838 124.767 202.763 124.767 202.656Z" fill="#263238"/>
<path d="M110.111 202.753C110.577 203.713 111.128 204.63 111.759 205.491C112.338 206.354 113.135 207.048 114.069 207.503C114.514 207.673 115.005 207.673 115.449 207.503C115.904 207.34 116.309 207.064 116.626 206.7C116.907 206.311 117.103 205.867 117.202 205.397C117.302 204.927 117.302 204.442 117.204 203.972L116.808 201.662L117.985 203.694C118.499 204.603 119.157 205.423 119.932 206.122C120.27 206.466 120.678 206.734 121.128 206.907C121.578 207.08 122.06 207.156 122.542 207.128C122.991 207.101 123.416 206.92 123.747 206.616C124.079 206.312 124.295 205.904 124.361 205.459C124.485 204.459 124.356 203.444 123.986 202.507L123.034 199.896L124.778 202.036C125.263 202.633 125.82 203.169 126.436 203.63C127.008 204.082 127.699 204.358 128.426 204.422C128.753 204.437 129.079 204.36 129.366 204.202C129.653 204.043 129.89 203.808 130.052 203.523C130.304 202.839 130.36 202.098 130.212 201.383C129.906 199.805 129.476 198.253 128.928 196.741C128.672 195.97 128.415 195.19 128.201 194.398C127.939 193.621 127.844 192.797 127.923 191.98C127.937 192.789 128.104 193.587 128.415 194.334C128.693 195.093 129.003 195.842 129.314 196.602C129.977 198.115 130.497 199.687 130.865 201.298C131.085 202.163 131.048 203.074 130.758 203.919C130.549 204.362 130.214 204.734 129.796 204.989C129.378 205.243 128.894 205.37 128.404 205.352C127.5 205.301 126.632 204.981 125.912 204.432C125.216 203.934 124.586 203.348 124.04 202.689L124.831 202.218C125.293 203.315 125.459 204.514 125.313 205.695C125.215 206.352 124.889 206.954 124.393 207.396C123.898 207.807 123.29 208.061 122.649 208.123C122.037 208.161 121.425 208.066 120.852 207.847C120.28 207.627 119.762 207.287 119.333 206.85C118.472 206.079 117.749 205.167 117.193 204.154L117.974 203.876C118.074 204.463 118.046 205.064 117.891 205.638C117.735 206.213 117.457 206.747 117.075 207.203C116.663 207.633 116.148 207.95 115.578 208.123C114.998 208.302 114.371 208.256 113.823 207.995C112.84 207.457 112.028 206.652 111.481 205.673C110.915 204.755 110.456 203.775 110.111 202.753Z" fill="#263238"/>
<path d="M117.065 216.927C117.065 216.927 96.6642 206.497 104.655 200.528C107.019 198.752 118.883 194.291 119.825 196.655C121.044 199.704 116.433 202.496 113.267 203.78C113.267 203.78 120.702 206.358 120.456 212.06C120.394 213.105 120.044 214.112 119.446 214.971C118.848 215.83 118.023 216.507 117.065 216.927Z" fill="#AD6359"/>
<path d="M104.024 201.063C104.866 200.253 105.825 199.575 106.87 199.051C107.907 198.498 108.979 198.013 110.079 197.597C112.263 196.739 114.518 196.073 116.818 195.607C117.43 195.479 118.057 195.442 118.68 195.5C119.056 195.523 119.422 195.633 119.749 195.821C119.919 195.919 120.071 196.046 120.199 196.195C120.325 196.344 120.423 196.514 120.488 196.698C120.734 197.357 120.734 198.082 120.488 198.741C120.262 199.342 119.929 199.897 119.503 200.378C118.697 201.29 117.738 202.054 116.669 202.635C115.64 203.224 114.567 203.732 113.459 204.154V203.395C114.297 203.722 115.103 204.127 115.866 204.604C116.634 205.066 117.351 205.608 118.006 206.219C118.651 206.847 119.199 207.568 119.632 208.358C120.07 209.128 120.356 209.974 120.477 210.851C120.25 210.017 119.889 209.226 119.407 208.508C118.915 207.813 118.332 207.187 117.674 206.647C117.014 206.095 116.296 205.614 115.535 205.213C114.794 204.805 114.017 204.469 113.213 204.208L112.218 203.897L113.181 203.448C114.224 202.996 115.236 202.474 116.209 201.886C117.17 201.332 118.036 200.627 118.776 199.8C119.13 199.458 119.391 199.03 119.533 198.558C119.676 198.086 119.695 197.586 119.589 197.104C119.354 196.356 118.081 196.388 117 196.548C115.92 196.709 114.775 196.997 113.652 197.276C112.529 197.554 111.427 197.864 110.325 198.217C108.09 198.833 105.964 199.793 104.024 201.063Z" fill="#263238"/>
<path d="M93.5834 231.69C111.62 253.952 137.84 268.372 144.312 263.676C150.784 258.98 128.971 234.396 128.597 234.033C127.324 232.813 117.675 227.796 100.152 220.415C82.9607 213.172 85.5281 221.752 93.5834 231.69Z" fill="#AD6359"/>
<path d="M120.488 229.112L106.902 246.977C106.902 246.977 95.4983 235.209 89.4648 227.421C83.4313 219.634 84.0304 213.579 97.5308 218.607C105.434 221.532 113.108 225.044 120.488 229.112Z" fill="#F25E3D"/>
<path d="M105.607 242.88C107.265 240.441 108.998 238.044 110.774 235.701C111.662 234.546 112.518 233.369 113.427 232.225C114.337 231.08 115.374 229.935 116.305 228.759C116.369 228.673 116.497 228.759 116.433 228.844C115.577 230.021 114.807 231.251 113.951 232.428C113.096 233.605 112.154 234.824 111.245 236.022C109.455 238.376 107.611 240.687 105.714 242.954C105.661 243.019 105.511 242.954 105.607 242.88Z" fill="#263238"/>
<path d="M113.406 238.397L106.902 246.955C106.902 246.955 95.498 235.188 89.4646 227.4L88.8869 226.641L88.6409 226.288L88.2664 225.742C87.9455 225.271 87.6567 224.811 87.3999 224.362C87.3036 224.202 87.2181 224.041 87.1325 223.881C86.6863 223.069 86.3277 222.212 86.0627 221.324C85.9839 221.05 85.9232 220.771 85.8809 220.489C85.8809 220.35 85.8809 220.222 85.8809 220.094C91.8074 224.202 105.714 233.198 113.406 238.397Z" fill="#263238"/>
<path d="M113.952 297.288C113.952 297.288 52.0444 298.358 51.6806 297.972C50.7179 296.903 63.2234 233.155 76.1569 220.019C80.7247 215.376 90.1494 217.269 91.7219 218.029C95.3484 219.783 98.761 223.57 101.617 230.588C107.33 244.623 114.733 296.282 113.952 297.288Z" fill="#F25E3D"/>
<path opacity="0.1" d="M94.8133 220.126H76.0603L76.1566 220.019C76.593 219.577 77.0774 219.186 77.6008 218.853H93.1659C93.7486 219.232 94.2995 219.657 94.8133 220.126ZM96.8779 222.265H74.2952C73.9957 222.661 73.7069 223.089 73.418 223.538H97.8621C97.5519 223.089 97.231 222.693 96.9528 222.265H96.8779ZM99.21 225.678H72.1236C71.8883 226.095 71.6529 226.523 71.4283 226.962H99.9375C99.7128 226.523 99.4775 226.084 99.2314 225.678H99.21ZM100.954 229.101H70.3478L69.738 230.374H101.521C101.35 229.935 101.168 229.508 100.975 229.112L100.954 229.101ZM102.312 232.514H68.7966L68.2511 233.787H102.751C102.612 233.391 102.473 232.92 102.302 232.514H102.312ZM103.382 235.926H67.3845C67.2241 236.354 67.0529 236.771 66.8818 237.21H103.757L103.382 235.926ZM104.302 239.339H66.0901C65.9404 239.767 65.7799 240.184 65.6301 240.622H104.644C104.509 240.187 104.402 239.759 104.324 239.339H104.302ZM105.137 242.762H64.8599C64.7101 243.179 64.5711 243.607 64.432 244.035H105.425L105.137 242.762ZM105.907 246.174H63.7901C63.6511 246.592 63.5227 247.02 63.3836 247.448H106.26C106.11 247.02 106.024 246.592 105.928 246.228L105.907 246.174ZM106.634 249.587H62.7204C62.5813 250.004 62.4529 250.432 62.3246 250.871H106.977C106.837 250.443 106.752 250.015 106.656 249.587H106.634ZM107.33 253H61.6506C61.5222 253.427 61.3939 253.855 61.2762 254.283H107.65L107.33 253ZM107.993 256.423H60.645C60.5167 256.851 60.399 257.268 60.2813 257.696H108.25C108.175 257.268 108.1 256.84 108.014 256.423H107.993ZM108.624 259.835H59.6929C59.5753 260.263 59.4576 260.691 59.3506 261.108H108.881C108.806 260.681 108.72 260.263 108.645 259.835H108.624ZM109.234 263.248H58.7836C58.666 263.676 58.559 264.104 58.452 264.532H109.48C109.416 264.104 109.341 263.676 109.255 263.248H109.234ZM109.843 266.671H57.8957C57.7995 267.099 57.6925 267.516 57.5855 267.944H110.068C110.004 267.527 109.929 267.099 109.865 266.671H109.843ZM110.4 270.084H57.0506C56.9543 270.512 56.8474 270.94 56.7511 271.357H110.635C110.571 270.94 110.496 270.512 110.421 270.084H110.4ZM110.956 273.496H56.2376C56.1413 273.935 56.0451 274.363 55.9381 274.78H111.181C111.117 274.352 111.052 273.935 110.977 273.496H110.956ZM111.502 276.909H55.4567C55.3604 277.337 55.2641 277.775 55.1678 278.193H111.705C111.641 277.775 111.577 277.347 111.523 276.909H111.502ZM112.004 280.332H54.6971C54.6116 280.76 54.5153 281.188 54.4297 281.605H112.197L112.004 280.332ZM112.497 283.745H53.9697C53.8841 284.183 53.7985 284.6 53.713 285.018H112.7C112.636 284.6 112.582 284.173 112.518 283.745H112.497ZM112.967 287.157H53.2958C53.1959 287.599 53.1103 288.027 53.039 288.441H113.16C113.106 288.024 112.999 287.596 112.999 287.157H112.967ZM113.395 290.57H52.6432C52.5576 291.019 52.4827 291.447 52.4078 291.853H113.577C113.534 291.447 113.481 291.019 113.417 290.57H113.395ZM113.791 293.993H52.0227C51.9479 294.453 51.8944 294.881 51.8302 295.266H113.877C113.898 294.892 113.855 294.464 113.812 293.993H113.791ZM51.6162 297.405C51.5687 297.591 51.5687 297.786 51.6162 297.972C51.9051 298.261 90.2989 297.673 106.656 297.405H51.6162Z" fill="#030402"/>
<path d="M79.687 227.742C75.5149 233.466 54.1196 257.118 53.328 259.311C52.5363 261.504 57.4893 266.35 57.4038 267.26C57.0828 270.961 49.0917 295.587 45.8931 293.084C41.6782 289.789 23.8346 266.19 26.3592 255.974C28.8839 245.757 70.5512 221.228 77.1623 219.099C83.7735 216.97 83.8055 222.094 79.687 227.742Z" fill="#AD6359"/>
<path d="M62.881 249.277L50.7285 232.214C50.7285 232.214 64.3252 223.292 73.4182 219.484C82.5112 215.676 86.9935 217.794 78.6815 229.55C73.8226 236.442 68.5459 243.03 62.881 249.277Z" fill="#F25E3D"/>
<path d="M54.3227 231.102C56.2483 233.334 58.1204 235.616 59.939 237.948C60.8376 239.093 61.7469 240.227 62.6134 241.393C63.4799 242.559 64.3357 243.864 65.245 245.062C65.3092 245.148 65.1808 245.255 65.1166 245.169C64.1966 244.099 63.2125 243.029 62.2925 241.853C61.3725 240.676 60.4311 239.499 59.5111 238.322C57.6925 235.99 55.9274 233.605 54.2264 231.187C54.1623 231.123 54.2692 231.037 54.3227 231.102Z" fill="#263238"/>
<path d="M62.8594 249.362C64.7208 246.891 66.9138 244.688 68.925 242.345C70.9361 240.002 72.9366 237.584 74.8515 235.145C74.8515 235.145 74.9905 235.145 74.9477 235.209C74.0598 236.482 73.1933 237.766 72.2626 239.007C71.8026 239.617 71.3212 240.216 70.8291 240.815L71.5459 240.227C72.2792 239.675 73.0397 239.161 73.8245 238.686C73.8245 238.686 73.9101 238.686 73.8245 238.75C73.1437 239.38 72.4295 239.973 71.6849 240.526C71.1501 240.933 70.6152 241.307 70.0482 241.682L69.1924 242.751C67.3252 245.162 65.245 247.399 62.9771 249.437C62.9129 249.534 62.7952 249.437 62.8594 249.362Z" fill="#263238"/>
<path d="M56.3555 302.433C59.2117 300.497 55.2857 298.229 55.2857 298.229C55.2857 298.229 61.7043 300.133 63.8438 296.999C65.9833 293.865 61.1052 291.404 60.7629 291.212C61.1052 291.319 67.0531 292.902 68.9145 289.532C70.7759 286.162 65.5554 284.28 65.2131 284.183C65.5661 284.183 70.1982 283.98 71.0326 281.092C72.4554 276.139 59.1475 275.561 56.2806 272.533C56.2806 272.533 57.5643 265.987 57.6713 265.805C56.8105 267.274 55.4748 268.406 53.8843 269.014C51.0066 269.827 48.4178 270.298 47.2518 271.678C46.7077 272.282 46.3724 273.044 46.2953 273.853C46.2183 274.663 46.4036 275.475 46.8239 276.171C46.8239 276.171 43.1867 275.753 41.6355 278.364C40.8439 279.701 42.2881 282.172 42.2881 282.172C41.465 282.113 40.6416 282.282 39.9077 282.659C39.1738 283.036 38.5577 283.608 38.1267 284.312C37.1318 286.237 38.7364 288.409 38.7364 288.409C38.7364 288.409 35.8267 289.479 35.4523 291.789C34.7355 296.421 50.2364 306.563 56.3555 302.433Z" fill="#AD6359"/>
<path d="M38.9929 288.805C38.9929 288.805 38.8753 288.805 38.9181 288.88C43.3523 293.656 49.1359 296.97 55.4994 298.379C55.7027 298.379 55.8524 298.101 55.6385 298.015C49.673 295.768 44.0659 292.665 38.9929 288.805Z" fill="#263238"/>
<path d="M42.2451 282.129C42.2381 282.124 42.23 282.119 42.2214 282.117C42.2127 282.114 42.2037 282.114 42.1947 282.115C42.1858 282.116 42.1771 282.118 42.1692 282.123C42.1614 282.127 42.1544 282.133 42.1488 282.14C42.1432 282.147 42.139 282.155 42.1365 282.164C42.134 282.172 42.1332 282.181 42.1342 282.19C42.1352 282.199 42.1379 282.208 42.1423 282.216C42.1466 282.224 42.1525 282.231 42.1595 282.236C47.1029 287.449 53.7462 290.723 60.8911 291.468C61.1371 291.468 61.3832 291.254 61.0943 291.212C56.3018 290.484 46.952 285.809 42.2451 282.129Z" fill="#263238"/>
<path d="M65.7908 284.023C58.8159 283.231 52.7931 280.279 47.0485 276.363C46.9736 276.363 46.9094 276.417 46.9522 276.481C49.2415 279.166 53.1675 281.284 56.3661 282.675C59.3033 284.02 62.5423 284.569 65.7587 284.269C65.9298 284.258 65.9298 284.044 65.7908 284.023Z" fill="#263238"/>
<path d="M38.5973 288.409C38.0163 287.824 37.6087 287.089 37.4199 286.287C37.231 285.484 37.2683 284.645 37.5275 283.862C37.8626 283.125 38.451 282.533 39.1857 282.194C40.0614 281.891 40.9978 281.806 41.9136 281.947C41.403 281.228 41.1225 280.37 41.1091 279.488C41.0957 278.606 41.3501 277.74 41.8387 277.005C42.3866 276.377 43.1498 275.976 43.9782 275.882C44.9237 275.79 45.8772 275.826 46.8131 275.989C46.4233 275.53 46.1458 274.986 46.0028 274.401C45.8598 273.816 45.8552 273.206 45.9894 272.619C46.1664 271.982 46.4911 271.395 46.9372 270.906C47.3832 270.417 47.9381 270.04 48.5568 269.806C50.0124 269.279 51.5235 268.92 53.0605 268.736C53.8495 268.618 54.6216 268.406 55.3605 268.105C56.1568 267.74 56.8243 267.144 57.2754 266.393C57.361 266.265 57.361 266.393 57.2754 266.511C56.9758 267.021 56.5925 267.476 56.1414 267.859C55.6731 268.267 55.1512 268.608 54.5903 268.875C53.1978 269.4 51.7673 269.819 50.3112 270.127C49.0349 270.466 47.9066 271.219 47.1019 272.266C46.7342 272.82 46.5275 273.466 46.5048 274.131C46.4822 274.796 46.6444 275.454 46.9736 276.032C46.9736 276.032 46.9736 276.171 46.8773 276.16C46.0231 276.156 45.1717 276.257 44.3419 276.46C43.6537 276.624 43.0333 276.998 42.5661 277.529C42.1333 278.207 41.8858 278.987 41.8483 279.79C41.8107 280.593 41.9845 281.393 42.3522 282.108C41.4296 282.17 40.5265 282.402 39.6885 282.793C39.1444 283.127 38.7066 283.609 38.4262 284.183C38.1057 284.844 37.9751 285.581 38.0487 286.312C38.1224 287.043 38.3975 287.739 38.8434 288.323C38.8475 288.341 38.8475 288.359 38.8434 288.377C38.8434 288.377 37.9127 288.762 37.8699 288.762C37.8271 288.762 37.8699 288.762 37.8699 288.762C38.1049 288.629 38.3478 288.511 38.5973 288.409Z" fill="#263238"/>
<path d="M91.7003 227.518C88.2985 228.769 81.6445 224.137 78.7455 220.094C78.5529 219.816 78.3604 207.781 78.0822 205.406C78.018 204.914 93.4547 207.246 93.4547 207.246C92.9613 210.323 92.8463 213.448 93.1124 216.553C93.1552 216.895 94.9845 226.32 91.7003 227.518Z" fill="#AD6359"/>
<path d="M93.4547 207.246C93.4547 207.246 93.2836 208.241 93.1445 209.717C88.8655 214.969 81.9976 215.526 78.5101 215.408C78.3925 211.675 78.2534 206.85 78.0822 205.406C78.018 204.924 93.4547 207.246 93.4547 207.246Z" fill="#263238"/>
<path d="M78.1468 179.764C78.1468 179.764 73.2259 181.668 72.2203 186.589C71.2147 191.51 72.2203 196.73 72.6268 196.997C73.0333 197.265 78.1468 179.764 78.1468 179.764Z" fill="#263238"/>
<path d="M98.0229 186.118C99.2852 191.542 95.4554 206.722 91.4331 209.888C85.6136 214.488 76.5848 214.36 72.7978 207.481C69.1392 200.816 74.488 181.133 78.9276 178.298C85.4531 174.137 96.1294 178.095 98.0229 186.118Z" fill="#AD6359"/>
<path d="M82.7573 194.644C82.7573 194.644 82.8321 194.708 82.8214 194.751C82.6075 195.821 82.5326 197.03 83.4312 197.543C83.4312 197.543 83.4312 197.607 83.4312 197.597C82.2759 197.233 82.3828 195.596 82.7573 194.644Z" fill="#263238"/>
<path d="M83.8803 193.703C85.6026 193.863 85.1426 197.286 83.5593 197.137C81.9761 196.987 82.4468 193.564 83.8803 193.703Z" fill="#263238"/>
<path d="M76.7878 193.585C76.7878 193.585 76.7022 193.585 76.6915 193.67C76.5952 194.74 76.3064 195.928 75.3008 196.163V196.227C76.4989 196.206 76.8626 194.601 76.7878 193.585Z" fill="#263238"/>
<path d="M75.9855 192.355C74.2953 192.012 73.7283 195.414 75.3009 195.735C76.8734 196.056 77.3976 192.644 75.9855 192.355Z" fill="#263238"/>
<path d="M77.5689 198.613C77.5689 198.613 77.1196 200.153 77.0126 200.902C78.4669 201.115 79.8829 201.536 81.2168 202.154C81.527 202.303 81.5698 202.036 81.2168 201.758C80.2214 200.949 79.0068 200.458 77.7293 200.346C77.7293 200.132 78.4675 197.982 78.3498 197.95C77.772 197.916 77.1924 197.963 76.6275 198.089C77.4619 194.879 78.767 191.756 79.6014 188.461C79.6014 188.343 79.4623 188.279 79.4089 188.375C77.8653 191.642 76.647 195.053 75.7717 198.559C75.6326 199.03 77.2479 198.698 77.5689 198.613Z" fill="#263238"/>
<path d="M85.1858 192.536C84.7793 192.28 84.4584 191.97 84.1161 191.681C83.7737 191.392 83.3244 191.124 83.164 190.611C83.1297 190.456 83.1491 190.295 83.2192 190.153C83.2892 190.011 83.4056 189.897 83.5491 189.83C83.85 189.732 84.172 189.716 84.4809 189.786C84.7898 189.856 85.074 190.008 85.3035 190.226C85.8438 190.589 86.2262 191.143 86.3733 191.777C86.4015 191.926 86.3844 192.08 86.3244 192.219C86.2643 192.358 86.164 192.476 86.0363 192.558C85.9085 192.64 85.7593 192.681 85.6077 192.678C85.4562 192.674 85.3092 192.625 85.1858 192.536Z" fill="#263238"/>
<path d="M75.2368 188.589C75.7075 188.514 76.1354 188.386 76.5954 188.268C77.0909 188.226 77.5579 188.019 77.9219 187.68C78.0173 187.553 78.069 187.399 78.069 187.241C78.069 187.083 78.0173 186.929 77.9219 186.803C77.6874 186.589 77.4003 186.442 77.0901 186.376C76.7799 186.31 76.4577 186.328 76.1568 186.428C75.5139 186.536 74.9342 186.879 74.5307 187.391C74.4493 187.512 74.4037 187.653 74.3993 187.798C74.3948 187.944 74.4317 188.087 74.5056 188.213C74.5795 188.338 74.6874 188.44 74.8168 188.507C74.9462 188.573 75.0918 188.602 75.2368 188.589Z" fill="#263238"/>
<path d="M95.4979 199.083C92.3528 198.773 94.0644 184.898 94.0644 184.898C92.123 185.56 90.092 185.92 88.0416 185.968C85.9701 185.895 83.9136 185.587 81.9119 185.048C81.484 184.888 87.1644 183.283 87.1644 183.283C87.1644 183.283 73.1933 184.503 72.7226 181.871C72.5514 180.962 75.151 172.682 86.7472 173.206C95.3053 173.591 99.2955 182.534 99.2955 182.534C99.2955 182.534 103.457 187.166 102.74 189.263C101.521 192.943 98.8355 199.415 95.4979 199.083Z" fill="#263238"/>
<path d="M93.5939 199.158C93.5939 199.158 97.4986 194.494 99.6488 195.949C101.799 197.404 98.579 204.347 95.819 205.106C95.4752 205.226 95.1107 205.275 94.7476 205.25C94.3844 205.225 94.0299 205.128 93.7053 204.963C93.3807 204.798 93.0927 204.57 92.8585 204.291C92.6243 204.012 92.4487 203.689 92.3423 203.341L93.5939 199.158Z" fill="#AD6359"/>
<path d="M145.702 262.873C154.389 256.166 146.087 222.115 141.038 209.578C139.551 205.887 115.963 212.787 117.065 216.927C123.366 240.344 136.192 270.223 145.702 262.873Z" fill="#AD6359"/>
<path d="M120.969 229.775L123.569 236.194C124.457 238.333 125.323 240.473 126.286 242.612C127.249 244.752 128.179 246.816 129.164 248.902C130.148 250.988 131.239 253.032 132.309 255.086C130.955 253.201 129.723 251.232 128.618 249.191C127.548 247.148 126.479 245.051 125.548 242.933C124.617 240.815 123.761 238.654 122.991 236.45C122.221 234.247 121.558 232.032 120.969 229.775Z" fill="#263238"/>
<path d="M119.418 162.091C119.521 163.294 119.265 164.501 118.683 165.559C118.1 166.617 117.218 167.478 116.146 168.034C115.074 168.591 113.862 168.817 112.661 168.685C111.461 168.552 110.327 168.067 109.402 167.29C108.478 166.513 107.804 165.48 107.467 164.321C107.129 163.161 107.143 161.928 107.506 160.776C107.869 159.625 108.565 158.606 109.507 157.85C110.448 157.094 111.593 156.634 112.796 156.528C113.596 156.458 114.402 156.546 115.168 156.787C115.934 157.029 116.645 157.419 117.261 157.936C117.876 158.453 118.383 159.086 118.753 159.799C119.123 160.512 119.349 161.291 119.418 162.091Z" fill="white"/>
<path d="M119.417 162.091C119.55 163.729 119.049 165.355 118.018 166.635C116.987 167.915 115.504 168.75 113.876 168.97C112.989 169.148 112.074 169.136 111.192 168.936C110.31 168.736 109.48 168.351 108.757 167.808C108.034 167.265 107.434 166.575 106.996 165.783C106.558 164.991 106.293 164.116 106.217 163.215C106.141 162.314 106.257 161.406 106.556 160.553C106.855 159.699 107.332 158.918 107.954 158.262C108.576 157.605 109.33 157.087 110.166 156.743C111.002 156.398 111.902 156.234 112.806 156.261C114.444 156.205 116.041 156.778 117.271 157.862C118.5 158.946 119.268 160.459 119.417 162.091ZM119.417 162.091C119.349 161.304 119.122 160.539 118.75 159.842C118.378 159.145 117.869 158.531 117.253 158.036C116.637 157.542 115.928 157.177 115.167 156.963C114.407 156.75 113.611 156.693 112.827 156.796C111.33 156.988 109.965 157.752 109.017 158.927C108.07 160.103 107.613 161.599 107.743 163.103C107.873 164.607 108.579 166.003 109.714 166.998C110.849 167.994 112.325 168.512 113.833 168.445C114.623 168.412 115.398 168.219 116.111 167.878C116.824 167.538 117.461 167.056 117.983 166.462C118.505 165.868 118.901 165.174 119.148 164.423C119.394 163.672 119.486 162.879 119.417 162.091Z" fill="#263238"/>
<path d="M106.131 173.356C106.188 174.026 106.044 174.698 105.719 175.287C105.394 175.876 104.902 176.355 104.304 176.664C103.707 176.973 103.031 177.098 102.363 177.023C101.694 176.949 101.063 176.677 100.549 176.244C100.034 175.81 99.66 175.234 99.4732 174.588C99.2864 173.941 99.2953 173.254 99.4989 172.613C99.7025 171.972 100.092 171.406 100.617 170.986C101.143 170.566 101.781 170.311 102.451 170.253C102.897 170.214 103.346 170.263 103.772 170.397C104.199 170.532 104.595 170.75 104.937 171.038C105.279 171.327 105.56 171.68 105.765 172.078C105.97 172.475 106.095 172.91 106.131 173.356Z" fill="white"/>
<path d="M106.131 173.356C106.191 174.09 106.029 174.825 105.665 175.466C105.302 176.106 104.754 176.623 104.093 176.948C103.432 177.273 102.688 177.391 101.959 177.288C101.23 177.185 100.548 176.864 100.004 176.368C99.4591 175.872 99.0763 175.224 98.9051 174.508C98.734 173.791 98.7824 173.04 99.0441 172.351C99.3058 171.663 99.7687 171.069 100.372 170.647C100.976 170.225 101.693 169.995 102.43 169.986C103.356 169.982 104.251 170.326 104.936 170.95C105.622 171.574 106.048 172.433 106.131 173.356ZM106.131 173.356C106.096 172.922 105.971 172.5 105.763 172.117C105.556 171.734 105.271 171.398 104.927 171.132C104.583 170.865 104.187 170.673 103.764 170.568C103.341 170.463 102.902 170.447 102.472 170.521C101.87 170.623 101.31 170.898 100.862 171.313C100.413 171.728 100.095 172.264 99.9466 172.857C99.798 173.449 99.8251 174.072 100.025 174.65C100.224 175.227 100.588 175.734 101.071 176.108C101.554 176.482 102.135 176.708 102.744 176.757C103.353 176.806 103.963 176.677 104.5 176.385C105.037 176.093 105.477 175.651 105.766 175.113C106.056 174.575 106.183 173.964 106.131 173.356Z" fill="#263238"/>
<path d="M165.054 133.678C165.622 138.374 164.303 143.104 161.386 146.829C158.47 150.553 154.195 152.968 149.499 153.544C146.409 153.928 143.272 153.489 140.406 152.271C139.009 154.1 137.208 155.583 135.144 156.604C133.079 157.624 130.808 158.155 128.505 158.155C126.203 158.155 123.931 157.624 121.867 156.604C119.803 155.583 118.002 154.1 116.604 152.271C115.946 152.465 115.274 152.605 114.593 152.688C112.264 152.972 109.902 152.575 107.794 151.544C105.685 150.513 103.922 148.893 102.716 146.88C101.51 144.867 100.914 142.547 101 140.202C101.086 137.857 101.85 135.587 103.2 133.667C100.571 130.323 99.2238 126.149 99.4007 121.899C99.5776 117.648 101.267 113.601 104.165 110.486C107.063 107.372 110.978 105.395 115.204 104.912C119.431 104.43 123.691 105.473 127.216 107.854C128.87 105.798 131.037 104.215 133.499 103.266C135.96 102.317 138.629 102.035 141.235 102.449C143.841 102.862 146.291 103.957 148.338 105.622C150.384 107.287 151.955 109.463 152.891 111.93C153.515 111.72 154.161 111.576 154.816 111.502C156.794 111.265 158.798 111.636 160.559 112.567C162.321 113.497 163.757 114.943 164.676 116.71C165.595 118.478 165.954 120.483 165.704 122.46C165.454 124.436 164.608 126.29 163.278 127.773C164.213 129.621 164.814 131.62 165.054 133.678Z" fill="white"/>
<path d="M165.054 133.678C165.611 138.373 164.309 143.099 161.428 146.847C160.462 148.068 159.348 149.164 158.112 150.11C155.608 152.005 152.653 153.215 149.539 153.62C146.425 154.025 143.259 153.612 140.353 152.42H140.525C139.119 154.285 137.301 155.8 135.214 156.846C133.126 157.893 130.825 158.443 128.49 158.454C126.144 158.462 123.827 157.931 121.718 156.903C119.61 155.856 117.764 154.35 116.316 152.495L116.701 152.624C114.212 153.375 111.551 153.338 109.084 152.517C106.606 151.699 104.447 150.123 102.912 148.013C102.16 146.952 101.566 145.788 101.147 144.558C100.746 143.32 100.533 142.029 100.515 140.728C100.492 138.106 101.285 135.541 102.783 133.389V133.988C100.047 130.563 98.6516 126.258 98.8573 121.879C98.9733 118.616 99.9653 115.445 101.729 112.699C103.493 109.952 105.964 107.731 108.882 106.268C111.8 104.805 115.058 104.154 118.314 104.384C121.57 104.615 124.705 105.717 127.388 107.576L126.917 107.64C128.616 105.549 130.838 103.944 133.358 102.99C135.877 102.036 138.605 101.765 141.263 102.206C143.905 102.644 146.384 103.772 148.45 105.476C150.517 107.179 152.096 109.398 153.03 111.908L152.891 111.833C154.982 111.154 157.238 111.184 159.31 111.919C160.833 112.464 162.198 113.376 163.284 114.574C164.37 115.773 165.144 117.221 165.536 118.79C165.929 120.359 165.928 122.001 165.534 123.57C165.14 125.139 164.366 126.586 163.279 127.784C164.215 129.628 164.816 131.624 165.054 133.678ZM165.054 133.678C164.802 131.621 164.186 129.625 163.236 127.784C164.69 126.188 165.57 124.153 165.739 122.001C165.907 119.848 165.354 117.701 164.166 115.899C162.992 114.101 161.254 112.744 159.224 112.041C157.195 111.338 154.99 111.329 152.955 112.015H152.848V111.908C151.899 109.48 150.332 107.341 148.302 105.704C146.271 104.069 143.841 103.006 141.263 102.623C138.696 102.24 136.074 102.535 133.657 103.479C131.254 104.432 129.147 106.005 127.548 108.036L127.345 108.293L127.067 108.1C123.624 105.805 119.476 104.81 115.366 105.294C111.256 105.778 107.453 107.708 104.636 110.739C101.819 113.771 100.173 117.706 99.9926 121.84C99.8119 125.974 101.108 130.038 103.65 133.304L103.885 133.603L103.661 133.913C102.263 135.886 101.515 138.246 101.521 140.664C101.538 141.865 101.729 143.058 102.088 144.205C102.463 145.349 103.008 146.431 103.703 147.414C105.119 149.394 107.114 150.886 109.413 151.685C111.712 152.484 114.202 152.55 116.54 151.875L116.787 151.811L116.926 152.003C118.287 153.796 120.035 155.258 122.039 156.282C125.091 157.828 128.586 158.264 131.923 157.514C135.261 156.765 138.234 154.877 140.332 152.174L140.407 152.078H140.514C143.365 153.311 146.49 153.769 149.575 153.405C152.678 153.023 155.627 151.84 158.133 149.971C159.367 149.043 160.481 147.965 161.449 146.761C162.399 145.53 163.193 144.186 163.813 142.76C165.001 139.89 165.428 136.762 165.054 133.678Z" fill="#263238"/>
<path d="M134.555 134.234C134.532 132.932 134.765 131.639 135.239 130.426C135.835 129.153 136.841 128.118 138.096 127.484C138.534 127.217 139.058 126.928 139.7 126.596C140.35 126.254 140.969 125.857 141.551 125.409C142.149 124.954 142.669 124.405 143.091 123.783C143.514 123.15 143.734 122.404 143.723 121.643C143.734 121.088 143.613 120.538 143.37 120.039C143.15 119.591 142.84 119.194 142.46 118.873C142.074 118.55 141.626 118.31 141.144 118.166C140.65 118.006 140.134 117.923 139.615 117.92C139.02 117.909 138.43 118.022 137.882 118.252C137.38 118.459 136.909 118.732 136.48 119.065C136.08 119.4 135.721 119.78 135.41 120.199C135.104 120.576 134.821 120.973 134.565 121.386L130.8 118.787C131.165 117.918 131.671 117.116 132.297 116.412C132.9 115.718 133.608 115.123 134.394 114.647C135.197 114.174 136.061 113.814 136.962 113.577C137.894 113.331 138.854 113.209 139.818 113.213C140.904 113.219 141.985 113.378 143.027 113.684C144.077 113.997 145.054 114.513 145.905 115.203C146.781 115.927 147.489 116.832 147.98 117.856C148.534 119.07 148.805 120.395 148.772 121.729C148.785 122.553 148.677 123.375 148.451 124.168C148.246 124.855 147.932 125.506 147.52 126.093C147.115 126.673 146.637 127.198 146.097 127.655C145.511 128.147 144.889 128.594 144.236 128.993L142.503 129.987C141.948 130.296 141.422 130.654 140.93 131.057C140.456 131.427 140.054 131.88 139.743 132.394C139.421 132.953 139.262 133.59 139.283 134.234H134.555ZM134.64 144.312V138.342H139.433V144.312H134.64Z" fill="#F25E3D"/>
<path d="M123.846 123.066C124.142 124.333 124.179 125.647 123.953 126.928C123.648 128.29 122.895 129.511 121.814 130.394C121.439 130.736 120.979 131.132 120.423 131.592C119.857 132.061 119.331 132.576 118.85 133.133C118.36 133.699 117.966 134.343 117.684 135.037C117.402 135.744 117.342 136.52 117.513 137.262C117.61 137.804 117.838 138.314 118.177 138.749C118.483 139.145 118.87 139.473 119.31 139.712C119.755 139.949 120.242 140.095 120.744 140.14C121.262 140.187 121.785 140.158 122.295 140.054C122.877 139.942 123.431 139.713 123.921 139.38C124.369 139.077 124.775 138.718 125.13 138.31C125.472 137.902 125.763 137.453 125.997 136.973C126.215 136.539 126.408 136.093 126.574 135.636L130.789 137.412C130.617 138.338 130.287 139.228 129.816 140.043C129.358 140.84 128.781 141.562 128.104 142.183C127.417 142.813 126.647 143.346 125.815 143.766C124.954 144.198 124.041 144.515 123.097 144.707C122.022 144.936 120.919 145.005 119.824 144.911C118.733 144.829 117.671 144.527 116.7 144.023C115.699 143.5 114.82 142.771 114.122 141.883C112.859 140.114 112.236 137.967 112.357 135.796C112.416 135.085 112.59 134.388 112.871 133.732C113.145 133.081 113.505 132.469 113.94 131.913C114.412 131.31 114.927 130.741 115.481 130.212C115.973 129.763 116.476 129.313 116.968 128.886C117.443 128.461 117.877 127.992 118.262 127.484C118.638 127.021 118.931 126.496 119.129 125.933C119.324 125.32 119.346 124.665 119.193 124.04L123.846 123.066ZM121.707 113.224L122.937 119.065L118.241 120.049L117.01 114.208L121.707 113.224Z" fill="#F25E3D"/>
</svg>
