<svg width="235" height="355" viewBox="0 0 235 355" fill="none" xmlns="http://www.w3.org/2000/svg">
<path fill-rule="evenodd" clip-rule="evenodd" d="M275.848 224.731C280.394 247.591 297.953 284.303 276.789 294.01C253.543 304.671 237.226 251.145 211.797 254.107C189.28 256.73 190.169 315.985 169.544 306.501C145.211 295.311 175.734 245.736 155.479 228.209C139.617 214.484 115.139 246.349 94.6888 241.73C77.5678 237.863 48.9165 221.582 56.6857 205.896C70.2183 178.574 132.127 190.572 135.07 160.201C137.933 130.665 76.4986 132.225 66.5388 104.227C60.8282 88.174 85.4949 69.3525 102.517 68.6909C126.592 67.755 143.577 106.236 166.917 100.325C186.217 95.4376 171.575 50.77 190.976 46.2903C207.796 42.4064 209.24 75.4643 221.423 87.7395C228.575 94.9451 241.466 94.9066 247.399 103.141C253.439 111.522 247.667 125.011 254.104 133.092C262.506 143.64 288.1 140.849 288.156 154.307C288.215 168.797 256.793 166.649 254.3 180.915C251.479 197.054 272.649 208.644 275.848 224.731Z" fill="#F29C6B"/>
</svg>
