<svg width="333" height="284" viewBox="0 0 333 284" fill="none" xmlns="http://www.w3.org/2000/svg">
<path fill-rule="evenodd" clip-rule="evenodd" d="M63.4707 135.334C50.0786 116.258 19.1862 89.7668 34.6263 72.3385C51.5854 53.1955 88.1325 95.5697 110.198 82.5891C129.738 71.0945 104.989 17.2472 127.688 17.5923C154.467 17.9995 146.57 75.6802 172.178 83.5315C192.233 89.6801 201.754 50.6432 222.327 46.608C239.551 43.2297 272.338 46.5506 271.566 64.0379C270.223 94.4981 208.743 108.529 218.319 137.501C227.631 165.677 283.2 139.435 303.62 161.024C315.328 173.402 300.366 200.584 285.062 208.065C263.416 218.645 232.335 190.304 213.371 205.139C197.689 217.406 229.127 252.353 213.189 264.287C199.37 274.635 184.696 244.977 168.593 238.669C159.14 234.966 147.363 240.208 138.609 235.072C129.699 229.844 129.53 215.173 120.377 210.381C108.431 204.126 86.1449 217.018 80.6581 204.728C74.751 191.497 104.363 180.77 100.882 166.713C96.9428 150.81 72.8954 148.758 63.4707 135.334Z" fill="#F29C6B"/>
</svg>
