<svg width="927" height="439" viewBox="0 0 927 439" fill="none" xmlns="http://www.w3.org/2000/svg">
<path fill-rule="evenodd" clip-rule="evenodd" d="M574.931 630.494C544.62 691.49 580.826 792.124 521.768 826.021C477.57 851.389 441.646 764.286 406.96 726.905C381.769 699.759 365.017 666.975 345.168 635.707C330.112 611.99 330.087 571.556 303.2 563.451C214.443 536.695 96.4069 603.366 28.4812 540.241C-14.8534 499.969 113.11 444.128 111.182 385.004C108.599 305.819 -48.851 214.108 16.3787 169.222C102.86 109.714 215.511 235.253 320.345 241.076C353.323 242.908 382.591 215.306 404.721 190.792C449.742 140.924 457.158 57.4728 515.756 24.6222C564.413 -2.65517 663.443 -17.1556 681.335 35.7201C713.112 129.629 549.888 250.284 616.852 323.386C683.022 395.621 816.82 236.477 904.75 279.613C956.086 304.797 907.238 406.981 864.411 444.832C806.505 496.009 709.009 468.288 643.997 510.065C621.51 524.516 652.616 566.286 639.315 589.479C626.544 611.747 586.355 607.505 574.931 630.494Z" fill="#F29C6B"/>
</svg>
