<svg width="408" height="441" viewBox="0 0 408 441" fill="none" xmlns="http://www.w3.org/2000/svg">
<path d="M55.1106 312.493C55.1106 310.644 55.0047 308.815 54.9855 307.004L55.2551 307.274C50.8832 307.322 46.5017 307.428 42.1298 307.437L29.0046 307.495L29.4957 307.004V318.098L29.0527 317.655C31.2098 317.655 33.3668 317.655 35.5431 317.712L42.0143 317.78L55.2551 318.059L55.1106 312.493ZM42.2454 318.367L35.6394 318.483C33.4342 318.483 31.2194 318.483 29.0046 318.541H28.5327V318.098V307.004V306.503H29.0335L42.1587 306.571C46.5306 306.571 50.9121 306.677 55.284 306.735H55.4958V307.004C55.4958 308.882 55.4092 310.76 55.3707 312.609L55.2262 318.098L42.2454 318.367Z" fill="#EBEBEB"/>
<path d="M40.4738 326.446C40.4256 324.597 40.3582 322.777 40.339 320.957L40.6086 321.227C36.2367 321.285 31.8649 321.391 27.4834 321.391L14.3581 321.458L14.8588 320.957L14.8011 332.051L14.3581 331.608C16.5248 331.608 18.6818 331.608 20.8485 331.665L27.3678 331.781L40.6086 332.051L40.4738 326.446ZM27.57 332.359L20.964 332.465C18.7589 332.513 16.544 332.465 14.3292 332.522H13.8862V332.07V320.976V320.485H14.387L27.5122 320.543C31.8937 320.543 36.2656 320.659 40.6375 320.707H40.9168V320.967C40.9168 322.893 40.8301 324.722 40.7916 326.571L40.6471 332.06L27.57 332.359Z" fill="#EBEBEB"/>
<path d="M69.7572 326.446C69.7572 324.597 69.6417 322.777 69.6224 320.957L69.9017 321.227C65.5202 321.285 61.1483 321.391 56.7764 321.391L43.6511 321.458L44.1422 320.957L44.0845 332.051L43.6511 331.608C45.8082 331.608 47.9652 331.608 50.1319 331.666L56.6608 331.781L69.9017 332.051L69.7572 326.446ZM56.8823 332.33L50.286 332.436C48.0808 332.484 45.8563 332.436 43.6511 332.494H43.2082V332.041L43.1504 320.948V320.457H43.6511L56.7764 320.514C61.1483 320.514 65.5202 320.63 69.9017 320.678H70.1713V320.938C70.1713 322.864 70.0846 324.694 70.0365 326.543L69.9017 332.031L56.8823 332.33Z" fill="#EBEBEB"/>
<path d="M378.668 326.446C378.62 324.597 378.553 322.777 378.533 320.957L378.803 321.227C374.431 321.285 370.059 321.391 365.678 321.391L352.553 321.458L353.053 320.957L352.996 332.051L352.553 331.608C354.719 331.608 356.876 331.608 359.043 331.666L365.572 331.781L378.803 332.051L378.668 326.446ZM365.793 332.33L359.197 332.436C356.982 332.484 354.767 332.436 352.553 332.494H352.09V332.041V320.986V320.495H352.581L365.707 320.553C370.088 320.553 374.46 320.668 378.832 320.717H379.053V320.977C379.053 322.903 378.967 324.732 378.919 326.581L378.774 332.07L365.793 332.33Z" fill="#EBEBEB"/>
<path d="M378.668 52.9634C378.62 51.1145 378.553 49.2944 378.533 47.4744L378.803 47.7441C374.431 47.7922 370.059 47.8981 365.678 47.9078L352.553 47.9655L353.053 47.4744L352.996 58.5678L352.553 58.1249C354.719 58.1249 356.876 58.1249 359.043 58.1826L365.572 58.2886L378.803 58.5678L378.668 52.9634ZM365.793 58.8471L359.197 58.953C356.982 59.0012 354.767 58.953 352.553 59.0108H352.09V58.5678V47.513V47.0122H352.581L365.707 47.07C370.088 47.07 374.46 47.1855 378.832 47.2337H379.053V47.5033C379.053 49.3811 378.967 51.2589 378.919 53.1078L378.774 58.5967L365.793 58.8471Z" fill="#EBEBEB"/>
<path d="M393.315 66.9841C393.267 65.1448 393.199 63.3152 393.18 61.5048L393.45 61.7744C389.078 61.7744 384.696 61.9285 380.324 61.9285L367.199 61.9959L367.69 61.5048L367.642 72.5886L367.199 72.1552C369.366 72.1552 371.523 72.1552 373.69 72.1552L380.209 72.2708L393.45 72.5404L393.315 66.9841ZM380.44 72.8678L373.834 72.9834C371.629 72.9834 369.414 72.9834 367.199 72.9834H366.756V72.5308L366.708 61.447V60.9463H367.209L380.334 61.0137C384.706 61.0137 389.087 61.1196 393.459 61.1678H393.739V61.4374C393.739 63.3152 393.652 65.1834 393.613 67.0419L393.498 72.5886L380.44 72.8678Z" fill="#EBEBEB"/>
<path d="M40.4738 53.0113C40.4256 51.1624 40.3582 49.3424 40.339 47.5224L40.6086 47.792C36.2367 47.8498 31.8649 47.9557 27.4834 47.9557L14.3581 48.0231L14.8588 47.5224L14.8011 58.6158L14.3581 58.1728C16.5248 58.1728 18.6818 58.1728 20.8485 58.2306L27.3678 58.3365L40.6086 58.6158L40.4738 53.0113ZM27.57 58.895L20.964 59.001C18.7589 59.001 16.544 59.001 14.3292 59.0587H13.8862V58.6158V47.5224V47.0312H14.387L27.5122 47.089C31.8937 47.089 36.2656 47.2046 40.6375 47.2527H40.9168V47.5224C40.9168 49.4483 40.8301 51.2779 40.7916 53.1268L40.6471 58.6158L27.57 58.895Z" fill="#EBEBEB"/>
<path d="M173.941 168.847C173.989 170.696 174.056 172.525 174.076 174.336L173.806 174.066C178.178 174.066 182.55 173.912 186.931 173.902L200.057 173.845L199.556 174.336L199.614 163.242L200.057 163.685C197.89 163.685 195.733 163.685 193.566 163.685L187.037 163.57L173.806 163.291L173.941 168.847ZM186.816 162.973L193.412 162.857C195.627 162.809 197.842 162.857 200.057 162.809H200.49V163.252L200.548 174.345V174.846H200.057L186.931 174.779C182.55 174.779 178.178 174.673 173.806 174.615H173.527V174.297C173.527 172.42 173.614 170.551 173.662 168.693L173.806 163.204L186.816 162.973Z" fill="#EBEBEB"/>
<path d="M188.54 154.865C188.54 156.714 188.645 158.534 188.665 160.354L188.395 160.084C192.777 160.026 197.149 159.92 201.52 159.92L214.646 159.853L214.155 160.354L214.203 149.26L214.646 149.703C212.489 149.703 210.332 149.703 208.155 149.646L201.636 149.54L188.385 149.26L188.54 154.865ZM201.405 148.981L208.011 148.875C210.216 148.875 212.44 148.875 214.646 148.817H215.089V149.26L215.146 160.354V160.816H214.646H201.52C197.149 160.816 192.777 160.7 188.395 160.652H188.125V160.383C188.125 158.457 188.212 156.627 188.26 154.778L188.385 149.26L201.405 148.981Z" fill="#EBEBEB"/>
<path d="M46.7329 151.783V180.162L65.1256 201.742C69.5359 197.976 72.6863 192.948 74.1527 187.337C75.6191 181.726 75.3311 175.8 73.3273 170.357C71.3236 164.915 67.7004 160.217 62.9456 156.896C58.1908 153.575 52.5326 151.791 46.7329 151.783Z" fill="#EBEBEB"/>
<path d="M12.586 183.051C12.5896 188.467 14.1435 193.769 17.0641 198.33C19.9848 202.891 24.15 206.521 29.0678 208.79C33.9855 211.06 39.4501 211.874 44.8158 211.137C50.1815 210.4 55.2242 208.142 59.3477 204.631L40.955 183.051V154.672C37.2273 154.667 33.5353 155.397 30.0904 156.822C26.6456 158.246 23.5158 160.337 20.8804 162.973C18.2449 165.609 16.1557 168.74 14.7323 172.185C13.309 175.631 12.5796 179.323 12.586 183.051Z" fill="#EBEBEB"/>
<path d="M12.586 183.051C12.5896 188.467 14.1435 193.769 17.0641 198.33C19.9848 202.891 24.15 206.521 29.0678 208.79C33.9855 211.06 39.4501 211.874 44.8158 211.137C50.1815 210.4 55.2242 208.142 59.3477 204.631L40.955 183.051V154.672C37.2273 154.667 33.5353 155.397 30.0904 156.822C26.6456 158.246 23.5158 160.337 20.8804 162.973C18.2449 165.609 16.1557 168.74 14.7323 172.185C13.309 175.631 12.5796 179.323 12.586 183.051Z" fill="#DBDBDB"/>
<path d="M59.3672 166.334V129.722" stroke="#C7C7C7" stroke-miterlimit="10"/>
<path d="M56.8057 127.16C56.8038 127.669 56.9532 128.168 57.235 128.592C57.5168 129.016 57.9182 129.348 58.3884 129.543C58.8586 129.739 59.3764 129.791 59.876 129.692C60.3757 129.593 60.8347 129.348 61.1948 128.988C61.555 128.628 61.8001 128.169 61.899 127.669C61.9979 127.169 61.9462 126.652 61.7504 126.181C61.5546 125.711 61.2235 125.31 60.7992 125.028C60.3749 124.746 59.8765 124.597 59.3672 124.599C58.6878 124.599 58.0363 124.869 57.5559 125.349C57.0756 125.829 56.8057 126.481 56.8057 127.16V127.16Z" stroke="#C7C7C7" stroke-miterlimit="10"/>
<path d="M23.1592 125.87H51.5957V124.589H23.1592V125.87Z" fill="#C7C7C7"/>
<path d="M35.5045 128.441H51.5957V127.16H35.5045V128.441Z" fill="#C7C7C7"/>
<path d="M335.007 93.8029C335.854 99.5161 338.323 104.866 342.121 109.217C345.919 113.568 350.887 116.737 356.434 118.347C361.98 119.957 367.872 119.941 373.41 118.3C378.948 116.66 383.898 113.463 387.672 109.091C391.446 104.719 393.886 99.3558 394.7 93.6379C395.515 87.9201 394.671 82.0886 392.269 76.8364C389.866 71.5843 386.006 67.1324 381.147 64.01C376.288 60.8876 370.635 59.226 364.859 59.2227V89.3732L335.007 93.8029Z" fill="#DBDBDB"/>
<path d="M328.536 83.2388C328.538 84.7181 328.647 86.1954 328.864 87.6588L358.716 83.2388V53.0786C354.754 53.0761 350.831 53.8545 347.171 55.3693C343.51 56.8841 340.185 59.1056 337.383 61.9067C334.582 64.7078 332.361 68.0337 330.846 71.694C329.331 75.3543 328.553 79.2774 328.555 83.2388H328.536Z" fill="#EBEBEB"/>
<path d="M361.576 100.505H329.499" stroke="#C7C7C7" stroke-miterlimit="10"/>
<path d="M327.255 102.749C328.495 102.749 329.499 101.744 329.499 100.505C329.499 99.2658 328.495 98.2612 327.255 98.2612C326.016 98.2612 325.012 99.2658 325.012 100.505C325.012 101.744 326.016 102.749 327.255 102.749Z" stroke="#C7C7C7" stroke-miterlimit="10"/>
<path d="M294.196 99.937H319.108V98.8103H294.196V99.937Z" fill="#C7C7C7"/>
<path d="M305.001 102.19H319.099V101.064H305.001V102.19Z" fill="#C7C7C7"/>
<path d="M265.317 0H264.113V64.1819H265.317V0Z" fill="#EBEBEB"/>
<path d="M268.052 58.8276H261.378V63.344H268.052V58.8276Z" fill="#DBDBDB"/>
<path d="M268.052 60.3301H261.378V63.3442H268.052V60.3301Z" fill="#C7C7C7"/>
<path d="M269.862 93.2059C269.864 94.2233 269.564 95.2185 269 96.0654C268.436 96.9123 267.634 97.5729 266.694 97.9636C265.755 98.3542 264.721 98.4574 263.723 98.2601C262.724 98.0628 261.807 97.5738 261.087 96.855C260.367 96.1363 259.876 95.22 259.677 94.2222C259.478 93.2245 259.579 92.1901 259.968 91.2499C260.357 90.3097 261.016 89.506 261.862 88.9405C262.708 88.3751 263.702 88.0732 264.72 88.0732C266.082 88.0732 267.389 88.6137 268.353 89.576C269.317 90.5382 269.86 91.8437 269.862 93.2059Z" fill="#EBEBEB"/>
<path d="M281.447 93.2058H247.993L254.05 82.4687L258.99 62.5449H270.44L275.39 82.4687L281.447 93.2058Z" fill="#DBDBDB"/>
<path d="M203.129 0H201.925V53.6181H203.129V0Z" fill="#EBEBEB"/>
<path d="M205.863 48.2734H199.19V52.7898H205.863V48.2734Z" fill="#DBDBDB"/>
<path d="M205.863 49.7759H199.19V52.79H205.863V49.7759Z" fill="#C7C7C7"/>
<path d="M207.645 82.6517C207.647 83.6691 207.347 84.6643 206.783 85.5112C206.219 86.3581 205.417 87.0187 204.477 87.4093C203.538 87.8 202.503 87.9032 201.505 87.7059C200.507 87.5086 199.59 87.0196 198.87 86.3008C198.15 85.582 197.659 84.6658 197.46 83.668C197.261 82.6703 197.362 81.6359 197.751 80.6957C198.14 79.7555 198.799 78.9518 199.645 78.3863C200.491 77.8209 201.485 77.519 202.503 77.519C203.865 77.519 205.171 78.0595 206.135 79.0218C207.099 79.984 207.642 81.2895 207.645 82.6517Z" fill="#EBEBEB"/>
<path d="M219.249 82.6515H185.805L191.862 71.9144L196.802 51.981H208.251L213.192 71.9144L219.249 82.6515Z" fill="#DBDBDB"/>
<path d="M143.463 0H142.259V42.5921H143.463V0Z" fill="#EBEBEB"/>
<path d="M146.198 37.2378H139.524V41.7541H146.198V37.2378Z" fill="#DBDBDB"/>
<path d="M146.198 38.7402H139.524V41.7543H146.198V38.7402Z" fill="#C7C7C7"/>
<path d="M148.008 71.6256C148.001 72.641 147.693 73.6314 147.123 74.4719C146.554 75.3125 145.748 75.9656 144.808 76.3489C143.867 76.7322 142.835 76.8285 141.84 76.6258C140.845 76.423 139.932 75.9303 139.217 75.2096C138.501 74.4889 138.015 73.5726 137.82 72.5762C137.625 71.5798 137.729 70.5478 138.119 69.6104C138.51 68.673 139.169 67.8722 140.013 67.3088C140.858 66.7455 141.851 66.4449 142.866 66.4448C143.545 66.4448 144.217 66.5791 144.843 66.8399C145.469 67.1007 146.038 67.483 146.516 67.9645C146.994 68.4461 147.372 69.0176 147.628 69.6459C147.884 70.2743 148.014 70.9471 148.008 71.6256Z" fill="#EBEBEB"/>
<path d="M159.593 71.6256H126.139L132.196 60.8885L137.136 40.9551H148.596L153.536 60.8885L159.593 71.6256Z" fill="#DBDBDB"/>
<path d="M0 369.337L50.9507 369.106L101.892 369.019L203.793 368.855L305.694 369.019L356.645 369.106L407.586 369.337L356.645 369.578L305.694 369.655L203.793 369.818L101.892 369.655L50.9507 369.568L0 369.337Z" fill="#263238"/>
<path d="M243.284 430.755C289.926 430.755 327.737 418.278 327.737 402.887C327.737 387.496 289.926 375.019 243.284 375.019C196.643 375.019 158.832 387.496 158.832 402.887C158.832 418.278 196.643 430.755 243.284 430.755Z" fill="#EBEBEB"/>
<path d="M184.832 440.51C213.583 440.51 236.89 432.819 236.89 423.331C236.89 413.843 213.583 406.151 184.832 406.151C156.081 406.151 132.774 413.843 132.774 423.331C132.774 432.819 156.081 440.51 184.832 440.51Z" fill="#EBEBEB"/>
<path d="M404.669 290.374C393.874 304.992 382.617 321.959 379.882 340.285C379.869 340.347 379.882 340.412 379.917 340.466C379.952 340.519 380.007 340.556 380.07 340.569C380.132 340.581 380.197 340.569 380.251 340.534C380.304 340.498 380.341 340.443 380.354 340.381C381.609 335.381 383.218 330.477 385.169 325.705C392.266 323.779 399.228 322.142 402.955 315.113C406.749 307.871 406.267 298.434 405.545 290.547C405.458 290.114 404.881 290.095 404.669 290.374Z" fill="#F25E3D"/>
<path d="M385.236 325.56C390.05 314.688 396.31 303.759 404.216 294.813C404.273 294.755 404.351 294.813 404.302 294.899C399.122 301.274 395.193 308.217 391.341 315.276C394.923 311.646 398.833 308.4 402.222 304.548C402.29 304.471 402.386 304.548 402.328 304.654C398.968 308.689 395.299 313.071 390.917 316.056C389.742 318.223 388.558 320.399 387.354 322.566C387.653 322.402 387.961 322.257 388.259 322.113C388.307 322.113 388.356 322.161 388.307 322.19C387.97 322.363 387.643 322.537 387.296 322.681C386.728 323.712 386.16 324.742 385.582 325.763C385.447 325.994 385.13 325.792 385.236 325.56Z" fill="#263238"/>
<path d="M388.837 321.767C391.741 320.144 394.513 318.295 397.128 316.239C397.196 316.181 397.302 316.239 397.225 316.345C394.694 318.528 391.922 320.415 388.962 321.969C388.935 321.985 388.903 321.991 388.872 321.983C388.842 321.976 388.815 321.957 388.799 321.93C388.782 321.903 388.777 321.871 388.784 321.84C388.791 321.81 388.81 321.783 388.837 321.767Z" fill="#263238"/>
<path d="M378.63 337.559C378.63 337.781 379.034 337.781 379.025 337.559C379.082 331.521 379.025 325.464 379.121 319.398C380.671 316.278 383.984 314.583 386.295 312.05C387.956 310.227 389.401 308.217 390.6 306.06C393.377 300.903 395.078 295.236 395.597 289.401C396.233 282.949 393.777 261.648 391.062 262.38C389.646 262.765 385.082 273.32 383.868 276.825C381.905 282.579 380.468 288.5 379.574 294.514C377.368 308.68 377.551 323.269 378.63 337.559Z" fill="#F25E3D"/>
<path d="M378.591 311.521C378.928 303.884 380.642 296.171 382.26 288.756C383.994 280.783 386.025 273.272 390.128 266.146C390.205 266.02 390.397 266.146 390.33 266.271C387.592 271.798 385.473 277.611 384.013 283.604C384.282 283.171 384.619 282.766 384.908 282.362C385.014 282.198 385.284 282.362 385.168 282.516C384.801 283.16 384.372 283.766 383.888 284.326H383.83C382.424 290.027 381.403 295.882 380.537 301.66C380.604 301.592 380.662 301.506 380.729 301.438C380.739 301.432 380.751 301.428 380.763 301.429C380.776 301.429 380.787 301.433 380.797 301.441C380.806 301.448 380.813 301.459 380.817 301.47C380.82 301.482 380.82 301.494 380.816 301.506C380.707 301.698 380.591 301.891 380.469 302.084C380.036 305.04 379.631 307.987 379.217 310.904C384.485 306.407 388.972 301.111 391.505 294.534C391.505 294.534 391.572 294.534 391.553 294.534C389.078 301.275 385.159 307.322 379.14 311.434C379.025 312.214 378.919 313.004 378.803 313.793C378.803 313.947 378.524 313.909 378.524 313.793C378.524 313.09 378.524 312.397 378.591 311.704C378.573 311.677 378.563 311.645 378.563 311.612C378.563 311.58 378.573 311.548 378.591 311.521Z" fill="#263238"/>
<path d="M381.066 300.446C385.168 294.619 388.754 288.445 391.784 281.996C391.784 281.919 391.938 281.996 391.909 281.996C389.434 288.582 385.958 295.265 381.269 300.552C381.172 300.716 380.98 300.581 381.066 300.446Z" fill="#263238"/>
<path d="M386.411 280.522C388.077 277.576 389.829 274.745 391.399 271.702C391.399 271.615 391.553 271.702 391.515 271.779C390.245 274.911 388.63 277.892 386.7 280.667C386.555 280.821 386.314 280.686 386.411 280.522Z" fill="#263238"/>
<path d="M374.547 320.101C374.463 324.101 373.989 328.084 373.131 331.993C373.199 332.427 373.257 332.86 373.324 333.303C374.554 328.982 375.268 324.531 375.452 320.043C375.488 319.98 375.506 319.908 375.506 319.836C375.506 319.763 375.488 319.692 375.452 319.629C375.622 313.612 375.174 307.594 374.114 301.669C372.245 290.576 368.162 279.935 360.43 271.615C360.366 271.559 360.289 271.519 360.207 271.498C360.125 271.477 360.039 271.475 359.956 271.493C359.873 271.511 359.795 271.548 359.728 271.6C359.662 271.653 359.609 271.721 359.573 271.798C356.453 279.733 357.541 289.199 360.199 297.124C361.655 301.399 363.728 305.438 366.352 309.113C369.01 312.869 372.39 316.027 374.547 320.101Z" fill="#F25E3D"/>
<path d="M361.364 275.323C368.692 287.225 373.796 301.323 374.422 315.382C374.422 315.633 374.008 315.7 373.979 315.45C373.805 314.178 373.603 312.927 373.401 311.684C370.367 308.795 367.257 305.714 365.081 302.055C365.081 301.987 365.139 301.91 365.187 301.968C367.705 305.055 370.402 307.991 373.266 310.76C372.746 307.659 372.104 304.6 371.34 301.583C371.138 301.361 370.945 301.13 370.753 300.899C370.56 300.668 370.839 300.533 370.974 300.687L371.147 300.88C370.11 296.749 368.824 292.684 367.296 288.708C365.427 286.483 363.347 284.558 361.99 281.88C361.99 281.813 362.038 281.765 362.086 281.823C363.174 283.354 364.233 284.895 365.476 286.32C365.967 286.888 366.506 287.418 367.026 287.976C365.334 283.661 363.325 279.477 361.017 275.457C360.999 275.412 361 275.36 361.02 275.315C361.04 275.27 361.077 275.235 361.123 275.217C361.169 275.199 361.22 275.2 361.265 275.22C361.31 275.24 361.346 275.277 361.364 275.323Z" fill="#263238"/>
<path d="M362.847 289.998C365.216 293.186 367.912 296.229 370.117 299.532C370.133 299.552 370.139 299.578 370.136 299.603C370.132 299.628 370.118 299.651 370.098 299.667C370.078 299.682 370.052 299.688 370.027 299.685C370.001 299.681 369.979 299.668 369.963 299.647C367.151 296.777 364.705 293.568 362.683 290.095C362.616 289.989 362.77 289.912 362.847 289.998Z" fill="#263238"/>
<path d="M370.445 300.263L370.551 300.369C370.618 300.437 370.551 300.552 370.445 300.475L370.339 300.379C370.271 300.302 370.387 300.196 370.445 300.263Z" fill="#263238"/>
<path d="M349.876 298.193C350.726 304.837 353.392 311.117 357.579 316.345C359.308 318.399 361.446 320.068 363.858 321.247C366.573 322.585 369.414 324.135 372.226 325.243C373.568 328.643 374.565 332.169 375.202 335.768C375.298 335.47 375.385 335.142 375.471 334.805C373.671 319.301 363.636 306.051 350.81 297.548C350.707 297.483 350.588 297.449 350.467 297.452C350.346 297.454 350.228 297.492 350.129 297.561C350.029 297.63 349.952 297.726 349.907 297.839C349.862 297.951 349.851 298.074 349.876 298.193Z" fill="#F25E3D"/>
<path d="M354.305 302.777C354.219 302.7 354.305 302.536 354.44 302.603C361.5 307.843 367.13 314.774 370.811 322.758C370.835 322.8 370.841 322.85 370.829 322.897C370.816 322.944 370.785 322.984 370.743 323.009C370.701 323.033 370.651 323.039 370.604 323.027C370.557 323.014 370.517 322.983 370.493 322.941C369.896 321.892 369.289 320.88 368.673 319.879C365.784 319.33 362.972 317.269 360.796 315.315C360.79 315.309 360.786 315.302 360.782 315.295C360.779 315.287 360.778 315.279 360.778 315.271C360.778 315.263 360.779 315.255 360.782 315.248C360.786 315.24 360.79 315.234 360.796 315.228C360.801 315.222 360.808 315.218 360.816 315.215C360.823 315.211 360.831 315.21 360.839 315.21C360.847 315.21 360.855 315.211 360.862 315.215C360.87 315.218 360.877 315.222 360.882 315.228C362.002 316.25 363.248 317.123 364.59 317.828C365.803 318.381 367.044 318.873 368.307 319.301C367.228 317.577 366.092 315.931 364.917 314.323C361.754 313.124 358.787 311.459 356.116 309.383C356.029 309.315 356.116 309.18 356.193 309.238C358.842 310.838 361.575 312.298 364.378 313.61C362.59 311.248 360.661 308.997 358.6 306.869C357.637 306.34 356.597 305.81 355.634 305.251C355.548 305.203 355.634 305.069 355.692 305.097C356.494 305.383 357.26 305.761 357.974 306.224C356.78 305.059 355.586 303.903 354.305 302.777Z" fill="#263238"/>
<path d="M354.575 308.15C354.751 308.251 354.919 308.367 355.076 308.497C355.076 308.545 355.076 308.603 355.008 308.583C354.831 308.497 354.66 308.397 354.498 308.285C354.411 308.217 354.488 308.073 354.575 308.15Z" fill="#263238"/>
<path d="M395.52 369.337H360.362L363.203 337.328L363.819 330.26H392.054L392.68 337.328L395.52 369.337Z" fill="#455A64"/>
<path d="M392.68 337.328H363.203L363.819 330.26H392.054L392.68 337.328Z" fill="#263238"/>
<path d="M393.739 325.33H362.144V332.321H393.739V325.33Z" fill="#455A64"/>
<path d="M243.284 377.937V393.98L175.857 401.471V385.438L243.284 377.937Z" fill="#C7C7C7"/>
<path d="M243.275 353.689V377.936L175.867 385.438C163.772 372.698 184.148 359.014 221.396 354.873C228.66 354.057 235.965 353.661 243.275 353.689Z" fill="#DBDBDB"/>
<path d="M172.371 393.97V377.937C172.371 380.421 173.488 382.944 175.857 385.438V401.471C173.488 398.977 172.371 396.454 172.371 393.97Z" fill="#A6A6A6"/>
<path d="M241.512 363.684C238.624 364.755 235.664 365.621 232.653 366.275C232.075 363.54 229.716 361.209 226.413 359.755C224.478 358.863 222.378 358.384 220.247 358.349C218.117 358.314 216.002 358.724 214.039 359.553C211.689 360.661 211.092 362.509 212.479 364.262C214.54 366.833 221.078 369.019 231.815 366.91C232.201 369.472 230.978 372.351 227.424 375.182C225.617 376.591 223.66 377.796 221.589 378.774C219.21 378.319 216.781 378.187 214.366 378.379C209.041 378.658 202.474 380.026 201.203 381.634C200.894 382.019 200.885 382.356 201.203 382.597L202.493 382.453C201.954 382.241 201.79 381.952 202.069 381.595C202.878 380.575 208.29 379.159 214.058 378.87C216.247 378.729 218.445 378.845 220.606 379.217C219.072 379.896 217.496 380.479 215.888 380.96L217.987 380.729C219.104 380.334 220.212 379.881 221.329 379.381C222.003 379.542 222.652 379.798 223.255 380.141L224.506 380.007C223.861 379.505 223.121 379.138 222.33 378.928C224.401 377.924 226.36 376.703 228.175 375.288C231.863 372.341 233.173 369.347 232.807 366.698C235.86 366.026 238.862 365.141 241.792 364.05C242.321 363.858 242.851 363.655 243.352 363.453V363.039C242.716 363.232 242.119 363.463 241.512 363.684ZM213.365 363.896C212.152 362.365 212.575 360.757 214.405 359.881C217.525 358.398 221.829 358.532 225.652 360.218C228.84 361.624 231.132 363.848 231.729 366.467C221.521 368.422 215.349 366.342 213.365 363.896ZM205.449 367.748C203.523 365.081 197.11 362.558 186.277 364.127C186.267 363.944 186.267 363.761 186.277 363.578C185.968 363.713 185.68 363.858 185.381 364.002C185.371 364.092 185.371 364.182 185.381 364.272L184.534 364.416C184.071 364.657 183.571 364.898 183.176 365.138C183.946 364.975 184.697 364.84 185.429 364.724C185.872 367.488 188.116 369.924 191.342 371.542C193.228 372.533 195.301 373.118 197.427 373.261C199.553 373.403 201.685 373.1 203.687 372.37C206.037 371.34 206.759 369.52 205.449 367.709V367.748ZM203.302 372.024C200.124 373.352 195.829 372.987 192.083 371.128C188.982 369.568 186.806 367.218 186.305 364.58C196.59 363.135 202.676 365.543 204.515 368.075C205.719 369.616 205.189 371.205 203.302 371.985V372.024Z" fill="#C7C7C7"/>
<path d="M209.436 395.713L187.538 418.776C165.187 416.292 149.279 410.841 142.009 403.205L209.436 395.713Z" fill="#455A64"/>
<path d="M199.941 402.348C197.108 400.381 193.999 398.846 190.716 397.793L189.666 397.909C193.069 398.932 196.291 400.478 199.219 402.492C200.49 403.455 200.846 404.216 200.182 404.418C198.959 404.832 193.643 403.08 188.626 400.2C187.63 399.627 186.666 399 185.737 398.323L184.88 398.419C185.776 399.054 186.806 399.738 188.068 400.441C192.584 403.051 198.66 405.41 200.75 404.89C200.794 404.9 200.84 404.9 200.885 404.89C201.318 404.746 201.52 404.495 201.472 404.158C201.424 403.821 200.904 403.08 199.941 402.348ZM167.2 400.614C167.232 400.542 167.267 400.471 167.306 400.403L165.813 400.566L166.15 400.692C165.187 403.301 165.871 406.537 167.845 409.551C168.982 411.351 170.483 412.894 172.25 414.081C174.018 415.269 176.014 416.074 178.111 416.446C180.691 416.792 182.203 415.569 181.962 413.345C181.645 410.071 177.311 404.678 167.142 400.595L167.2 400.614ZM177.985 416.022C174.576 415.579 171.023 413.133 168.722 409.618C166.796 406.729 166.112 403.6 167.027 401.086C176.656 404.986 180.739 410.109 181.048 413.22C181.182 415.117 179.95 416.243 177.928 416.003L177.985 416.022Z" fill="#37474F"/>
<path d="M209.436 395.713V411.746L187.538 434.809V418.776L209.436 395.713Z" fill="#263238"/>
<path d="M187.538 418.776V434.809C165.187 432.325 149.279 426.884 142.009 419.238V403.205C149.279 410.841 165.187 416.291 187.538 418.776Z" fill="#37474F"/>
<path d="M243.274 377.937V402.184C235.958 402.213 228.647 401.817 221.376 401L243.274 377.937Z" fill="#EBEBEB"/>
<path d="M240.164 388.23C241.197 388.122 242.236 388.071 243.275 388.076V387.585C242.07 387.547 240.863 387.585 239.663 387.701C234.964 388.163 232.249 389.973 231.112 392.4C230.727 392.256 230.323 392.102 229.918 391.967L229.591 392.313L230.939 392.814C229.976 395.424 230.66 398.659 232.624 401.683L232.788 401.895L233.683 401.943L233.52 401.702C231.594 398.813 230.9 395.684 231.815 393.161C237.372 395.414 241.089 398.072 243.275 400.518V399.632C239.996 396.627 236.162 394.292 231.989 392.756C233.067 390.426 235.648 388.664 240.164 388.23Z" fill="#DBDBDB"/>
<path d="M243.274 402.184V418.227C235.958 418.256 228.647 417.86 221.376 417.043V401C228.647 401.817 235.958 402.213 243.274 402.184Z" fill="#DBDBDB"/>
<path d="M243.274 353.689C274.609 353.689 301.053 360.256 310.682 370.445L243.274 377.937V353.689Z" fill="#37474F"/>
<path d="M264.383 375.558C263.04 375.437 261.706 375.237 260.387 374.961C258.784 373.148 256.94 371.564 254.907 370.252C250.998 367.575 245.807 364.985 243.284 364.792V365.312C244.777 365.177 249.727 367.296 254.301 370.445C256.13 371.664 257.807 373.096 259.298 374.711C252.365 373.045 246.298 369.53 243.891 367.354C243.641 367.122 243.429 366.911 243.255 366.718V367.536C245.884 369.867 252.384 373.584 259.741 375.24C259.927 375.475 260.101 375.719 260.261 375.972L261.07 375.885C260.984 375.751 260.897 375.616 260.791 375.471C261.301 375.577 261.754 375.664 262.322 375.741L264.383 375.558ZM276.786 371.764C277.99 369.241 277.527 365.986 275.823 362.789C274.831 360.901 273.457 359.241 271.787 357.914C270.117 356.588 268.189 355.624 266.126 355.085C263.593 354.546 261.985 355.644 262.033 357.878C262.091 361.162 265.953 366.882 275.765 371.735C275 373.051 273.812 374.069 272.395 374.624L274.446 374.393C275.341 373.822 276.085 373.042 276.613 372.12C277.787 372.672 279.039 373.212 280.368 373.738L281.331 373.632C279.681 373.074 278.166 372.464 276.786 371.802V371.764ZM275.929 371.35C266.636 366.699 262.967 361.268 262.919 358.138C262.919 356.212 264.19 355.162 266.193 355.596C269.554 356.308 272.934 359.033 274.918 362.702C276.574 365.784 277.046 368.942 275.929 371.388V371.35ZM306.946 367.19L306.108 366.612C305.765 368.03 305.677 369.497 305.848 370.945L306.715 370.849C306.603 369.637 306.681 368.416 306.946 367.228V367.19Z" fill="#455A64"/>
<path d="M310.711 370.444V386.478L243.284 393.979V377.936L310.711 370.444Z" fill="#263238"/>
<path d="M314.207 377.946V393.98C314.207 404.206 295.15 413.711 265.201 417.043C257.921 417.861 250.6 418.256 243.274 418.227V402.184C250.597 402.213 257.915 401.818 265.192 401C295.15 397.706 314.207 388.173 314.207 377.946Z" fill="#F25E3D"/>
<g opacity="0.1">
<path opacity="0.1" d="M314.207 377.946V393.98C314.207 404.206 295.15 413.711 265.201 417.043C257.921 417.861 250.6 418.256 243.274 418.227V402.184C250.597 402.213 257.915 401.818 265.192 401C295.15 397.706 314.207 388.173 314.207 377.946Z" fill="black"/>
</g>
<path d="M310.682 370.444C322.796 383.184 302.401 396.868 265.172 400.999C257.902 401.816 250.59 402.212 243.274 402.184V377.936L310.682 370.444Z" fill="#F25E3D"/>
<path opacity="0.1" d="M299.127 374.884C304.264 374.856 309.364 375.759 314.178 377.551C314.178 377.359 314.178 377.176 314.178 376.993C309.168 375.235 303.887 374.371 298.578 374.441C297.717 373.833 297.049 372.991 296.652 372.014L295.757 372.11C296.118 373.05 296.735 373.871 297.538 374.479C295.238 374.565 292.955 374.904 290.73 375.49C286.165 376.713 283.777 378.948 283.026 381.528C279.961 380.919 276.855 380.532 273.734 380.373C264.191 379.824 256.67 381.23 251.142 383.512C249.081 381.21 246.622 379.298 243.881 377.869L243.304 377.936V378.177C246.024 379.585 248.454 381.493 250.468 383.801C247.831 384.911 245.406 386.472 243.304 388.414V389.569C245.428 387.3 248.003 385.5 250.863 384.282C254.272 388.491 255.524 393.248 254.301 396.666C253.665 398.428 251.797 401.279 246.289 400.518C245.244 400.379 244.233 400.053 243.304 399.555V400.152C244.209 400.531 245.161 400.787 246.135 400.913L246.896 401C251.133 401.385 254.147 399.863 255.254 396.772C256.506 393.238 255.158 388.298 251.547 383.955C256.939 381.663 264.354 380.248 273.762 380.787C276.839 380.947 279.899 381.33 282.92 381.933C282.371 384.677 283.604 387.711 286.05 390.397C288.071 392.601 290.66 394.207 293.532 395.039L294.303 394.769C291.461 394.02 288.898 392.461 286.926 390.282C284.567 387.73 283.354 384.773 283.854 382.135C293.985 384.398 298.857 388.789 299.666 391.813C299.741 392.06 299.78 392.316 299.782 392.574L300.697 392.159C300.697 392.054 300.649 391.938 300.61 391.822C299.763 388.645 294.64 384.032 283.951 381.692C284.615 379.188 286.84 377.031 291.269 375.856C293.488 375.277 295.766 374.954 298.058 374.893C300.056 376.26 302.229 377.348 304.52 378.129C307.524 379.257 310.639 380.064 313.812 380.536C313.812 380.402 313.899 380.257 313.928 380.113C310.894 379.664 307.917 378.889 305.049 377.802C302.971 377.057 300.984 376.078 299.127 374.884Z" fill="black"/>
<path d="M300.889 122.846H292.203V215.589H300.889V122.846Z" fill="black"/>
<path d="M292.203 122.846C261.956 122.846 236.12 136.212 218.334 161.066L292.203 215.589V122.846Z" fill="#263238"/>
<path d="M285.472 123.067C285.164 123.067 284.875 123.067 284.567 123.135C287.186 127.651 288.814 132.678 287.986 137.772C287.283 142.173 283.017 144.426 279.569 145.543C276.023 146.595 272.348 147.146 268.649 147.18C267.33 144.143 265.621 141.291 263.565 138.696C261.129 135.599 258.311 132.823 255.177 130.434C254.898 130.55 254.609 130.684 254.33 130.829C260.077 135.087 264.669 140.714 267.686 147.199C257.45 147.286 245.692 144.744 238.036 140.603L237.295 141.162C245.201 145.601 257.411 148.259 268.062 148.066C270.428 153.528 270.959 159.61 269.574 165.399C268.901 168.182 267.855 170.861 266.463 173.363C262.838 172.268 259.059 171.771 255.274 171.89C248.465 172.111 243.179 174.297 240.762 177.668L241.416 178.149C243.67 175.01 248.745 172.959 255.312 172.737C258.955 172.585 262.599 173.014 266.107 174.008C262.912 179.629 257.645 183.777 251.431 185.564L252.25 186.171C258.466 184.203 263.706 179.954 266.916 174.278C276.921 177.523 282.42 185.4 283.44 192.989C284.112 197.867 283.093 202.829 280.551 207.048L281.197 207.52C282.733 204.981 283.752 202.164 284.196 199.23C284.641 196.297 284.501 193.304 283.785 190.425C283.069 187.545 281.791 184.835 280.025 182.451C278.259 180.067 276.039 178.055 273.493 176.531C271.536 175.328 269.445 174.359 267.263 173.643C268.645 171.116 269.691 168.419 270.373 165.621C271.78 159.768 271.298 153.619 268.996 148.056C272.68 147.991 276.337 147.424 279.868 146.371C285.135 144.676 288.236 141.768 288.852 137.955C289.623 132.822 288.13 127.757 285.472 123.067Z" fill="#37474F"/>
<path d="M292.29 317.943H300.957C320.261 317.942 339.054 311.729 354.556 300.225H345.889C330.387 311.729 311.595 317.942 292.29 317.943Z" fill="#DBDBDB"/>
<path d="M292.203 225.219L218.334 279.713C225.277 289.543 234.113 297.886 244.324 304.255C254.535 310.623 265.916 314.888 277.797 316.798C289.679 318.709 301.822 318.227 313.515 315.381C325.208 312.535 336.214 307.382 345.889 300.224L292.203 225.219Z" fill="#EBEBEB"/>
<path d="M302.527 239.634L301.804 238.671C296.522 237.919 291.143 239.047 286.609 241.859C284.615 243.076 282.764 244.513 281.091 246.144C279.458 243.713 277.516 241.505 275.313 239.577C274.918 239.22 274.514 238.883 274.09 238.614L273.377 239.134C273.84 239.49 274.34 239.865 274.755 240.26C276.967 242.169 278.911 244.368 280.532 246.799C277.848 249.566 275.631 252.75 273.965 256.226C269.93 264.672 270.402 272.279 275.149 275.168C277.557 276.622 280.301 275.707 282.506 272.712C286.358 267.474 287.812 256.756 281.543 246.799C287.928 240.424 295.815 238.508 302.527 239.634ZM281.794 272.163C279.868 274.773 277.547 275.611 275.554 274.398C271.192 271.749 270.845 264.566 274.687 256.544C276.249 253.172 278.343 250.074 280.889 247.367C286.859 256.949 285.501 267.137 281.794 272.163ZM320.756 265.114C320.622 265.598 320.425 266.061 320.168 266.492C320.037 266.769 319.82 266.996 319.549 267.14C319.279 267.284 318.969 267.337 318.666 267.291C317.953 267.137 317.135 265.124 317.491 261.869C317.491 261.6 317.578 261.224 317.655 260.771L316.99 259.809C316.841 260.443 316.728 261.086 316.653 261.734C316.278 265.105 317.048 267.763 318.493 268.061C319.735 268.312 320.756 267.522 321.381 265.894L320.756 265.114ZM306.398 259.452C302.96 259.115 300.061 260.733 297.818 264.267C292.675 272.327 291.905 289.092 295.121 302.362C290.208 305.927 284.271 307.803 278.202 307.707C275.285 307.646 272.39 307.196 269.593 306.368C269.902 302.525 269.576 298.656 268.63 294.918C266.309 285.857 261.061 280.32 255.572 281.158C252.789 281.581 251.258 284.046 251.499 287.763C251.913 294.254 257.662 303.412 268.88 307.023C268.645 309.553 268.051 312.036 267.118 314.399L267.889 314.621L268.091 314.062C268.842 311.85 269.336 309.559 269.564 307.235C272.381 308.059 275.296 308.506 278.231 308.564C284.35 308.67 290.346 306.84 295.362 303.335C296.247 306.964 297.62 310.456 299.445 313.716C300.211 315.071 301.143 316.326 302.218 317.452L303.278 317.317C302.061 316.125 301.014 314.77 300.167 313.292C298.335 310 296.977 306.467 296.132 302.795C298.857 300.812 301.313 298.485 303.441 295.872C309.219 288.832 313.071 279.626 313.591 271.797C314.044 264.537 311.347 259.934 306.407 259.452H306.398ZM268.919 306.127C258.201 302.612 252.703 293.927 252.308 287.696C252.105 284.461 253.357 282.323 255.659 281.966C260.705 281.206 265.577 286.483 267.792 295.101C268.75 298.694 269.13 302.415 268.919 306.127ZM312.763 271.72C312.147 281.668 305.83 294.447 295.901 301.794C292.897 288.794 293.638 272.366 298.54 264.7C300.601 261.474 303.22 259.991 306.321 260.29C310.827 260.723 313.177 264.893 312.763 271.72ZM338.657 290.132C336.768 294.663 334.497 299.025 331.868 303.171C329.901 306.231 327.643 309.094 325.127 311.722C325.753 311.481 326.379 311.221 326.996 310.971C332.773 304.519 336.972 296.324 339.245 290.98L338.657 290.132Z" fill="#DBDBDB"/>
<path d="M345.889 300.224H354.575L300.889 225.219H292.203L345.889 300.224Z" fill="#C7C7C7"/>
<path d="M345.889 290.595H354.555C395.366 260.492 404.408 202.493 374.778 161.066C369.235 153.143 362.399 146.209 354.555 140.555H345.889C353.729 146.213 360.565 153.146 366.111 161.066C395.751 202.493 386.757 260.492 345.889 290.595Z" fill="#37474F"/>
<path d="M345.889 140.593L292.203 215.628L345.889 290.633C386.709 260.531 395.751 202.531 366.111 161.104C360.565 153.184 353.729 146.251 345.889 140.593Z" fill="#455A64"/>
<path d="M378.148 247.011C378.264 246.684 378.379 246.356 378.475 246.048C368.749 239.953 350.858 237.218 335.931 238.884C332.403 232.483 331.051 225.108 332.08 217.872C332.592 214.398 333.564 211.008 334.969 207.789C339.522 208.718 344.196 208.897 348.806 208.319C359.986 206.913 367.392 201.492 367.228 194.837C367.151 191.457 364.426 189.262 359.958 188.973C352.138 188.472 340.332 193.971 334.323 206.817C322.431 204.14 314.977 195.955 312.425 187.336L311.674 188.366C312.819 191.943 314.69 195.244 317.171 198.063C319.651 200.882 322.688 203.157 326.09 204.746C328.617 205.974 331.276 206.911 334.015 207.539C332.613 210.778 331.642 214.187 331.126 217.679C330.061 224.991 331.342 232.452 334.786 238.99C330.31 239.494 325.923 240.606 321.747 242.293C319.088 243.341 316.682 244.943 314.688 246.992L315.295 247.83C317.22 245.819 319.555 244.245 322.142 243.217C326.36 241.531 330.795 240.445 335.315 239.991C337.268 243.548 339.67 246.839 342.46 249.784C349.866 257.633 360.073 263.613 369.221 265.471L369.78 264.556C358.003 262.303 343.732 252.827 336.471 239.866C351.127 238.373 368.855 241.108 378.148 247.011ZM359.938 189.917C363.79 190.167 366.198 191.987 366.265 194.799C366.419 200.933 359.37 205.96 348.729 207.318C344.291 207.92 339.786 207.809 335.383 206.99C341.218 194.693 352.437 189.435 359.938 189.917Z" fill="#37474F"/>
<path d="M289.035 106.071V198.814L342.721 123.78C326.408 111.704 309.219 106.071 289.035 106.071Z" fill="#DBDBDB"/>
<path d="M342.721 123.78H351.387C335.075 111.743 317.876 106.071 297.692 106.071H289.025C309.219 106.071 326.408 111.704 342.721 123.78Z" fill="#C7C7C7"/>
<path d="M335.845 119.119L334.978 118.599C335.109 120.113 335.038 121.639 334.767 123.134C333.958 127.554 329.634 129.731 326.148 130.78C322.558 131.769 318.846 132.249 315.122 132.206C313.86 129.114 312.199 126.2 310.182 123.539C304.78 116.355 296.854 110.471 289.469 108.189L289.035 108.064V108.94H289.228C298.626 111.829 309.45 120.891 314.149 132.119C305.543 131.986 297.032 130.286 289.035 127.102V128.065C297.151 131.3 305.798 133.001 314.535 133.082C316.811 138.623 317.227 144.753 315.719 150.55C314.984 153.333 313.879 156.005 312.435 158.495C308.808 157.327 305.017 156.752 301.207 156.79C296.18 156.858 291.943 158.004 289.064 159.91V160.873C291.799 158.861 296.055 157.647 301.217 157.58C304.887 157.497 308.548 158.001 312.06 159.072C306.195 168.529 296.566 171.784 290.499 170.715C290.011 170.634 289.531 170.511 289.064 170.349V171.215C289.485 171.354 289.917 171.46 290.354 171.533C296.681 172.65 306.802 169.261 312.869 159.342C314.027 159.739 315.156 160.215 316.249 160.767L316.682 160.189C315.561 159.632 314.407 159.147 313.225 158.735C314.671 156.225 315.778 153.534 316.518 150.733C318.046 144.885 317.688 138.705 315.498 133.072C319.188 133.071 322.862 132.568 326.418 131.58C331.743 129.972 334.921 127.111 335.614 123.288C335.854 121.912 335.931 120.513 335.845 119.119Z" fill="#C7C7C7"/>
<path d="M289.035 198.814H297.712L351.407 123.78H342.721L289.035 198.814Z" fill="#A6A6A6"/>
<path d="M70.7012 264.951V265.124L77.2686 293.705L78.0486 297.095L94.525 369.183H105.772C105.772 369.366 105.772 369.568 105.772 369.751C105.772 369.549 105.772 369.366 105.772 369.183H168.78L142.712 266.742L142.548 266.116L142.269 264.97L70.7012 264.951Z" fill="#37474F"/>
<path d="M97.7218 264.961L123.934 369.183H94.5247L70.749 265.125L97.7218 264.961Z" fill="#263238"/>
<path d="M34.3105 369.183H105.763C105.763 369.366 105.763 369.568 105.763 369.751C105.763 369.549 105.763 369.366 105.763 369.183C105.811 368.076 105.849 366.997 105.888 365.938C105.936 364.551 105.994 363.136 106.052 361.739C106.052 361.21 106.052 360.699 106.119 360.179C106.119 359.852 106.119 359.524 106.119 359.216C106.119 358.908 106.119 358.34 106.177 357.897C106.235 357.454 106.177 356.838 106.244 356.337C106.312 355.836 106.244 355.287 106.292 354.777C106.292 354.556 106.292 354.334 106.292 354.122C106.341 353.207 106.379 352.35 106.408 351.532C106.408 351.137 106.408 350.761 106.456 350.395C106.456 350.232 106.456 350.078 106.456 349.914V349.779C106.456 349.606 106.456 349.433 106.456 349.278C106.456 349.124 106.456 349.086 106.456 348.99C106.456 348.566 106.456 348.171 106.504 347.795C106.499 347.699 106.499 347.603 106.504 347.507C106.504 347.353 106.504 347.208 106.504 347.064C106.504 346.573 106.504 346.101 106.562 345.715C106.62 345.33 106.562 345.205 106.562 344.984C106.562 344.762 106.562 344.31 106.562 344.021C106.557 343.924 106.557 343.828 106.562 343.732C106.557 343.639 106.557 343.546 106.562 343.452C106.562 343.183 106.562 343.038 106.562 343.038C106.758 342.912 106.96 342.796 107.169 342.692L107.978 342.23C107.978 342.23 107.978 342.23 108.035 342.23H108.093L108.844 341.767L112.099 339.938L113.13 339.379C113.804 339.013 114.458 338.676 115.055 338.358C116.327 337.694 117.511 337.097 118.609 336.558L120.188 335.807L120.92 335.46L121.074 335.383L121.844 335.027C122.422 334.757 122.971 334.526 123.462 334.304L124.358 333.929C125.253 333.553 125.947 333.284 126.428 333.101C126.515 333.052 126.611 333.033 126.688 332.995L126.939 332.908C127.012 332.87 127.089 332.841 127.17 332.821H127.276C127.362 332.59 127.439 332.349 127.526 332.109C127.613 331.868 127.709 331.618 127.786 331.367C128.046 330.606 128.296 329.846 128.547 329.066C128.797 328.286 129.124 327.226 129.394 326.292C129.587 325.657 129.77 325.021 129.953 324.366C130.136 323.712 130.299 323.172 130.463 322.575C131.224 319.85 131.917 317.058 132.562 314.265C132.697 313.706 132.822 313.138 132.938 312.58C133.053 312.021 133.236 311.26 133.371 310.596C133.65 309.306 133.91 308.025 134.161 306.744C134.267 306.263 134.363 305.781 134.459 305.319C135.066 302.112 135.615 298.963 136.106 295.92C136.154 295.622 136.193 295.314 136.241 295.015L136.616 292.55C136.722 291.828 136.838 291.115 136.934 290.393C137.165 288.727 137.396 287.1 137.599 285.52C137.647 285.145 137.695 284.779 137.733 284.413C137.878 283.286 138.013 282.179 138.138 281.1C138.205 280.561 138.263 280.031 138.321 279.511C138.379 278.991 138.427 278.654 138.465 278.231C138.504 277.807 138.542 277.605 138.571 277.268C138.566 277.191 138.566 277.113 138.571 277.037C138.629 276.517 138.687 275.997 138.735 275.505C138.879 274.032 139.014 272.684 139.12 271.49C139.197 270.768 139.245 270.103 139.293 269.496C139.288 269.471 139.288 269.445 139.293 269.419C139.399 268.254 139.467 267.282 139.525 266.531C139.525 266.039 139.592 265.664 139.602 265.394C139.611 265.125 139.602 265.076 139.602 265.028H85.1168H42.4476C42.4476 265.028 42.178 268.456 41.6869 274.485C41.6869 275.091 41.6002 275.727 41.5521 276.411C41.2728 279.954 40.9358 284.211 40.5891 289.074C40.5313 289.728 40.4735 290.422 40.4158 291.105C40.236 293.558 40.0306 296.155 39.7995 298.896C39.6839 300.504 39.5491 302.151 39.4239 303.826C39.3661 304.452 39.318 305.069 39.2698 305.694C38.9809 309.386 38.6824 313.238 38.3743 317.25C37.5461 327.795 36.6602 339.312 35.7357 351.224C35.7357 351.407 35.7357 351.59 35.7357 351.773C35.5143 354.816 35.2735 357.897 35.0424 360.979C34.7439 363.656 34.5417 366.419 34.3105 369.183Z" fill="#D3766A"/>
<path d="M31.0171 369.183H105.772C105.772 368.123 105.859 367.035 105.907 365.937C105.955 364.551 106.013 363.135 106.071 361.739C106.158 359.322 106.254 356.924 106.34 354.748C106.34 354.526 106.34 354.305 106.34 354.093C106.398 352.581 106.456 351.204 106.514 349.885V349.75C106.514 349.037 106.572 348.383 106.601 347.766C106.595 347.67 106.595 347.574 106.601 347.477C106.601 346.514 106.668 345.638 106.697 344.954C106.697 344.598 106.697 344.28 106.697 343.991C106.692 343.895 106.692 343.799 106.697 343.703C106.691 343.61 106.691 343.516 106.697 343.423C106.697 343.154 106.697 343.009 106.697 343.009C106.893 342.883 107.095 342.767 107.303 342.663L108.112 342.2L108.979 341.69L112.234 339.86C113.274 339.302 114.266 338.772 115.219 338.281C116.49 337.617 117.675 337.02 118.772 336.48L120.352 335.729L121.084 335.382C121.138 335.368 121.19 335.345 121.238 335.315L122.008 334.968L123.626 334.246L124.521 333.871C125.417 333.495 126.11 333.225 126.592 333.042C126.678 332.994 126.775 332.975 126.852 332.937L127.102 332.85C127.175 332.812 127.253 332.783 127.333 332.763H127.439C127.526 332.532 127.603 332.291 127.69 332.051C127.776 331.81 127.882 331.55 127.959 331.29C128.219 330.539 128.479 329.778 128.71 329.008C128.941 328.237 129.288 327.168 129.558 326.234C129.75 325.599 129.933 324.963 130.116 324.308C130.299 323.654 130.463 323.114 130.627 322.517C131.387 319.792 132.081 316.999 132.726 314.207C132.861 313.648 132.986 313.08 133.101 312.522C133.217 311.963 133.4 311.202 133.535 310.538C133.804 309.257 134.064 307.986 134.315 306.686C135.114 302.69 135.798 298.742 136.395 294.957L136.77 292.492C136.876 291.77 136.992 291.057 137.088 290.335C137.319 288.669 137.55 287.041 137.753 285.462C137.801 285.087 137.849 284.721 137.887 284.355C138.032 283.228 138.167 282.121 138.292 281.042C138.359 280.503 138.417 279.973 138.475 279.453C138.533 278.933 138.581 278.596 138.619 278.173C138.658 277.749 138.696 277.547 138.725 277.21C138.72 277.133 138.72 277.055 138.725 276.978C138.783 276.458 138.831 275.938 138.889 275.447C139.033 273.974 139.168 272.626 139.274 271.432C139.332 270.709 139.399 270.045 139.447 269.438C139.442 269.413 139.442 269.387 139.447 269.361C139.544 268.187 139.621 267.224 139.678 266.472C139.678 265.981 139.736 265.606 139.756 265.336C139.775 265.067 139.756 265.018 139.756 264.97H42.4475C42.4475 264.97 25.2008 291.153 33.7808 325.57C33.7615 325.551 32.1149 352.86 31.0171 369.183Z" fill="#37474F"/>
<path d="M97.77 346.784C101.054 344.502 104.597 342.586 108.074 340.621C111.55 338.657 115.248 336.683 118.955 334.959C126.256 331.741 133.765 329.016 141.431 326.803C141.624 326.745 141.758 327.053 141.566 327.14C134.238 330.289 127.121 333.88 119.841 337.126C116.172 338.753 112.475 340.313 108.796 341.94C105.117 343.568 101.545 345.398 97.847 346.938C97.827 346.946 97.805 346.945 97.7852 346.937C97.7654 346.93 97.7492 346.915 97.7396 346.896C97.7301 346.877 97.7279 346.855 97.7335 346.834C97.7391 346.814 97.7521 346.796 97.77 346.784Z" fill="#263238"/>
<path d="M117.829 310.904C117.916 307.312 118.166 303.72 118.349 300.129C118.763 291.645 119.09 283.123 119.88 274.668C119.892 274.606 119.925 274.55 119.973 274.511C120.021 274.471 120.082 274.449 120.145 274.449C120.207 274.449 120.268 274.471 120.317 274.511C120.365 274.55 120.398 274.606 120.41 274.668C120.516 281.225 120.265 287.803 120.13 294.36C120.063 297.634 119.967 300.918 119.88 304.202C119.699 307.332 119.676 310.468 119.813 313.6C119.986 315.969 120.506 320.563 123.597 320.852C126.486 321.112 128.094 317.963 128.816 315.68C130.665 309.845 131.32 303.537 131.917 297.461C132.264 293.869 132.62 290.287 132.88 286.676C133.201 282.991 133.32 279.29 133.236 275.592C133.236 275.361 133.583 275.371 133.602 275.592C133.795 279.3 135.605 319.985 125.292 323.105C124.952 323.187 124.602 323.223 124.252 323.211C124.252 323.972 124.117 324.742 124.059 325.493C123.982 326.678 123.828 327.862 123.674 329.037C123.507 330.198 123.263 331.346 122.942 332.475C122.699 333.621 122.294 334.727 121.738 335.758C121.642 335.922 121.421 335.826 121.401 335.662C121.378 334.525 121.474 333.389 121.69 332.272C121.844 331.117 122.008 329.952 122.239 328.815C122.47 327.679 122.682 326.562 122.913 325.435C123.067 324.684 123.173 323.914 123.318 323.143C122.416 322.988 121.568 322.611 120.848 322.046C120.129 321.481 119.561 320.747 119.196 319.908C117.858 317.173 117.752 313.928 117.829 310.904Z" fill="#263238"/>
<path d="M48.9477 300.504C53.1847 300.802 57.3737 301.351 61.63 300.851C65.6401 300.437 69.4618 298.939 72.6848 296.517C79.676 291.086 82.7479 282.208 84.6449 273.878C84.6449 273.84 84.6601 273.803 84.6872 273.776C84.7143 273.749 84.7511 273.733 84.7894 273.733C84.8277 273.733 84.8644 273.749 84.8915 273.776C84.9186 273.803 84.9338 273.84 84.9338 273.878C84.1442 281.11 82.5938 288.573 77.9234 294.389C75.918 296.951 73.3776 299.044 70.4797 300.523C67.4053 301.956 64.038 302.648 60.6477 302.545C56.6708 302.513 52.7139 301.979 48.8706 300.957C48.8298 300.93 48.7977 300.892 48.7782 300.847C48.7587 300.802 48.7527 300.753 48.7609 300.705C48.7691 300.657 48.7911 300.612 48.8243 300.577C48.8575 300.541 48.9003 300.516 48.9477 300.504Z" fill="#263238"/>
<path d="M105.772 369.183C105.772 369.366 105.772 369.568 105.772 369.751C105.772 369.549 105.772 369.366 105.772 369.183H106.138C106.504 363.55 107.352 346.524 107.41 342.682V342.095C107.41 341.95 106.803 342.162 106.774 342.316C106.745 342.47 106.774 342.643 106.716 342.875C106.331 346.553 105.387 359.727 105.156 364.127C105.079 365.803 104.992 367.498 104.944 369.183H105.772Z" fill="#263238"/>
<path d="M88.0827 83.7781C72.2803 97.3271 76.6811 117.087 70.0751 127.805C66.0403 134.363 52.8958 141.287 50.2861 148.836C45.9913 161.239 56.5069 165.698 54.138 172.439C50.8061 181.991 38.0083 181.25 35.7068 196.879C33.4053 212.508 50.6039 229.138 91.4145 233.645C132.225 238.152 154.662 223.206 156.126 209.937C157.59 196.667 144.031 192.305 143.126 182.396C142.529 176.069 150.916 171.668 151.34 160.016C151.764 148.364 140.41 144.609 138.821 134.69C137.233 124.772 142.423 100.765 127.892 88.4678C113.361 76.1707 95.8827 77.1336 88.0827 83.7781Z" fill="#263238"/>
<path d="M89.9124 84.173C85.4906 87.3098 81.8928 91.4692 79.4256 96.2967C76.8658 101.4 74.9075 106.784 73.5901 112.34C72.9032 115.66 71.8403 118.89 70.4219 121.969C69.0068 124.522 67.1519 126.804 64.9426 128.71C60.5226 132.707 55.2551 135.74 51.2877 140.266C47.5321 144.513 44.6143 150.204 46.1069 155.991C46.9255 159.14 48.9958 161.711 50.2958 164.658C51.5188 167.441 52.0099 170.898 49.6218 173.219C47.5803 175.193 44.624 176.108 42.3032 177.716C40.0187 179.309 38.0059 181.26 36.3424 183.494C34.6588 185.705 33.4552 188.243 32.8085 190.945C32.1618 193.648 32.0863 196.456 32.5868 199.19C34.9943 211.853 46.9062 219.056 57.9033 223.601C59.4376 224.243 60.9752 224.863 62.5159 225.46C62.7567 225.556 62.9589 225.219 62.7181 225.103C51.6729 220.163 38.8654 214.366 34.6283 201.992C33.6701 199.299 33.3454 196.421 33.6794 193.582C34.0134 190.743 34.9972 188.019 36.5543 185.622C38.0954 183.243 40.0526 181.162 42.3321 179.478C44.5566 177.841 47.1469 176.839 49.3714 175.279C50.4961 174.565 51.4107 173.564 52.0215 172.379C52.6323 171.195 52.9174 169.869 52.8477 168.539C52.7033 165.563 51.2492 162.963 49.8047 160.43C48.2832 157.753 46.9832 155.038 47.2047 151.879C47.5294 148.914 48.6582 146.094 50.4692 143.723C53.8973 138.86 58.9915 135.663 63.5463 131.984C68.1011 128.306 71.8086 124.001 73.4841 118.243C74.3315 115.354 74.8515 112.34 75.5834 109.393C76.2506 106.662 77.0638 103.968 78.0197 101.323C79.8368 96.0071 82.7948 91.1526 86.6864 87.1004C87.7163 86.0706 88.8452 85.1449 90.0568 84.3367C90.1628 84.2982 90.0472 84.0767 89.9124 84.173Z" fill="#263238"/>
<path d="M157.956 200.298C157.456 198.136 156.494 196.109 155.134 194.356C153.709 192.565 151.995 191.043 150.425 189.387C148.81 187.902 147.651 185.989 147.084 183.869C146.564 181.26 147.662 178.756 148.885 176.522C150.27 174.24 151.49 171.862 152.534 169.406C153.436 166.963 153.962 164.398 154.094 161.798C154.309 156.435 152.874 151.134 149.982 146.612C148.596 144.339 147.026 142.173 145.62 139.871C144.062 137.405 142.844 134.739 141.999 131.946C140.16 125.802 139.765 119.312 138.263 113.091C136.684 106.71 134.461 100.505 131.628 94.5733C131.561 94.4288 131.349 94.5733 131.416 94.7081C133.92 100.067 135.856 105.673 137.194 111.435C138.485 116.895 138.985 122.461 139.958 127.979C140.381 130.692 141.074 133.357 142.028 135.933C142.999 138.312 144.185 140.597 145.572 142.76C148.326 147.257 151.177 151.697 151.937 157.022C152.7 162.266 151.78 167.617 149.308 172.304C147.161 176.358 144.156 180.836 146.025 185.583C147.614 189.609 151.456 192.016 153.998 195.348C155.343 197.182 156.285 199.28 156.762 201.504C157.238 203.728 157.238 206.028 156.762 208.252C154.585 219.663 143.126 225.335 132.408 225.893C132.347 225.905 132.291 225.938 132.251 225.986C132.211 226.035 132.189 226.095 132.189 226.158C132.189 226.221 132.211 226.282 132.251 226.33C132.291 226.378 132.347 226.411 132.408 226.423C141.73 226.307 151.87 222.215 156.242 213.481C158.32 209.417 158.926 204.758 157.956 200.298Z" fill="#263238"/>
<path d="M108.035 171.822C120.4 194.192 154.999 234.415 173.517 236.62C191.236 238.758 230.332 193.739 234.3 182.242C235.956 177.427 197.707 159.323 197.707 159.323C191.736 166.786 167.065 191.91 164.619 190.928C159.804 189.002 128.383 164.927 116.557 159.766C97.4424 151.494 102.19 161.268 108.035 171.822Z" fill="#D3766A"/>
<path d="M126.235 205.247L138.754 171.264C138.754 171.264 123.674 161.076 114.535 156.608C102.431 150.705 97.4039 153.815 103.808 169.02C108.083 179.199 126.235 205.247 126.235 205.247Z" fill="#F25E3D"/>
<path d="M113.996 158.206C113.996 158.397 113.94 158.583 113.834 158.741C113.728 158.899 113.578 159.023 113.402 159.096C113.226 159.169 113.032 159.188 112.845 159.151C112.659 159.113 112.487 159.022 112.352 158.887C112.218 158.752 112.126 158.581 112.089 158.394C112.052 158.207 112.071 158.014 112.144 157.838C112.217 157.662 112.34 157.511 112.498 157.405C112.657 157.3 112.843 157.243 113.033 157.243C113.289 157.243 113.534 157.345 113.714 157.525C113.895 157.706 113.996 157.951 113.996 158.206ZM123.241 173.912C123.05 173.912 122.864 173.969 122.706 174.074C122.547 174.18 122.424 174.331 122.351 174.507C122.278 174.683 122.259 174.876 122.296 175.063C122.333 175.25 122.425 175.421 122.56 175.556C122.695 175.691 122.866 175.782 123.053 175.82C123.24 175.857 123.433 175.838 123.609 175.765C123.785 175.692 123.936 175.568 124.041 175.41C124.147 175.252 124.204 175.066 124.204 174.875C124.204 174.62 124.102 174.375 123.922 174.194C123.741 174.014 123.496 173.912 123.241 173.912Z" fill="white"/>
<path d="M124.281 200.615C125.764 195.541 127.314 190.504 129.096 185.526C129.982 183.041 130.906 180.573 131.869 178.121C132.832 175.675 134.036 173.306 134.96 170.85C135.008 170.715 135.23 170.85 135.172 170.937C134.122 173.344 133.39 175.915 132.466 178.381C131.542 180.846 130.607 183.321 129.741 185.853C127.959 190.803 126.159 195.752 124.493 200.75C124.444 200.837 124.242 200.75 124.281 200.615Z" fill="#263238"/>
<path opacity="0.1" d="M103.808 169.03C108.084 179.208 126.236 205.257 126.236 205.257L135.692 179.603L102.498 154.672C100.236 156.463 100.467 161.105 103.808 169.03Z" fill="black"/>
<path d="M142.259 264.961L136.77 227.694C136.77 227.694 148.018 213.683 141.662 199.931C138.446 192.979 120.824 166.921 109.952 157.079C97.1538 145.524 82.9885 153.603 77.1337 160.093C65.4336 173.093 51.952 205.035 42.4668 264.961H142.259Z" fill="#D3766A"/>
<path d="M143.608 254.647L136.771 227.684C136.771 227.684 148.018 213.673 141.662 199.922C138.446 192.969 120.824 166.911 109.952 157.07C97.154 145.514 81.4961 153.035 75.5835 159.468C65.1257 170.879 51.9523 194.731 42.4478 254.647H143.608Z" fill="#F25E3D"/>
<path d="M93.5333 158.206C93.5333 158.397 93.4768 158.583 93.371 158.741C93.2652 158.899 93.1148 159.023 92.9388 159.096C92.7629 159.169 92.5692 159.188 92.3824 159.151C92.1956 159.113 92.024 159.022 91.8894 158.887C91.7547 158.752 91.663 158.581 91.6258 158.394C91.5887 158.207 91.6077 158.014 91.6806 157.838C91.7535 157.662 91.8769 157.511 92.0353 157.405C92.1937 157.3 92.3798 157.243 92.5703 157.243C92.8257 157.243 93.0706 157.345 93.2512 157.525C93.4318 157.706 93.5333 157.951 93.5333 158.206ZM72.0783 191.438C71.8879 191.438 71.7017 191.495 71.5433 191.6C71.385 191.706 71.2615 191.857 71.1886 192.033C71.1158 192.209 71.0967 192.402 71.1338 192.589C71.171 192.776 71.2627 192.947 71.3974 193.082C71.5321 193.217 71.7037 193.308 71.8904 193.346C72.0772 193.383 72.2709 193.364 72.4468 193.291C72.6228 193.218 72.7732 193.095 72.879 192.936C72.9848 192.778 73.0413 192.592 73.0413 192.401C73.0413 192.146 72.9398 191.901 72.7592 191.72C72.5786 191.54 72.3337 191.438 72.0783 191.438ZM92.5414 191.438C92.3509 191.438 92.1648 191.495 92.0064 191.6C91.848 191.706 91.7246 191.857 91.6517 192.033C91.5789 192.209 91.5598 192.402 91.5969 192.589C91.6341 192.776 91.7258 192.947 91.8605 193.082C91.9952 193.217 92.1667 193.308 92.3535 193.346C92.5403 193.383 92.7339 193.364 92.9099 193.291C93.0859 193.218 93.2363 193.095 93.3421 192.936C93.4479 192.778 93.5044 192.592 93.5044 192.401C93.5044 192.146 93.4029 191.901 93.2223 191.72C93.0417 191.54 92.7968 191.438 92.5414 191.438ZM113.004 191.438C112.814 191.438 112.628 191.495 112.469 191.6C112.311 191.706 112.188 191.857 112.115 192.033C112.042 192.209 112.023 192.402 112.06 192.589C112.097 192.776 112.189 192.947 112.324 193.082C112.458 193.217 112.63 193.308 112.817 193.346C113.003 193.383 113.197 193.364 113.373 193.291C113.549 193.218 113.699 193.095 113.805 192.936C113.911 192.778 113.967 192.592 113.967 192.401C113.967 192.146 113.866 191.901 113.685 191.72C113.505 191.54 113.26 191.438 113.004 191.438ZM133.468 191.438C133.277 191.438 133.091 191.495 132.933 191.6C132.774 191.706 132.651 191.857 132.578 192.033C132.505 192.209 132.486 192.402 132.523 192.589C132.56 192.776 132.652 192.947 132.787 193.082C132.921 193.217 133.093 193.308 133.28 193.346C133.466 193.383 133.66 193.364 133.836 193.291C134.012 193.218 134.162 193.095 134.268 192.936C134.374 192.778 134.431 192.592 134.431 192.401C134.431 192.151 134.333 191.91 134.159 191.73C133.984 191.55 133.747 191.446 133.496 191.438H133.468ZM82.3147 173.912C82.1242 173.912 81.938 173.969 81.7797 174.074C81.6213 174.18 81.4979 174.331 81.425 174.507C81.3521 174.683 81.3331 174.876 81.3702 175.063C81.4074 175.25 81.4991 175.421 81.6338 175.556C81.7684 175.691 81.94 175.782 82.1268 175.82C82.3136 175.857 82.5072 175.838 82.6832 175.765C82.8591 175.692 83.0095 175.568 83.1154 175.41C83.2212 175.252 83.2776 175.066 83.2776 174.875C83.2776 174.62 83.1762 174.375 82.9956 174.194C82.815 174.014 82.5701 173.912 82.3147 173.912ZM102.778 173.912C102.587 173.912 102.401 173.969 102.243 174.074C102.084 174.18 101.961 174.331 101.888 174.507C101.815 174.683 101.796 174.876 101.833 175.063C101.87 175.25 101.962 175.421 102.097 175.556C102.232 175.691 102.403 175.782 102.59 175.82C102.777 175.857 102.97 175.838 103.146 175.765C103.322 175.692 103.473 175.568 103.578 175.41C103.684 175.252 103.741 175.066 103.741 174.875C103.741 174.62 103.639 174.375 103.459 174.194C103.278 174.014 103.033 173.912 102.778 173.912ZM123.241 173.912C123.05 173.912 122.864 173.969 122.706 174.074C122.547 174.18 122.424 174.331 122.351 174.507C122.278 174.683 122.259 174.876 122.296 175.063C122.334 175.25 122.425 175.421 122.56 175.556C122.695 175.691 122.866 175.782 123.053 175.82C123.24 175.857 123.433 175.838 123.609 175.765C123.785 175.692 123.936 175.568 124.042 175.41C124.147 175.252 124.204 175.066 124.204 174.875C124.204 174.62 124.102 174.375 123.922 174.194C123.741 174.014 123.496 173.912 123.241 173.912ZM51.6441 225.652C51.4537 225.652 51.2675 225.709 51.1091 225.815C50.9508 225.921 50.8273 226.071 50.7545 226.247C50.6816 226.423 50.6625 226.616 50.6997 226.803C50.7368 226.99 50.8285 227.162 50.9632 227.296C51.0979 227.431 51.2695 227.523 51.4563 227.56C51.6431 227.597 51.8367 227.578 52.0126 227.505C52.1886 227.432 52.339 227.309 52.4448 227.15C52.5506 226.992 52.6071 226.806 52.6071 226.615C52.6071 226.36 52.5056 226.115 52.325 225.935C52.1445 225.754 51.8995 225.652 51.6441 225.652ZM72.1072 225.652C71.9167 225.652 71.7306 225.709 71.5722 225.815C71.4138 225.921 71.2904 226.071 71.2175 226.247C71.1446 226.423 71.1256 226.616 71.1627 226.803C71.1999 226.99 71.2916 227.162 71.4263 227.296C71.561 227.431 71.7325 227.523 71.9193 227.56C72.1061 227.597 72.2998 227.578 72.4757 227.505C72.6517 227.432 72.8021 227.309 72.9079 227.15C73.0137 226.992 73.0702 226.806 73.0702 226.615C73.0702 226.487 73.0444 226.359 72.9942 226.24C72.944 226.121 72.8705 226.014 72.778 225.924C72.6855 225.834 72.5759 225.764 72.4557 225.717C72.3355 225.671 72.2072 225.649 72.0783 225.652H72.1072ZM92.5703 225.652C92.3798 225.652 92.1937 225.709 92.0353 225.815C91.8769 225.921 91.7535 226.071 91.6806 226.247C91.6077 226.423 91.5887 226.616 91.6258 226.803C91.663 226.99 91.7547 227.162 91.8894 227.296C92.024 227.431 92.1956 227.523 92.3824 227.56C92.5692 227.597 92.7629 227.578 92.9388 227.505C93.1148 227.432 93.2652 227.309 93.371 227.15C93.4768 226.992 93.5333 226.806 93.5333 226.615C93.5333 226.487 93.5075 226.359 93.4573 226.24C93.4071 226.121 93.3336 226.014 93.2411 225.924C93.1486 225.834 93.039 225.764 92.9188 225.717C92.7986 225.671 92.6703 225.649 92.5414 225.652H92.5703ZM113.033 225.652C112.843 225.652 112.657 225.709 112.498 225.815C112.34 225.921 112.217 226.071 112.144 226.247C112.071 226.423 112.052 226.616 112.089 226.803C112.126 226.99 112.218 227.162 112.352 227.296C112.487 227.431 112.659 227.523 112.846 227.56C113.032 227.597 113.226 227.578 113.402 227.505C113.578 227.432 113.728 227.309 113.834 227.15C113.94 226.992 113.996 226.806 113.996 226.615C113.996 226.487 113.971 226.359 113.92 226.24C113.87 226.121 113.797 226.014 113.704 225.924C113.612 225.834 113.502 225.764 113.382 225.717C113.262 225.671 113.133 225.649 113.004 225.652H113.033ZM133.496 225.652C133.306 225.652 133.12 225.709 132.961 225.815C132.803 225.921 132.68 226.071 132.607 226.247C132.534 226.423 132.515 226.616 132.552 226.803C132.589 226.99 132.681 227.162 132.816 227.296C132.95 227.431 133.122 227.523 133.309 227.56C133.495 227.597 133.689 227.578 133.865 227.505C134.041 227.432 134.191 227.309 134.297 227.15C134.403 226.992 134.459 226.806 134.459 226.615C134.459 226.36 134.358 226.115 134.177 225.935C133.997 225.754 133.752 225.652 133.496 225.652ZM61.8805 208.126C61.69 208.126 61.5038 208.183 61.3455 208.289C61.1871 208.395 61.0637 208.545 60.9908 208.721C60.9179 208.897 60.8989 209.09 60.936 209.277C60.9732 209.464 61.0649 209.636 61.1996 209.77C61.3342 209.905 61.5058 209.997 61.6926 210.034C61.8794 210.071 62.073 210.052 62.249 209.979C62.4249 209.906 62.5753 209.783 62.6812 209.624C62.787 209.466 62.8434 209.28 62.8434 209.089C62.8435 208.96 62.8177 208.833 62.7675 208.714C62.7173 208.595 62.6438 208.488 62.5513 208.398C62.4588 208.308 62.3492 208.238 62.229 208.191C62.1088 208.145 61.9805 208.123 61.8516 208.126H61.8805ZM82.3436 208.126C82.1531 208.126 81.9669 208.183 81.8086 208.289C81.6502 208.395 81.5268 208.545 81.4539 208.721C81.381 208.897 81.3619 209.09 81.3991 209.277C81.4363 209.464 81.528 209.636 81.6626 209.77C81.7973 209.905 81.9689 209.997 82.1557 210.034C82.3425 210.071 82.5361 210.052 82.7121 209.979C82.888 209.906 83.0384 209.783 83.1442 209.624C83.2501 209.466 83.3065 209.28 83.3065 209.089C83.3066 208.96 83.2808 208.833 83.2306 208.714C83.1804 208.595 83.1069 208.488 83.0144 208.398C82.9218 208.308 82.8123 208.238 82.6921 208.191C82.5719 208.145 82.4435 208.123 82.3147 208.126H82.3436ZM102.807 208.126C102.616 208.126 102.43 208.183 102.272 208.289C102.113 208.395 101.99 208.545 101.917 208.721C101.844 208.897 101.825 209.09 101.862 209.277C101.899 209.464 101.991 209.636 102.126 209.77C102.26 209.905 102.432 209.997 102.619 210.034C102.806 210.071 102.999 210.052 103.175 209.979C103.351 209.906 103.502 209.783 103.607 209.624C103.713 209.466 103.77 209.28 103.77 209.089C103.77 208.96 103.744 208.833 103.694 208.714C103.643 208.595 103.57 208.488 103.477 208.398C103.385 208.308 103.275 208.238 103.155 208.191C103.035 208.145 102.907 208.123 102.778 208.126H102.807ZM123.27 208.126C123.079 208.126 122.893 208.183 122.735 208.289C122.576 208.395 122.453 208.545 122.38 208.721C122.307 208.897 122.288 209.09 122.325 209.277C122.362 209.464 122.454 209.636 122.589 209.77C122.723 209.905 122.895 209.997 123.082 210.034C123.269 210.071 123.462 210.052 123.638 209.979C123.814 209.906 123.965 209.783 124.07 209.624C124.176 209.466 124.233 209.28 124.233 209.089C124.233 208.96 124.207 208.833 124.157 208.714C124.107 208.595 124.033 208.488 123.941 208.398C123.848 208.308 123.738 208.238 123.618 208.191C123.498 208.145 123.37 208.123 123.241 208.126H123.27ZM143.617 208.126C143.377 208.148 143.154 208.259 142.992 208.437C142.829 208.616 142.74 208.848 142.741 209.089C142.74 209.329 142.828 209.56 142.988 209.738C143.148 209.916 143.369 210.028 143.608 210.052L143.617 208.126ZM61.8516 242.341C61.6611 242.341 61.4749 242.397 61.3166 242.503C61.1582 242.609 61.0348 242.759 60.9619 242.935C60.889 243.111 60.87 243.305 60.9071 243.492C60.9443 243.678 61.036 243.85 61.1707 243.985C61.3053 244.119 61.4769 244.211 61.6637 244.248C61.8505 244.285 62.0441 244.266 62.2201 244.193C62.3961 244.12 62.5465 243.997 62.6523 243.839C62.7581 243.68 62.8146 243.494 62.8146 243.304C62.8146 243.048 62.7131 242.803 62.5325 242.623C62.3519 242.442 62.107 242.341 61.8516 242.341ZM82.3147 242.341C82.1242 242.341 81.938 242.397 81.7797 242.503C81.6213 242.609 81.4979 242.759 81.425 242.935C81.3521 243.111 81.3331 243.305 81.3702 243.492C81.4074 243.678 81.4991 243.85 81.6338 243.985C81.7684 244.119 81.94 244.211 82.1268 244.248C82.3136 244.285 82.5072 244.266 82.6832 244.193C82.8591 244.12 83.0095 243.997 83.1154 243.839C83.2212 243.68 83.2776 243.494 83.2776 243.304C83.2776 243.048 83.1762 242.803 82.9956 242.623C82.815 242.442 82.5701 242.341 82.3147 242.341ZM102.778 242.341C102.587 242.341 102.401 242.397 102.243 242.503C102.084 242.609 101.961 242.759 101.888 242.935C101.815 243.111 101.796 243.305 101.833 243.492C101.87 243.678 101.962 243.85 102.097 243.985C102.232 244.119 102.403 244.211 102.59 244.248C102.777 244.285 102.97 244.266 103.146 244.193C103.322 244.12 103.473 243.997 103.578 243.839C103.684 243.68 103.741 243.494 103.741 243.304C103.741 243.048 103.639 242.803 103.459 242.623C103.278 242.442 103.033 242.341 102.778 242.341ZM123.241 242.341C123.05 242.341 122.864 242.397 122.706 242.503C122.547 242.609 122.424 242.759 122.351 242.935C122.278 243.111 122.259 243.305 122.296 243.492C122.334 243.678 122.425 243.85 122.56 243.985C122.695 244.119 122.866 244.211 123.053 244.248C123.24 244.285 123.433 244.266 123.609 244.193C123.785 244.12 123.936 243.997 124.042 243.839C124.147 243.68 124.204 243.494 124.204 243.304C124.204 243.048 124.102 242.803 123.922 242.623C123.741 242.442 123.496 242.341 123.241 242.341Z" fill="white"/>
<path d="M103.066 223.89C107.778 223.971 112.477 224.399 117.126 225.171C119.427 225.585 121.7 226.134 123.972 226.683C125.109 226.962 126.245 227.212 127.381 227.443C128.569 227.733 129.789 227.875 131.012 227.867C131.025 227.863 131.039 227.861 131.052 227.863C131.066 227.865 131.079 227.87 131.09 227.878C131.102 227.886 131.111 227.897 131.117 227.909C131.124 227.922 131.127 227.935 131.127 227.949C131.127 227.963 131.124 227.977 131.117 227.989C131.111 228.001 131.102 228.012 131.09 228.02C131.079 228.028 131.066 228.033 131.052 228.035C131.039 228.037 131.025 228.035 131.012 228.031C129.868 228.169 128.716 228.23 127.564 228.214C126.446 228.166 125.333 228.041 124.232 227.838C121.883 227.434 119.562 226.923 117.222 226.5C112.503 225.652 107.785 224.795 103.018 224.285C102.973 224.271 102.934 224.241 102.909 224.202C102.883 224.162 102.872 224.114 102.878 224.068C102.884 224.021 102.906 223.977 102.94 223.945C102.974 223.912 103.019 223.893 103.066 223.89Z" fill="#263238"/>
<path d="M91.7902 228.879C95.613 228.198 99.4709 227.732 103.346 227.482C105.272 227.367 107.198 227.357 109.124 227.405C110.087 227.405 110.982 227.473 111.907 227.521C112.831 227.569 113.938 227.762 114.959 227.81C115.065 227.81 115.084 227.973 114.959 227.973C113.996 227.973 113.033 228.118 112.07 228.166L109.181 228.291C107.255 228.387 105.33 228.503 103.404 228.58C99.5517 228.724 95.6998 228.917 91.7902 229.196C91.5976 229.187 91.5879 228.917 91.7902 228.879Z" fill="#263238"/>
<path d="M89.8737 157.012C90.2204 158.938 99.436 170.927 108.083 169.531C114.169 168.568 110.972 156.348 110.972 156.348L115.701 139.38L94.8715 124.599C94.8715 124.599 89.7389 156.194 89.8737 157.012Z" fill="#D3766A"/>
<path d="M93.0518 135.673C94.5654 140.024 96.958 144.018 100.081 147.406C103.203 150.794 106.99 153.503 111.204 155.365L115.672 139.351L94.8429 124.56L93.0518 135.673Z" fill="#263238"/>
<path d="M139.448 114.718C141.903 143.473 125.003 148.191 118.773 148.711C113.139 149.193 93.9184 150.098 88.4969 121.748C83.0754 93.3983 95.6614 83.2294 108.479 81.4094C121.296 79.5893 136.982 85.9738 139.448 114.718Z" fill="#D3766A"/>
<path d="M133.862 109.056C133.208 108.877 132.565 108.662 131.936 108.411C131.239 108.281 130.605 107.922 130.135 107.39C130.009 107.199 129.955 106.968 129.983 106.741C130.011 106.513 130.12 106.303 130.289 106.148C130.651 105.875 131.08 105.704 131.531 105.653C131.981 105.602 132.437 105.673 132.851 105.859C133.747 106.098 134.52 106.665 135.017 107.448C135.117 107.629 135.163 107.836 135.15 108.042C135.138 108.249 135.067 108.448 134.946 108.616C134.825 108.784 134.659 108.915 134.468 108.992C134.276 109.07 134.066 109.092 133.862 109.056Z" fill="#263238"/>
<path d="M114.526 108.883C115.175 108.764 115.818 108.613 116.452 108.43C117.169 108.373 117.847 108.078 118.378 107.592C118.518 107.414 118.595 107.194 118.595 106.966C118.595 106.739 118.518 106.519 118.378 106.341C118.043 106.034 117.633 105.822 117.19 105.727C116.746 105.632 116.285 105.658 115.855 105.801C114.937 105.951 114.109 106.439 113.534 107.169C113.417 107.34 113.351 107.54 113.343 107.747C113.335 107.954 113.386 108.159 113.49 108.338C113.594 108.517 113.746 108.664 113.929 108.76C114.112 108.856 114.319 108.899 114.526 108.883Z" fill="#263238"/>
<path d="M119.206 117.771C119.206 117.694 119.052 117.867 119.061 117.954C119.206 119.88 119.061 122.182 117.299 122.913C117.241 122.913 117.251 123.029 117.299 123.019C119.475 122.625 119.658 119.601 119.206 117.771Z" fill="#263238"/>
<path d="M117.367 115.797C114.198 115.691 114.218 122.037 117.155 122.134C120.092 122.23 120.015 115.884 117.367 115.797Z" fill="#263238"/>
<path d="M116.163 116.134C115.604 116.5 115.065 117.097 114.4 117.203C113.736 117.309 113.043 116.615 112.532 115.98C112.474 115.912 112.426 115.98 112.426 116.057C112.426 117.27 112.879 118.512 114.189 118.695C115.498 118.878 116.22 117.732 116.519 116.548C116.538 116.326 116.346 115.989 116.163 116.134Z" fill="#263238"/>
<path d="M130.087 117.482C130.087 117.405 130.241 117.578 130.241 117.656C130.183 119.581 130.443 121.883 132.225 122.528C132.24 122.528 132.255 122.534 132.266 122.545C132.277 122.556 132.283 122.571 132.283 122.586C132.283 122.601 132.277 122.616 132.266 122.627C132.255 122.638 132.24 122.644 132.225 122.644C130.039 122.297 129.721 119.293 130.087 117.482Z" fill="#263238"/>
<path d="M131.84 115.383C134.998 115.142 135.258 121.478 132.331 121.709C129.404 121.94 129.192 115.556 131.84 115.383Z" fill="#263238"/>
<path d="M133.102 115.672C133.67 116.009 134.238 116.635 134.902 116.635C135.567 116.635 136.241 115.999 136.713 115.335C136.77 115.267 136.819 115.335 136.828 115.402C136.896 116.615 136.482 117.886 135.182 118.118C133.882 118.349 133.111 117.289 132.755 116.086C132.687 115.874 132.87 115.556 133.102 115.672Z" fill="#263238"/>
<path d="M116.914 133.159C117.232 133.737 117.492 134.479 118.156 134.748C118.861 134.943 119.599 134.989 120.323 134.883C120.339 134.879 120.356 134.881 120.371 134.888C120.386 134.896 120.398 134.908 120.404 134.924C120.41 134.94 120.41 134.957 120.404 134.972C120.398 134.988 120.386 135.001 120.371 135.008C119.989 135.295 119.538 135.473 119.064 135.526C118.59 135.578 118.11 135.503 117.675 135.307C117.325 135.086 117.048 134.768 116.876 134.392C116.705 134.015 116.648 133.597 116.712 133.188C116.712 133.073 116.866 133.073 116.914 133.159Z" fill="#263238"/>
<path d="M126.871 125.947C126.871 125.947 127.323 128.836 127.343 130.261C127.343 130.396 127.015 130.463 126.543 130.492C126.543 130.492 126.543 130.492 126.486 130.492C125.302 130.728 124.075 130.633 122.942 130.216C121.809 129.8 120.812 129.079 120.063 128.133C119.966 128.007 120.13 127.853 120.265 127.94C122.045 129.12 124.161 129.691 126.293 129.567C126.389 129.182 125.33 124.579 125.58 124.56C126.655 124.638 127.715 124.862 128.729 125.224C127.969 119.1 126.235 113.139 125.561 107.034C125.558 106.989 125.571 106.945 125.597 106.908C125.623 106.872 125.661 106.846 125.704 106.834C125.748 106.823 125.794 106.827 125.834 106.846C125.875 106.865 125.908 106.897 125.927 106.938C128.19 113.053 129.22 120.082 130.164 126.39C130.299 127.17 127.429 126.149 126.871 125.947Z" fill="#263238"/>
<path d="M89.9411 118.811C93.0226 118.811 101.429 110.77 102.46 95.9887C102.46 95.9887 100.64 109.191 99.5708 111.088C98.5019 112.985 104.27 106.581 105.252 94.7176C105.252 94.7176 111.608 99.8213 117.164 101.689C122.721 103.558 126.168 103.683 126.592 103.298C127.015 102.912 118.888 99.8695 116.75 97.1732C116.75 97.1732 131.378 104.877 138.253 105.84C139.053 105.936 140.853 89.5561 130.55 82.0353C120.246 74.5145 102.922 81.1782 98.1456 85.3383C98.1456 85.3383 92.7722 85.8197 86.59 93.4272C80.4077 101.035 86.6381 118.84 89.9411 118.811Z" fill="#263238"/>
<path d="M128.951 118.599C128.691 113.785 131.089 109.673 134.295 109.509C137.502 109.345 140.314 113.139 140.564 117.983C140.815 122.827 138.417 126.91 135.22 127.074C132.023 127.237 129.201 123.443 128.951 118.599ZM130.126 118.532C130.347 122.731 132.601 126.034 135.152 125.899C137.704 125.764 139.611 122.239 139.39 118.051C139.168 113.862 136.915 110.549 134.363 110.684C131.811 110.819 129.904 114.343 130.126 118.532Z" fill="#F25E3D"/>
<path d="M106.86 119.755C106.61 114.94 110.086 110.78 114.564 110.539C119.042 110.299 122.971 114.054 123.231 118.898C123.491 123.742 120.015 127.873 115.527 128.104C111.04 128.335 107.12 124.599 106.86 119.755ZM108.045 119.687C108.266 123.886 111.589 127.131 115.469 126.929C119.35 126.727 122.316 123.145 122.095 118.956C121.873 114.767 118.541 111.512 114.67 111.714C110.799 111.916 107.823 115.499 108.045 119.687Z" fill="#F25E3D"/>
<path d="M122.836 118.127C127.15 116.346 129.211 117.684 129.23 117.694L129.905 116.731C129.808 116.663 127.362 114.988 122.384 117.029L122.836 118.127Z" fill="#F25E3D"/>
<path d="M107.496 118.57V117.386C106.716 117.386 88.4678 117.732 86.5323 118.012C84.5967 118.291 80.3307 121.864 79.8589 122.307L80.6293 123.192C81.8137 122.172 85.136 119.495 86.6189 119.196H86.7056C88.1789 118.965 100.958 118.686 107.496 118.57Z" fill="#F25E3D"/>
<path d="M93.3885 121.594C93.3885 121.594 87.1003 112.581 83.0173 114.853C78.9343 117.126 83.6432 130.155 88.4388 131.946C89.038 132.218 89.6863 132.367 90.3444 132.382C91.0024 132.397 91.6568 132.278 92.2678 132.034C92.8789 131.789 93.434 131.423 93.8997 130.958C94.3654 130.492 94.732 129.937 94.9774 129.327L93.3885 121.594Z" fill="#D3766A"/>
<path d="M84.4618 118.532C84.4493 118.537 84.4386 118.545 84.431 118.557C84.4235 118.568 84.4194 118.581 84.4194 118.594C84.4194 118.608 84.4235 118.621 84.431 118.632C84.4386 118.643 84.4493 118.652 84.4618 118.657C87.8226 120.024 89.5944 123.144 90.827 126.361C89.8641 125.118 88.4678 124.435 86.8018 125.619C86.7851 125.634 86.7738 125.655 86.7694 125.677C86.7651 125.699 86.768 125.722 86.7776 125.743C86.7873 125.763 86.8033 125.78 86.8233 125.791C86.8432 125.801 86.8661 125.805 86.8885 125.802C87.4802 125.616 88.1148 125.617 88.7059 125.805C89.2971 125.993 89.8158 126.358 90.1915 126.852C90.8131 127.684 91.3426 128.582 91.7708 129.529C91.9248 129.827 92.4737 129.673 92.3582 129.327V129.24C92.3871 124.974 89.0648 118.965 84.4618 118.532Z" fill="#263238"/>
<path d="M171.418 156.742C145.803 192.516 145.803 238.595 171.418 274.427L251.171 215.589L171.418 156.742Z" fill="#F25E3D"/>
<path opacity="0.1" d="M228.705 199.017L227.8 198.352C228.763 206.22 228.358 215.512 222.754 221.463C219.682 224.757 214.838 224.246 211.323 223.235C207.757 222.11 204.366 220.49 201.251 218.42C201.847 215.134 202.018 211.784 201.761 208.454C201.106 199.45 197.591 190.157 192.594 184.245C187.971 178.746 182.896 177.292 179.006 180.325C176.31 182.434 175.347 185.574 176.117 189.628C177.928 198.93 188.848 211.477 200.24 218.825C199.152 224.745 196.171 230.152 191.746 234.232C189.616 236.185 187.232 237.84 184.659 239.153C182.233 236.201 179.346 233.661 176.108 231.632C168.24 226.721 160.7 226.336 157.32 230.669C155.616 232.875 156.213 235.686 158.919 238.2C163.647 242.572 174.037 245.201 184.553 240.126C189.926 246.963 191.014 254.715 189.368 261.109L190.494 260.281C191.574 255.374 190.988 250.247 188.828 245.711C187.849 243.61 186.634 241.626 185.208 239.798C187.791 238.466 190.187 236.799 192.334 234.839C196.807 230.72 199.867 225.295 201.077 219.335C204.192 221.336 207.564 222.904 211.102 223.996C216.475 225.537 220.731 224.843 223.38 221.993C228.83 216.254 229.658 207.433 228.705 199.017ZM159.496 237.661C157.147 235.475 156.607 233.086 157.994 231.257C161.095 227.27 168.202 227.713 175.684 232.393C178.829 234.316 181.647 236.728 184.033 239.538C173.941 244.344 164.042 241.869 159.496 237.661ZM200.432 217.977C189.348 210.688 178.679 198.371 176.955 189.551C176.223 185.824 177.09 182.964 179.526 181.057C183.06 178.284 187.596 179.671 191.968 184.861C198.323 192.411 202.531 205.911 200.432 217.977Z" fill="black"/>
<path d="M251.171 215.589H260.541L180.788 156.742H171.418L251.171 215.589Z" fill="#F25E3D"/>
<g opacity="0.1">
<path opacity="0.1" d="M251.171 215.589H260.541L180.788 156.742H171.418L251.171 215.589Z" fill="black"/>
</g>
<path d="M171.418 274.427H180.788L260.541 215.589H251.171L171.418 274.427Z" fill="#F25E3D"/>
<g opacity="0.2">
<path opacity="0.2" d="M171.418 274.427H180.788L260.541 215.589H251.171L171.418 274.427Z" fill="black"/>
</g>
<path d="M73.8597 174.297C73.0219 211.583 80.3212 252.558 88.4005 258.576C97.2887 265.211 114.198 271.827 140.738 278.057C146.583 279.434 154.759 236.014 148.519 234.502C134.132 230.997 112.764 226.086 109.278 222.503C105.262 218.391 101.449 199.652 91.0872 175.693C83.1523 157.349 74.2834 155.375 73.8597 174.297Z" fill="#D3766A"/>
<path d="M141.787 237.911C141.787 237.911 156.29 230.111 165.187 228.378C177.09 226.047 188.299 228.936 192.959 230.438C202.637 233.558 223.871 247.772 220.837 254.628C218.093 260.82 197.119 245.162 197.119 245.162C197.119 245.162 221.136 257.594 216.456 264.422C211.776 271.249 188.472 251.71 188.472 251.71C188.472 251.71 212.864 265.038 206.922 271.326C202.435 276.073 180.325 259.549 180.325 259.549C180.325 259.549 201.212 271.105 196.802 276.237C191.939 281.861 170.57 267.888 170.57 267.888C157.195 278.934 146.313 278.722 138.59 277.653C136.712 277.402 141.787 237.911 141.787 237.911Z" fill="#D3766A"/>
<path d="M189.088 240.328C191.977 241.686 194.866 243.044 197.62 244.652C200.374 246.26 203.061 247.974 205.642 249.823C209.064 252.181 212.202 254.928 214.992 258.008C209.638 252.914 199.903 247.001 197.158 245.393C194.414 243.785 191.766 242.042 189.021 240.434C188.954 240.395 189.021 240.299 189.088 240.328Z" fill="#263238"/>
<path d="M183.099 250.131C186.691 252.057 190.331 253.771 193.845 255.822C197.36 257.874 200.48 260.108 203.822 262.39C204.082 262.563 203.899 262.65 203.639 262.477C200.201 260.339 196.898 258.625 193.402 256.525C189.907 254.426 186.565 252.182 183.05 250.218C182.993 250.189 183.041 250.102 183.099 250.131Z" fill="#263238"/>
<path d="M176.445 257.623C182.088 260.233 187.239 263.882 192.208 267.58C192.459 267.763 192.208 267.85 191.948 267.676C186.777 264.258 182.733 261.552 176.358 257.816C176.252 257.758 176.329 257.565 176.445 257.623Z" fill="#263238"/>
<path d="M84.9434 253.838C85.747 255.096 86.6623 256.279 87.6782 257.372C88.7356 258.389 89.9241 259.261 91.2123 259.963C93.7545 261.513 96.3642 263.006 98.8486 264.778C96.005 263.743 93.2777 262.414 90.7115 260.81C89.3683 260.037 88.1667 259.04 87.1582 257.864C86.2195 256.642 85.4727 255.285 84.9434 253.838Z" fill="#263238"/>
<path d="M71.8663 213.192L100.755 191.419C100.755 191.419 93.6005 174.683 88.333 165.977C81.3708 154.422 75.4581 154.345 72.5981 170.6C70.7107 181.472 71.8663 213.192 71.8663 213.192Z" fill="#F25E3D"/>
<path d="M73.0702 192.42C73.0702 192.676 72.9687 192.921 72.7881 193.101C72.6075 193.282 72.3626 193.383 72.1072 193.383C71.9022 193.381 71.7031 193.314 71.5391 193.191C71.5391 192.661 71.5391 192.131 71.5391 191.592C71.7016 191.475 71.8969 191.411 72.0976 191.409C72.229 191.408 72.3593 191.433 72.4806 191.484C72.6018 191.535 72.7113 191.61 72.8024 191.705C72.8935 191.799 72.9643 191.912 73.0104 192.035C73.0564 192.158 73.0768 192.289 73.0702 192.42ZM92.5414 191.457C92.351 191.457 92.1648 191.514 92.0064 191.62C91.8481 191.725 91.7246 191.876 91.6517 192.052C91.5789 192.228 91.5598 192.421 91.5969 192.608C91.6341 192.795 91.7258 192.967 91.8605 193.101C91.9952 193.236 92.1667 193.328 92.3535 193.365C92.5403 193.402 92.734 193.383 92.9099 193.31C93.0859 193.237 93.2363 193.114 93.3421 192.955C93.4479 192.797 93.5044 192.611 93.5044 192.42C93.5069 192.292 93.4839 192.165 93.4367 192.046C93.3894 191.927 93.3189 191.818 93.2292 191.727C93.1396 191.635 93.0325 191.563 92.9144 191.513C92.7963 191.464 92.6695 191.438 92.5414 191.438V191.457ZM82.3147 173.931C82.1242 173.931 81.938 173.988 81.7797 174.094C81.6213 174.199 81.4979 174.35 81.425 174.526C81.3521 174.702 81.3331 174.895 81.3702 175.082C81.4074 175.269 81.4991 175.441 81.6338 175.575C81.7684 175.71 81.94 175.802 82.1268 175.839C82.3136 175.876 82.5072 175.857 82.6832 175.784C82.8591 175.711 83.0095 175.588 83.1154 175.429C83.2212 175.271 83.2776 175.085 83.2776 174.894C83.2802 174.766 83.2572 174.639 83.21 174.52C83.1627 174.401 83.0922 174.292 83.0025 174.201C82.9128 174.109 82.8058 174.037 82.6877 173.987C82.5696 173.938 82.4428 173.912 82.3147 173.912V173.931Z" fill="white"/>
<path d="M97.2596 194.087C97.5292 193.788 100.428 191.458 100.688 191.352C99.7922 189.426 98.8774 187.5 98.0107 185.507C97.5773 184.544 97.1536 183.581 96.7492 182.55C96.3447 181.52 95.7862 180.239 95.3529 179.276C95.2951 179.122 95.4781 179.026 95.5551 179.17C96.1907 180.384 96.624 181.298 97.1633 182.348C97.7025 183.398 98.1262 184.274 98.5596 185.189C99.5225 187.211 100.591 189.329 101.448 191.39C100.148 192.415 98.781 193.351 97.3559 194.192C97.2692 194.221 97.221 194.125 97.2596 194.087Z" fill="#263238"/>
<path d="M72.7233 208.242C76.71 204.785 80.7448 201.386 84.9337 198.17C87.0266 196.565 89.1387 194.989 91.2701 193.441C93.4078 191.901 95.7093 190.552 97.8086 189.012C97.9242 188.925 98.059 189.118 97.9434 189.195C95.7575 190.649 93.7449 192.411 91.636 194.01C89.5271 195.608 87.4278 197.168 85.3285 198.824C81.1493 202.012 76.9507 205.209 72.81 208.454C72.7329 208.521 72.6174 208.338 72.7233 208.242Z" fill="#263238"/>
<path d="M75.3716 210.544C74.8227 211.035 74.2642 211.507 73.7056 211.988C73.1471 212.47 72.5886 212.951 72.0108 213.413L71.616 213.721V213.201C71.4812 211.189 71.3367 209.186 71.2693 207.173C71.2019 205.161 71.1441 203.138 71.1345 201.126C71.1249 199.113 71.1345 197.101 71.2019 195.078C71.2693 193.056 71.356 191.053 71.5293 189.041C71.6834 191.053 71.7797 193.066 71.8664 195.078C71.953 197.091 72.0204 199.104 72.0686 201.116L72.1649 207.144C72.1649 209.157 72.1649 211.17 72.1649 213.182L71.7412 212.98C72.3382 212.556 72.9545 212.152 73.5708 211.747C74.1871 211.343 74.7553 210.938 75.3716 210.544Z" fill="#263238"/>
<path d="M69.8057 193.691C70.3306 194.599 70.7383 195.57 71.019 196.58C71.3259 197.58 71.5008 198.616 71.539 199.662C70.5052 197.84 69.9116 195.802 69.8057 193.711V193.691Z" fill="#263238"/>
<path d="M97.1826 180.075C97.5262 180.724 97.7789 181.418 97.9337 182.136C98.0157 182.491 98.0736 182.851 98.1071 183.214C98.1408 183.583 98.1408 183.954 98.1071 184.322C97.8265 183.65 97.6074 182.954 97.4523 182.242C97.2851 181.531 97.1947 180.805 97.1826 180.075Z" fill="#263238"/>
<path d="M186.748 160.931C194.549 160.065 205.652 154.942 211.352 156.184C212.766 156.445 214.06 157.151 215.044 158.199C216.028 159.247 216.651 160.582 216.822 162.01C216.822 162.01 221.435 157.494 226.452 159.477C229.023 160.44 229.649 165.486 229.649 165.486C229.649 165.486 233.501 162.029 237.844 164.061C241.262 165.679 241.349 170.445 241.349 170.445C241.349 170.445 246.597 168.857 249.582 171.63C255.639 177.263 244.921 208.165 231.883 208.993C225.806 209.378 228.84 201.973 228.84 201.973C228.84 201.973 221.906 211.603 215.483 209.532C209.06 207.462 213.558 198.102 213.558 198.102C213.558 198.102 206.769 207.337 200.317 204.544C193.576 201.655 199.72 192.989 199.72 192.989C199.72 192.989 192.68 198.246 188.231 194.972C180.884 189.58 195.743 180.152 196.484 172.824L186.585 165.188L186.748 160.931Z" fill="#D3766A"/>
<path d="M198.632 158.11C191.169 158.274 185.843 147.257 178.688 146.391C169.001 145.226 174.317 158.418 186.614 165.207L197.052 168.799L198.632 158.11Z" fill="#D3766A"/>
<path d="M241.503 171.197C241.498 171.184 241.497 171.17 241.499 171.156C241.501 171.142 241.506 171.129 241.514 171.118C241.522 171.107 241.533 171.098 241.545 171.091C241.557 171.085 241.571 171.082 241.585 171.082C241.598 171.082 241.612 171.085 241.624 171.091C241.637 171.098 241.647 171.107 241.655 171.118C241.663 171.129 241.669 171.142 241.67 171.156C241.672 171.17 241.671 171.184 241.667 171.197C240.627 182.213 236.091 194.009 228.734 202.368C228.493 202.647 227.944 202.368 228.156 202.021C234.088 191.978 238.556 182.569 241.503 171.197Z" fill="#263238"/>
<path d="M229.735 165.361C229.735 165.236 229.976 165.284 229.966 165.419C228.82 176.772 223.36 189.917 213.74 198.555C213.413 198.853 212.777 198.795 213.172 198.42C219.133 192.189 227.135 175.607 229.735 165.361Z" fill="#263238"/>
<path d="M198.853 193.432C207.751 184.765 212.989 174.172 216.793 162.482C216.841 162.328 217.053 162.414 217.053 162.549C216.745 168.78 213.538 175.973 210.572 181.366C207.911 186.419 203.973 190.688 199.151 193.749C198.978 193.865 198.66 193.624 198.853 193.432Z" fill="#263238"/>
<path d="M105.763 369.78C105.763 369.578 105.763 369.395 105.763 369.212C105.772 369.366 105.763 369.568 105.763 369.78Z" fill="#F25E3D"/>
</svg>
