<svg width="927" height="603" viewBox="0 0 927 603" fill="none" xmlns="http://www.w3.org/2000/svg">
<path fill-rule="evenodd" clip-rule="evenodd" d="M574.931 691.494C544.62 752.49 580.826 853.124 521.768 887.021C477.57 912.389 441.646 825.286 406.96 787.905C381.769 760.759 365.017 727.975 345.168 696.707C330.112 672.99 330.087 632.556 303.2 624.451C214.443 597.695 96.4069 664.366 28.4812 601.241C-14.8534 560.969 113.11 505.128 111.182 446.004C108.599 366.819 -48.851 275.108 16.3787 230.222C102.86 170.714 215.511 296.253 320.345 302.076C353.323 303.908 382.591 276.306 404.721 251.792C449.742 201.924 457.158 118.473 515.756 85.6222C564.413 58.3448 663.443 43.8444 681.335 96.7201C713.112 190.629 549.888 311.284 616.852 384.386C683.022 456.621 816.82 297.477 904.75 340.613C956.086 365.797 907.238 467.981 864.411 505.832C806.505 557.009 709.009 529.288 643.997 571.065C621.51 585.516 652.616 627.286 639.315 650.479C626.544 672.747 586.355 668.505 574.931 691.494Z" fill="#F29C6B"/>
<path d="M142.954 409.506H292.597L297.409 314.552H138.141L142.954 409.506Z" fill="#EBEBEB"/>
<path d="M281.628 357.982H149.857L148.046 325.019H283.742L281.628 357.982ZM150.955 356.814H280.53L282.504 326.187H149.261L150.955 356.814Z" fill="#DBDBDB"/>
<path d="M279.841 395.944H153.688L152.193 366.158H281.698L279.841 395.944ZM154.739 394.776H278.743L280.46 367.326H153.361L154.739 394.776Z" fill="#DBDBDB"/>
<path d="M230.887 345.133H202.958L201.93 337.178H231.915L230.887 345.133ZM204.021 343.965H229.871L230.595 338.346H203.262L204.021 343.965Z" fill="#DBDBDB"/>
<path d="M230.887 385.035H202.958L201.93 377.092H231.915L230.887 385.035ZM204.021 383.867H229.871L230.595 378.26H203.262L204.021 383.867Z" fill="#DBDBDB"/>
<path d="M163.71 409.506L162.262 419.843L159.33 440.635H153.618V409.506H163.71Z" fill="#EBEBEB"/>
<path d="M163.71 409.506L162.262 419.843H153.618V409.506H163.71Z" fill="#DBDBDB"/>
<path d="M271.852 409.506L273.3 419.843L276.22 440.635H281.932V409.506H271.852Z" fill="#EBEBEB"/>
<path d="M271.852 409.506L273.3 419.843H281.932V409.506H271.852Z" fill="#DBDBDB"/>
<path d="M430.594 38.126H375.437V113.958H430.594V38.126Z" fill="#EBEBEB"/>
<path d="M491.965 38.126H436.808V113.958H491.965V38.126Z" fill="#EBEBEB"/>
<path d="M430.594 120.172H375.437V196.004H430.594V120.172Z" fill="#EBEBEB"/>
<path d="M491.965 120.172H436.808V196.004H491.965V120.172Z" fill="#EBEBEB"/>
<path d="M557.226 38.126H502.069V113.958H557.226V38.126Z" fill="#EBEBEB"/>
<path d="M618.597 38.126H563.44V113.958H618.597V38.126Z" fill="#EBEBEB"/>
<path d="M557.226 120.172H502.069V196.004H557.226V120.172Z" fill="#EBEBEB"/>
<path d="M618.597 120.172H563.44V196.004H618.597V120.172Z" fill="#EBEBEB"/>
<path d="M568.755 523.943C598.649 523.943 622.884 518.243 622.884 511.211C622.884 504.179 598.649 498.479 568.755 498.479C538.86 498.479 514.626 504.179 514.626 511.211C514.626 518.243 538.86 523.943 568.755 523.943Z" fill="#EBEBEB"/>
<path d="M391.627 501.668C495.323 501.668 579.385 491.099 579.385 478.061C579.385 465.023 495.323 454.454 391.627 454.454C287.932 454.454 203.87 465.023 203.87 478.061C203.87 491.099 287.932 501.668 391.627 501.668Z" fill="#EBEBEB"/>
<path d="M367.354 532.038C471.05 532.038 555.112 521.469 555.112 508.431C555.112 495.393 471.05 484.824 367.354 484.824C263.659 484.824 179.597 495.393 179.597 508.431C179.597 521.469 263.659 532.038 367.354 532.038Z" fill="#EBEBEB"/>
<path d="M131.682 440.636L190.834 440.344L249.985 440.25L368.289 440.052L486.592 440.25L545.744 440.344L604.896 440.636L545.744 440.916L486.592 441.021L368.289 441.22L249.985 441.021L190.834 440.916L131.682 440.636Z" fill="#263238"/>
<path d="M367.551 147.616C376.697 84.3817 332.85 25.7061 269.616 16.5601C206.382 7.41414 147.706 51.2612 138.56 114.495C129.414 177.729 173.261 236.405 236.495 245.551C299.73 254.697 358.405 210.85 367.551 147.616Z" fill="#F25E3D"/>
<path opacity="0.1" d="M368.621 138.569C371.344 77.6666 324.18 26.0881 263.278 23.3651C202.375 20.6421 150.797 67.8059 148.074 128.708C145.351 189.611 192.515 241.189 253.417 243.912C314.32 246.635 365.898 199.471 368.621 138.569Z" fill="black"/>
<path d="M361.612 139.282C364.721 82.2546 321.011 33.505 263.983 30.3965C206.956 27.2881 158.207 70.9979 155.098 128.025C151.99 185.052 195.699 233.802 252.727 236.911C309.754 240.019 358.504 196.309 361.612 139.282Z" fill="white"/>
<path d="M359.423 111.693C312.326 140.229 234.929 187.034 191.675 212.697C179.446 202.385 169.774 189.379 163.419 174.699L306.486 42.0986C319.852 49.1345 331.517 59.0101 340.662 71.0326C349.807 83.0551 356.211 96.9332 359.423 111.693Z" fill="#EBEBEB"/>
<path d="M361.689 137.215C361.314 148.721 359.004 160.082 354.855 170.821L225.876 231.83C220.255 229.972 214.806 227.627 209.593 224.821C248.548 202.336 319.743 161.371 361.689 137.215Z" fill="#EBEBEB"/>
<path d="M259.353 37.7412H257.356V53.4169H259.353V37.7412Z" fill="#C7C7C7"/>
<path d="M211.265 50.078L209.535 51.0767L217.373 64.6522L219.103 63.6535L211.265 50.078Z" fill="#C7C7C7"/>
<path d="M175.783 84.8097L174.785 86.5396L188.36 94.3774L189.359 92.6476L175.783 84.8097Z" fill="#C7C7C7"/>
<path d="M178.125 132.648H162.449V134.645H178.125V132.648Z" fill="#C7C7C7"/>
<path d="M188.362 172.899L174.787 180.737L175.785 182.467L189.361 174.629L188.362 172.899Z" fill="#C7C7C7"/>
<path d="M217.369 202.628L209.539 216.208L211.269 217.206L219.1 203.626L217.369 202.628Z" fill="#C7C7C7"/>
<path d="M259.353 213.876H257.356V229.552H259.353V213.876Z" fill="#C7C7C7"/>
<path d="M299.332 202.629L297.603 203.627L305.44 217.203L307.17 216.204L299.332 202.629Z" fill="#C7C7C7"/>
<path d="M328.327 172.878L327.328 174.607L340.904 182.445L341.902 180.715L328.327 172.878Z" fill="#C7C7C7"/>
<path d="M354.26 132.648H338.584V134.645H354.26V132.648Z" fill="#C7C7C7"/>
<path d="M340.913 84.8443L327.337 92.6821L328.336 94.4119L341.912 86.5741L340.913 84.8443Z" fill="#C7C7C7"/>
<path d="M305.445 50.0947L297.615 63.6743L299.345 64.6721L307.176 51.0925L305.445 50.0947Z" fill="#C7C7C7"/>
<path d="M259.856 44.8315L263.255 140.626L253.443 140.497L257.192 44.8081L259.856 44.8315Z" fill="#F25E3D"/>
<path d="M319.521 100.234L255.078 141.373L250.394 132.753L318.248 97.8975L319.521 100.234Z" fill="#263238"/>
<path d="M258.349 136.993C260.2 136.993 261.701 135.492 261.701 133.641C261.701 131.789 260.2 130.289 258.349 130.289C256.497 130.289 254.996 131.789 254.996 133.641C254.996 135.492 256.497 136.993 258.349 136.993Z" fill="#F25E3D"/>
<path d="M484.758 344.806C490.773 347.808 496.719 350.927 502.653 354.057C508.587 357.188 514.486 360.4 520.408 363.577C526.33 366.754 532.182 370.037 538.034 373.331L546.795 378.295C549.692 379.989 552.635 381.647 555.497 383.376C552.483 381.881 549.516 380.328 546.514 378.797L537.602 374.125C531.656 370.995 525.769 367.771 519.847 364.605C513.925 361.44 508.084 358.134 502.232 354.84C496.38 351.546 490.54 348.229 484.758 344.806Z" fill="#A6A6A6"/>
<path d="M550.509 344.806C545.148 347.89 539.716 350.869 534.285 353.835C528.853 356.802 523.375 359.676 517.931 362.584C512.488 365.493 506.963 368.296 501.438 371.1L493.145 375.27C490.365 376.613 487.596 378.003 484.793 379.323C487.468 377.769 490.19 376.286 492.876 374.756L501.053 370.294C506.496 367.338 511.974 364.453 517.406 361.545C522.837 358.636 528.386 355.833 533.899 353.041C539.412 350.249 544.914 347.469 550.509 344.806Z" fill="#A6A6A6"/>
<path d="M417.99 344.806C424.006 347.808 429.951 350.927 435.885 354.057C441.819 357.188 447.718 360.4 453.64 363.577C459.562 366.754 465.414 370.037 471.255 373.331L480.027 378.295C482.924 379.989 485.867 381.647 488.729 383.376C485.716 381.881 482.749 380.328 479.747 378.797L470.834 374.125C464.889 370.995 459.002 367.771 453.079 364.605C447.157 361.44 441.305 358.134 435.465 354.84C429.624 351.546 423.772 348.229 417.99 344.806Z" fill="#A6A6A6"/>
<path d="M483.73 344.806C478.368 347.89 472.937 350.869 467.505 353.835C462.074 356.802 456.584 359.676 451.152 362.584C445.721 365.493 440.184 368.296 434.659 371.1L426.365 375.27C423.585 376.613 420.817 378.003 418.014 379.323C420.689 377.769 423.41 376.286 426.097 374.756L434.273 370.294C439.717 367.338 445.195 364.453 450.627 361.545C456.058 358.636 461.606 355.833 467.12 353.041C472.633 350.249 478.147 347.469 483.73 344.806Z" fill="#A6A6A6"/>
<path d="M430.197 335.566L426.658 356.779L402.7 486.191H398.834L416.262 356.779L418.832 335.566H430.197Z" fill="#A6A6A6"/>
<path d="M418.831 335.566H430.196L426.657 356.779H416.261L418.831 335.566Z" fill="#263238"/>
<path d="M505.456 486.191H501.59L477.633 356.779L474.093 335.566H485.459L488.029 356.779L505.456 486.191Z" fill="#A6A6A6"/>
<path d="M485.459 335.566L488.029 356.779H477.633L474.093 335.566H485.459Z" fill="#263238"/>
<path d="M577.34 486.191H573.474L549.505 356.779L545.965 335.566H557.331L559.912 356.779L577.34 486.191Z" fill="#A6A6A6"/>
<path d="M559.912 356.779H549.505L545.965 335.566H557.331L559.912 356.779Z" fill="#263238"/>
<path d="M571.208 345.531H395.61V327.028H461.338L483.438 184.814H564.514L571.208 345.531Z" fill="#A6A6A6"/>
<path d="M571.207 345.53H561.641L555.403 184.814H564.514L571.207 345.53Z" fill="#DBDBDB"/>
<path d="M449.224 225.662C457.728 233.476 470.729 235.007 481.756 234.084C493.004 233.126 505.374 230.182 514.66 223.489C518.851 220.61 522.16 216.623 524.215 211.972C526.283 206.949 525.886 202.067 522.253 198.2C519.333 195.082 513.726 193.388 513.235 190.199C512.745 187.01 514.941 184.102 515.198 180.936C515.618 175.516 512.219 172.024 508.072 169.173C498.249 162.41 498.973 151.419 492.163 142.191C488.297 136.946 478.205 127.707 463.732 134.809C458.219 137.507 455.065 143.417 453.546 149.269C451.759 156.149 455.018 164.349 452.577 171.077C450.486 176.813 446.374 178.296 444.4 184.277C443.571 186.87 443.419 189.767 446.83 195.07C448.068 196.986 449.528 199.976 449.049 202.546C448.383 206.12 444.634 208.281 443.863 212.019C442.847 217.158 445.475 222.216 449.224 225.662Z" fill="#263238"/>
<path d="M521.027 213.829C526.12 212.171 527.253 204.567 523.363 201.366C520.91 199.334 517.604 198.726 515.186 196.694C511.145 193.365 513.703 189.417 514.988 185.352C517.779 176.533 511.413 171.837 504.802 167.667C499.779 164.49 498.214 160.226 497.058 154.596C497.058 154.514 497.174 154.479 497.198 154.596C498.249 158.708 499.452 162.714 502.84 165.541C505.596 167.877 508.995 169.174 511.694 171.58C516.214 175.61 517.441 180.551 515.56 186.228C515.023 187.863 513.82 189.802 513.761 191.507C513.633 195.514 516.845 197.079 519.894 198.516C522.23 199.684 524.835 200.946 526.026 203.422C527.837 207.171 525.162 213.059 521.19 214.098C520.945 214.192 520.828 213.9 521.027 213.829Z" fill="#263238"/>
<path d="M518.807 218.245C521.704 215.792 524.904 213.491 526.259 209.776C528.257 204.286 524.192 201.016 520.419 197.932C518.783 196.612 517.382 195.257 517.113 193.073C516.728 189.814 518.643 186.718 518.538 183.436C518.27 175.61 510.035 172.129 505.374 167.083C500.713 162.037 498.365 155.402 495.866 148.943C495.866 148.802 496.029 148.721 496.076 148.861C499.253 157.037 502.979 164.677 509.953 170.307C514.824 174.232 520.022 178.483 519.122 185.41C518.9 187.104 518.176 188.739 517.954 190.421C517.592 193.785 518.784 195.736 521.248 197.722C523.713 199.707 526.329 201.53 527.194 204.613C528.887 210.606 523.479 215.605 519.122 218.689C519.064 218.712 519 218.715 518.939 218.697C518.879 218.679 518.827 218.642 518.791 218.59C518.754 218.539 518.736 218.478 518.739 218.415C518.742 218.352 518.766 218.292 518.807 218.245Z" fill="#263238"/>
<path d="M442.216 210.313C444.19 206.19 448.056 203.679 446.059 198.562C444.715 195.058 442.274 192.442 442.368 188.459C442.599 185.245 443.922 182.208 446.117 179.85C448.722 176.673 451.724 174.009 453.371 170.12C455.158 165.915 455.52 161.277 455.929 156.792C455.929 156.698 456.081 156.71 456.081 156.792C455.871 162.831 455.427 169.068 451.759 174.173C449.843 176.824 447.344 179.02 445.463 181.695C442.076 186.52 442.87 191.04 445.463 195.946C446.631 198.2 447.799 200.466 447.11 203.071C446.421 205.676 444.4 207.557 443.139 209.846C437.789 219.588 450.054 228.769 458.931 228.909C459.328 228.909 459.387 229.528 458.931 229.528C452.32 229.622 444.505 224.856 442.006 218.712C441.451 217.375 441.183 215.937 441.219 214.49C441.255 213.044 441.595 211.621 442.216 210.313Z" fill="#263238"/>
<path d="M443.279 214.881C442.695 211.003 444.716 208.468 446.047 205.139C448.138 199.894 444.342 195.713 443.127 190.748C442.771 189.115 442.743 187.426 443.046 185.782C443.348 184.137 443.976 182.569 444.891 181.17C447.227 177.245 450.474 174.162 452.168 169.828C453.934 165.176 454.3 160.108 453.219 155.25C453.219 155.157 453.336 155.157 453.36 155.25C454.23 158.509 454.408 161.913 453.883 165.245C453.358 168.576 452.141 171.761 450.311 174.594C447.975 178.203 444.471 181.415 443.571 185.877C442.613 190.55 445.533 194.288 446.888 198.609C447.315 199.878 447.483 201.218 447.383 202.552C447.283 203.887 446.916 205.187 446.304 206.377C445.241 208.148 444.454 210.07 443.968 212.077C443.705 214.981 444.492 217.882 446.188 220.254C451.035 227.765 460.368 231.409 468.65 231.351C468.942 231.351 469 231.818 468.65 231.818C464.898 231.897 461.167 231.233 457.673 229.864C454.178 228.495 450.99 226.447 448.29 223.84C445.701 221.469 443.945 218.328 443.279 214.881Z" fill="#263238"/>
<path d="M390.832 486.635C393.951 487.71 483.356 488.341 486.778 486.215C488.075 485.42 490.575 449.654 489.839 446.161C487.362 434.305 475.53 398.375 475.53 398.375L415.724 397.779L431.68 445.589L431.878 456.102C431.878 456.102 397.49 471.123 393.986 473.868C390.482 476.613 387.713 485.572 390.832 486.635Z" fill="#DD6A57"/>
<path d="M390.552 486.763C393.694 487.838 483.589 488.48 487.035 486.343C488.636 485.35 489.57 466.24 490.119 446.056L431.645 445.472L431.832 455.984C431.832 455.984 397.303 471.17 393.776 473.891C390.248 476.613 387.421 485.689 390.552 486.763Z" fill="#F25E3D"/>
<path d="M391.871 483.178C406.94 482.921 467.797 483.283 482.69 484.17C482.806 484.17 482.806 484.252 482.69 484.264C467.75 484.848 406.94 483.995 391.871 483.423C391.556 483.411 391.556 483.178 391.871 483.178Z" fill="#263238"/>
<path d="M429.729 452.656C435.675 451.593 442.917 452.551 447.414 456.814C447.589 456.978 447.355 457.223 447.168 457.165C441.515 455.289 435.676 454.028 429.752 453.403C429.653 453.407 429.557 453.37 429.485 453.302C429.412 453.234 429.37 453.14 429.367 453.041C429.364 452.942 429.4 452.846 429.468 452.774C429.536 452.701 429.63 452.659 429.729 452.656Z" fill="#263238"/>
<path d="M425.431 455.202C431.365 454.139 438.618 455.097 443.115 459.36C443.291 459.524 443.057 459.769 442.858 459.71C437.208 457.839 431.373 456.578 425.454 455.949C425.355 455.952 425.259 455.916 425.186 455.848C425.114 455.78 425.072 455.686 425.069 455.587C425.065 455.488 425.102 455.392 425.17 455.319C425.238 455.247 425.332 455.205 425.431 455.202Z" fill="#263238"/>
<path d="M421.132 457.748C427.066 456.686 434.32 457.655 438.817 461.907C438.992 462.07 438.759 462.316 438.56 462.257C432.909 460.389 427.074 459.132 421.156 458.508C421.066 458.495 420.983 458.451 420.923 458.383C420.862 458.316 420.827 458.229 420.824 458.138C420.822 458.047 420.851 457.958 420.907 457.887C420.964 457.816 421.043 457.767 421.132 457.748Z" fill="#263238"/>
<path d="M416.833 460.306C422.767 459.232 430.021 460.201 434.518 464.453C434.693 464.628 434.46 464.874 434.261 464.804C428.61 462.936 422.776 461.678 416.857 461.054C416.758 461.057 416.661 461.021 416.589 460.953C416.517 460.885 416.474 460.791 416.471 460.692C416.468 460.593 416.505 460.496 416.573 460.424C416.641 460.352 416.734 460.309 416.833 460.306Z" fill="#263238"/>
<path d="M421.471 447.329C425.641 450.623 431.096 452.001 435.978 453.835C436.481 454.033 436.89 453.554 436.913 453.099C436.938 453.099 436.963 453.093 436.985 453.081C437.007 453.069 437.025 453.052 437.039 453.031C437.053 453.01 437.062 452.987 437.064 452.962C437.066 452.937 437.063 452.912 437.053 452.889C435.296 447.626 432.181 442.92 428.024 439.245C425.559 437.143 421.226 435.671 418.878 438.86C416.53 442.049 419.041 445.401 421.471 447.329ZM419.999 442.539C418.995 436.033 425.956 439.491 427.708 441.114C428.829 442.179 429.871 443.322 430.827 444.537C432.78 447.057 434.601 449.677 436.282 452.386C433.946 451.335 431.528 450.494 429.145 449.525C426.307 448.368 420.548 446.137 419.999 442.539Z" fill="#263238"/>
<path d="M456.922 444C455.509 440.285 450.941 440.495 448.009 441.897C443.02 444.319 438.754 448.008 435.639 452.597C435.625 452.617 435.616 452.64 435.612 452.664C435.608 452.688 435.609 452.713 435.616 452.736C435.622 452.76 435.634 452.782 435.651 452.8C435.667 452.818 435.687 452.833 435.71 452.842C435.677 452.953 435.671 453.07 435.691 453.184C435.711 453.298 435.758 453.406 435.827 453.499C435.896 453.591 435.986 453.667 436.089 453.719C436.192 453.772 436.306 453.799 436.422 453.8C441.62 453.333 447.239 453.473 452.144 451.464C455.006 450.261 458.23 447.504 456.922 444ZM444.213 451.499C441.667 451.791 439.109 451.954 436.574 452.34C438.922 450.184 441.378 448.149 443.933 446.242C445.186 445.339 446.497 444.52 447.858 443.789C449.984 442.703 457.623 441.231 454.866 447.294C453.348 450.553 447.203 451.148 444.213 451.499Z" fill="#263238"/>
<path d="M530.523 309.39C519.555 320.288 504.276 327.169 491.275 333.92C480.109 339.667 470.635 345.274 467.049 353.17C463.907 360.179 489.979 437.05 489.979 437.05L426.692 442.774C426.692 442.774 399.16 367.549 406.052 335.17C407.22 329.855 412.488 322.975 420.069 315.464C447.157 288.715 503.318 253.953 503.318 253.953H537.812C537.812 253.953 552.121 287.898 530.523 309.39Z" fill="#455A64"/>
<path d="M533.922 261.463C533.782 259.898 533.619 258.333 533.467 256.791C533.467 256.639 533.21 256.639 533.233 256.791C534.658 269.36 535.838 283.143 529.916 294.812C524.216 306.026 512.792 312.777 502.618 319.435L484.162 331.7L474.911 337.798C472.375 339.395 469.922 341.123 467.564 342.972C465.411 344.638 463.592 346.695 462.202 349.035C460.778 351.684 460.168 354.695 460.45 357.69C461.957 377.898 481.966 431.419 482.433 433.148C482.468 433.226 482.53 433.288 482.607 433.323C482.684 433.359 482.772 433.365 482.853 433.341C482.935 433.316 483.005 433.263 483.05 433.191C483.095 433.119 483.113 433.034 483.099 432.95C478.754 419.47 467.038 389.474 461.793 362.421C461.128 358.917 460.625 355.284 461.712 351.838C462.67 349.096 464.329 346.651 466.524 344.748C468.663 342.848 470.957 341.129 473.381 339.608L482.725 333.394L501.053 321.281C511.063 314.658 522.347 308.233 528.853 297.767C535.686 286.881 535.032 273.728 533.922 261.463Z" fill="#263238"/>
<path d="M530.523 309.39C519.555 320.289 504.276 327.169 491.275 333.92C468.299 327.893 439.284 320.359 420.022 315.511C447.11 288.762 503.272 254 503.272 254H537.765C537.765 254 552.121 287.898 530.523 309.39Z" fill="#263238"/>
<path d="M273.674 441.349C276.337 443.288 361.502 470.492 365.403 469.476C366.887 469.102 371.571 456.931 376.815 442.061C377.983 438.849 379.151 435.531 380.249 432.144C387.737 410.207 395.166 386.752 395.166 386.752L338.245 368.39L324.882 414.284L321.95 424.365C321.95 424.365 284.677 428.535 280.519 430.112C276.36 431.688 271.01 439.398 273.674 441.349Z" fill="#DD6A57"/>
<path d="M273.37 441.383C276.045 443.346 361.688 470.691 365.648 469.674C367.459 469.207 374.035 451.23 380.576 432.132L324.906 414.179L321.95 424.306C321.95 424.306 284.478 428.499 280.296 430.076C276.115 431.653 270.695 439.433 273.37 441.383Z" fill="#F25E3D"/>
<path d="M275.694 438.346C290.155 442.586 348.115 461.019 362.132 466.31C362.249 466.31 362.226 466.427 362.132 466.392C347.695 462.514 289.886 443.602 275.694 438.591C275.309 438.475 275.379 438.264 275.694 438.346Z" fill="#263238"/>
<path d="M320.911 420.475C326.903 421.222 333.538 424.294 336.563 429.703C336.68 429.913 336.388 430.076 336.213 429.959C331.372 426.493 326.176 423.552 320.712 421.187C320.63 421.151 320.564 421.086 320.525 421.005C320.487 420.924 320.479 420.832 320.503 420.745C320.528 420.659 320.582 420.584 320.657 420.534C320.731 420.484 320.822 420.463 320.911 420.475Z" fill="#263238"/>
<path d="M316.051 421.631C322.032 422.379 328.666 425.451 331.704 430.859C331.82 431.058 331.517 431.221 331.353 431.116C326.51 427.647 321.31 424.706 315.841 422.344C315.756 422.308 315.688 422.242 315.648 422.159C315.609 422.076 315.602 421.982 315.628 421.893C315.654 421.805 315.711 421.73 315.789 421.681C315.867 421.633 315.961 421.615 316.051 421.631Z" fill="#263238"/>
<path d="M311.192 422.776C317.173 423.535 323.807 426.607 326.833 432.004C326.961 432.214 326.657 432.378 326.494 432.261C321.648 428.8 316.448 425.863 310.982 423.5C310.904 423.458 310.843 423.391 310.808 423.31C310.774 423.228 310.769 423.138 310.794 423.053C310.818 422.968 310.871 422.894 310.944 422.844C311.016 422.793 311.104 422.769 311.192 422.776Z" fill="#263238"/>
<path d="M306.38 423.932C312.372 424.68 319.007 427.763 322.032 433.16C322.149 433.37 321.857 433.534 321.682 433.417C316.842 429.951 311.646 427.014 306.181 424.656C306.104 424.615 306.044 424.549 306.01 424.469C305.976 424.388 305.97 424.299 305.993 424.215C306.016 424.131 306.067 424.058 306.137 424.006C306.207 423.955 306.293 423.929 306.38 423.932Z" fill="#263238"/>
<path d="M314.615 412.882C317.617 417.263 322.417 420.194 326.529 423.395C326.625 423.46 326.736 423.502 326.852 423.516C326.967 423.529 327.084 423.515 327.193 423.474C327.302 423.432 327.4 423.365 327.477 423.279C327.555 423.192 327.61 423.087 327.639 422.974C327.663 422.98 327.688 422.979 327.712 422.974C327.736 422.968 327.759 422.957 327.778 422.941C327.797 422.925 327.812 422.905 327.822 422.883C327.833 422.86 327.838 422.836 327.837 422.811C327.717 417.264 326.142 411.847 323.27 407.1C321.541 404.367 317.85 401.669 314.65 404.016C311.449 406.364 312.862 410.371 314.615 412.882ZM314.615 407.871C315.596 401.353 321.214 406.703 322.406 408.806C323.158 410.155 323.814 411.556 324.368 412.999C325.479 415.99 326.438 419.034 327.242 422.122C325.314 420.416 323.258 418.886 321.273 417.263C318.925 415.359 314.089 411.516 314.626 407.918L314.615 407.871Z" fill="#263238"/>
<path d="M349.447 420.288C349.202 416.328 344.775 415.219 341.562 415.616C336.07 416.467 330.898 418.747 326.564 422.227C326.545 422.242 326.529 422.262 326.518 422.284C326.507 422.306 326.502 422.331 326.502 422.356C326.502 422.38 326.507 422.405 326.518 422.427C326.529 422.449 326.545 422.469 326.564 422.484C326.488 422.58 326.438 422.693 326.416 422.813C326.395 422.933 326.404 423.056 326.442 423.172C326.48 423.288 326.547 423.392 326.635 423.476C326.724 423.56 326.832 423.62 326.95 423.652C332.054 424.75 337.381 426.561 342.672 426.07C345.756 425.731 349.669 424.038 349.447 420.288ZM335.033 423.664C332.51 423.173 330.022 422.577 327.487 422.192C330.369 420.827 333.32 419.615 336.329 418.559C337.792 418.066 339.287 417.676 340.803 417.391C343.139 416.982 350.884 417.858 346.503 422.788C344.085 425.486 338.035 424.236 335.033 423.664Z" fill="#263238"/>
<path d="M322.417 408.852L385.494 427.413L405.048 355.424C406.753 331.63 411.04 320.09 425.033 315.709C448.862 308.327 507.08 335.567 533.443 317.298C554.854 302.44 537.777 253.895 537.777 253.895H475.868C475.868 253.895 468.393 262.994 467.014 268.344C467.014 268.344 390.353 262.433 373.194 284.183C350.265 313.385 322.417 408.852 322.417 408.852Z" fill="#455A64"/>
<path d="M435.78 314.67C432.09 314.351 428.373 314.639 424.776 315.523C421.359 316.444 418.175 318.076 415.432 320.312C412.774 322.476 410.621 325.195 409.124 328.278C407.372 331.888 406.788 335.976 406.169 339.959C405.83 342.295 405.608 344.631 405.48 346.967C405.351 349.304 405.258 352.551 405.258 354.548C405.258 354.723 405.491 354.735 405.491 354.548C405.526 352.448 405.701 350.352 406.017 348.276C406.274 346.302 406.624 344.339 406.963 342.377C407.524 338.468 408.435 334.617 409.685 330.871C410.891 327.663 412.747 324.739 415.137 322.283C417.527 319.826 420.399 317.891 423.573 316.597C425.495 315.821 427.503 315.28 429.554 314.985C431.629 314.762 433.718 314.695 435.803 314.787C435.803 314.787 435.827 314.67 435.78 314.67Z" fill="#263238"/>
<path d="M524.519 277.385C522.369 276.898 520.287 276.153 518.316 275.165C516.348 274.264 514.563 273.009 513.048 271.462C511.904 269.966 511.138 268.214 510.817 266.358C510.572 265.353 510.432 264.325 510.268 263.309C510.105 262.293 509.813 261.078 509.731 259.957C509.731 259.817 509.486 259.828 509.497 259.957C510.023 264.185 508.832 268.904 511.985 272.502C513.595 274.14 515.55 275.398 517.709 276.181C519.847 277.117 522.132 277.671 524.461 277.817C524.512 277.814 524.561 277.793 524.599 277.758C524.637 277.723 524.662 277.676 524.669 277.625C524.676 277.574 524.665 277.522 524.637 277.478C524.61 277.434 524.568 277.401 524.519 277.385Z" fill="#263238"/>
<path d="M536.106 267.631C535.546 265.349 534.892 263.099 534.144 260.879C534.144 260.739 533.864 260.798 533.922 260.95C536.949 270.21 538.278 279.94 537.847 289.673C537.792 294.276 537.169 298.854 535.99 303.304C534.859 307.556 532.103 311.193 528.315 313.431C524.408 315.471 520.167 316.796 515.793 317.345C510.891 318.111 505.932 318.459 500.971 318.384C490.867 318.291 480.833 316.924 470.822 315.744C461.116 314.576 451.409 313.256 441.679 312.38C433.712 311.668 425.22 311.586 417.85 315.113C410.841 318.489 406.262 324.925 403.272 331.922C399.908 339.83 398.004 348.357 395.726 356.615C393.016 366.462 379.023 420.159 378.812 422.46C378.812 422.682 379.128 422.671 379.151 422.46C379.642 417.414 391.755 373.004 394.476 363.087L398.576 348.229C399.663 344.269 400.737 340.297 402.081 336.419C404.674 329.025 408.482 321.608 415.222 317.193C422.405 312.52 431.353 312.135 439.658 312.742C444.33 313.069 449.003 313.7 453.675 314.249L469.012 316.071C478.8 317.239 488.601 318.606 498.459 318.91C503.389 319.097 508.325 318.898 513.224 318.314C517.655 317.882 522.005 316.844 526.154 315.23C529.826 313.809 532.913 311.192 534.915 307.801C536.971 304.122 537.672 299.858 538.127 295.735C539.095 286.321 538.412 276.81 536.106 267.631Z" fill="#263238"/>
<path d="M490.68 196.343C482.503 223.209 475.658 244.059 467.738 248.907C461.349 252.843 421.634 260.179 413.913 260.587C410.865 260.751 408.33 260.844 406.531 260.914C402.092 261.066 395.656 231.549 398.903 228.068C399.651 227.274 402.594 226.725 406.718 226.328C420.583 224.984 447.788 225.358 449.458 223.863C451.128 222.368 460.274 210.944 472.609 196.028C481.113 185.725 487.923 182.816 490.586 185.83C492.105 187.571 492.256 191.157 490.68 196.343Z" fill="#DD6A57"/>
<path d="M413.902 260.634C409.212 262.562 404.401 264.181 399.499 265.482C395.598 266.334 384.314 268.507 382.913 264.314C381.978 261.452 388.473 259.384 393.04 257.831C395.435 257.013 398.483 254.747 397.887 253.158C396.86 250.448 390.669 252.703 386.545 254.747C378.602 258.695 367.856 266.031 363.441 261.837C361.77 260.249 364.001 257.714 367.179 255.284C362.097 258.018 356.736 260.19 354.809 258.497C353.711 257.539 353.734 256.324 354.47 254.992C353.834 255.228 353.143 255.273 352.482 255.124C351.821 254.975 351.217 254.637 350.744 254.151C349.272 252.387 350.206 249.993 352.099 247.598C351.803 247.546 351.524 247.424 351.285 247.244C351.045 247.063 350.852 246.828 350.72 246.559C347.707 241.221 365.462 227.636 371.372 226.643C388.73 223.699 406.812 226.374 406.812 226.374C413.166 232.191 413.925 260.622 413.902 260.634Z" fill="#DD6A57"/>
<path d="M389.816 243.054C385.701 243.384 381.711 244.625 378.135 246.687C373.965 249.163 370.555 252.703 366.665 255.553C366.56 255.635 366.665 255.798 366.782 255.716C368.627 254.233 370.625 252.925 372.517 251.511C374.409 250.098 376.196 248.673 378.147 247.435C381.66 245.124 385.656 243.65 389.828 243.124C389.828 243.124 389.863 243.043 389.816 243.054Z" fill="#263238"/>
<path d="M387.106 235.591C382.47 236.368 377.926 237.616 373.544 239.317C368.872 241.338 365.006 244.9 361.256 248.311C359.013 250.367 356.81 252.47 354.645 254.619C354.551 254.712 354.645 254.864 354.773 254.782C358.581 251.247 362.475 247.828 366.454 244.527C370.175 241.425 374.475 239.094 379.104 237.67C381.744 236.864 384.431 236.257 387.117 235.649L387.106 235.591Z" fill="#263238"/>
<path d="M382.726 228.933C378.31 229.54 374.444 230.101 370.426 232.145C365.111 234.902 359.831 239.796 357.974 241.489C355.93 243.405 353.944 245.391 351.993 247.4C351.912 247.482 351.993 247.622 352.134 247.54C356.596 243.173 361.332 239.096 366.314 235.334C368.666 233.497 371.286 232.031 374.082 230.988C376.906 230.09 379.802 229.433 382.737 229.026C382.737 229.026 382.749 228.933 382.726 228.933Z" fill="#263238"/>
<path d="M493.156 191.857C492.128 199.485 486.323 214.133 486.323 214.133L457.751 210.874C457.751 210.874 473.1 191.227 484.676 184.008C489.325 181.123 494.207 184.148 493.156 191.857Z" fill="#F25E3D"/>
<path d="M486.568 210.244C482.351 209.484 478.146 208.783 473.894 208.27C471.768 208.013 469.654 207.791 467.528 207.592C465.402 207.393 463.253 207.428 461.139 207.207C461.022 207.207 461.01 207.382 461.139 207.393C463.253 207.499 465.391 207.907 467.505 208.129C469.619 208.351 471.745 208.597 473.871 208.842C478.099 209.344 482.34 209.835 486.568 210.43C486.673 210.442 486.673 210.267 486.568 210.244Z" fill="#263238"/>
<path d="M482.62 193.411C483.823 192.333 485.27 191.564 486.837 191.168C486.243 191.713 485.579 192.177 484.863 192.547C484.155 192.93 483.401 193.221 482.62 193.411ZM478.929 206.926C478.171 206.688 477.386 206.547 476.593 206.505C477.276 206.932 478.015 207.262 478.789 207.487C479.545 207.73 480.331 207.871 481.125 207.907C480.441 207.481 479.702 207.151 478.929 206.926ZM473.018 194.778C472.774 195.534 472.632 196.32 472.598 197.114C473.02 196.43 473.346 195.691 473.567 194.918C473.812 194.162 473.953 193.376 473.988 192.582C473.573 193.27 473.247 194.008 473.018 194.778Z" fill="white"/>
<path d="M493.156 191.858C493.156 192.278 493.039 192.734 492.946 193.178C492.852 193.622 492.806 193.89 492.712 194.276C491.109 201.053 488.972 207.692 486.323 214.133L485.155 214.005L484.045 213.876L475.062 212.848L473.731 212.708L464.772 211.692L463.604 211.552L460.31 211.178L484.629 184.008C489.769 181.999 494.184 184.148 493.156 191.858Z" fill="#263238"/>
<path d="M465.589 268.951C465.589 268.951 492.735 273.144 542.858 264.746C542.858 264.746 518.094 203.328 500.807 187.652C492.957 180.503 485.984 182.244 480.389 187.652C478.999 189.007 462.342 214.004 461.419 222.332C460.613 229.691 467.143 237.261 467.143 237.261L465.589 268.951Z" fill="#F25E3D"/>
<path d="M515.373 239.843C514.828 239.249 514.364 238.585 513.995 237.869C513.602 237.166 513.311 236.411 513.13 235.626C513.675 236.22 514.139 236.884 514.508 237.6C514.892 238.307 515.183 239.061 515.373 239.843ZM490.633 212.334C490.263 211.615 489.795 210.951 489.243 210.36C489.433 211.142 489.724 211.896 490.107 212.603C490.477 213.319 490.941 213.983 491.486 214.577C491.307 213.794 491.02 213.039 490.633 212.334ZM533.618 260.658C533.245 259.947 532.782 259.288 532.24 258.696C532.43 259.477 532.721 260.231 533.104 260.938C533.474 261.655 533.938 262.318 534.483 262.912C534.295 262.126 534.004 261.368 533.618 260.658ZM483.928 246.489C483.558 245.773 483.095 245.109 482.55 244.515C482.74 245.297 483.031 246.051 483.414 246.758C483.784 247.474 484.248 248.138 484.792 248.732C484.605 247.949 484.314 247.195 483.928 246.489ZM494.978 186.181C494.616 185.46 494.152 184.795 493.6 184.207C493.995 185.773 494.765 187.221 495.843 188.424C495.662 187.638 495.366 186.882 494.966 186.181H494.978ZM497.945 236.946C498.66 236.574 499.323 236.11 499.919 235.568C499.133 235.755 498.375 236.046 497.665 236.432C496.95 236.804 496.287 237.268 495.691 237.81C496.477 237.623 497.235 237.332 497.945 236.946ZM471.57 226.293C472.28 225.92 472.94 225.457 473.532 224.915C472.747 225.094 471.992 225.385 471.289 225.779C470.573 226.149 469.909 226.612 469.315 227.157C470.114 226.973 470.884 226.682 471.605 226.293H471.57ZM484.828 192.547C485.544 192.177 486.208 191.714 486.802 191.169C485.235 191.564 483.788 192.334 482.585 193.412C483.379 193.224 484.144 192.933 484.863 192.547H484.828ZM489.278 263.555C490.005 263.195 490.681 262.739 491.287 262.2C489.721 262.595 488.274 263.365 487.07 264.443C487.853 264.245 488.607 263.946 489.313 263.555H489.278ZM512.499 206.447C513.21 206.074 513.87 205.611 514.462 205.069C512.895 205.464 511.448 206.234 510.245 207.312C511.043 207.127 511.813 206.836 512.534 206.447H512.499ZM520.804 254.222C521.521 253.852 522.185 253.389 522.779 252.844C521.993 253.021 521.237 253.312 520.536 253.708C519.82 254.078 519.156 254.541 518.562 255.086C519.355 254.899 520.121 254.608 520.84 254.222H520.804ZM503.4 249.152C502.643 248.909 501.858 248.768 501.064 248.732C501.747 249.158 502.486 249.488 503.26 249.713C504.018 249.951 504.803 250.092 505.596 250.134C504.923 249.71 504.196 249.38 503.435 249.152H503.4ZM470.554 240.859C469.797 240.616 469.011 240.474 468.217 240.439C468.901 240.865 469.64 241.195 470.413 241.42C471.171 241.658 471.956 241.799 472.75 241.84C472.077 241.417 471.35 241.087 470.589 240.859H470.554ZM504.358 219.658C503.602 219.414 502.816 219.272 502.022 219.238C502.71 219.662 503.453 219.992 504.229 220.219C504.987 220.458 505.772 220.599 506.566 220.64C505.888 220.218 505.157 219.888 504.393 219.658H504.358ZM478.894 206.926C478.136 206.688 477.351 206.547 476.558 206.506C477.241 206.932 477.98 207.262 478.754 207.487C479.51 207.73 480.296 207.872 481.09 207.907C480.417 207.484 479.69 207.154 478.929 206.926H478.894ZM529.694 241.63C528.937 241.386 528.151 241.244 527.357 241.209C528.043 241.631 528.782 241.961 529.553 242.191C530.312 242.428 531.096 242.569 531.89 242.611C531.217 242.188 530.49 241.858 529.729 241.63H529.694ZM520.419 222.765C520.176 223.522 520.034 224.308 519.998 225.102C520.425 224.418 520.755 223.679 520.98 222.906C521.219 222.148 521.36 221.363 521.4 220.569C520.988 221.256 520.67 221.994 520.454 222.765H520.419ZM484.874 228.933C484.631 229.689 484.489 230.475 484.454 231.269C484.88 230.586 485.21 229.847 485.435 229.073C485.675 228.316 485.812 227.53 485.844 226.737C485.438 227.425 485.124 228.163 484.909 228.933H484.874ZM473.906 261.032C473.662 261.788 473.52 262.574 473.485 263.368C473.91 262.679 474.24 261.937 474.467 261.16C474.706 260.403 474.847 259.618 474.887 258.824C474.46 259.511 474.13 260.254 473.906 261.032ZM508.843 263.368C508.6 264.125 508.458 264.91 508.423 265.704C508.845 265.02 509.172 264.281 509.392 263.508C509.637 262.752 509.778 261.966 509.813 261.172C509.399 261.861 509.073 262.598 508.843 263.368ZM500.083 198.645C499.838 199.401 499.697 200.187 499.662 200.981C500.084 200.295 500.414 199.557 500.643 198.785C500.88 198.027 501.022 197.242 501.064 196.449C500.639 197.128 500.308 197.863 500.083 198.633V198.645ZM466.722 213.608C466.478 214.364 466.336 215.15 466.302 215.944C466.726 215.255 467.056 214.513 467.283 213.736C467.527 212.98 467.669 212.194 467.703 211.4C467.279 212.089 466.949 212.831 466.722 213.608Z" fill="white"/>
<path d="M491.918 185.2C491.918 186.601 487.982 196.881 481.884 198.165C479.899 198.598 477.06 187.875 477.06 187.875L476.675 187.127L471.208 176.708L481.989 164.852L483.578 163.24C483.578 163.24 484.886 166.183 486.475 169.874L486.697 170.4C486.79 170.61 486.884 170.797 486.965 170.996C487.211 171.545 487.456 172.164 487.69 172.666C487.923 173.168 488.052 173.519 488.227 173.974C488.402 174.43 488.577 174.874 488.764 175.318C490.04 178.536 491.093 181.838 491.918 185.2Z" fill="#DD6A57"/>
<path d="M486.475 169.921C486.192 173.336 485.169 176.648 483.476 179.627C481.784 182.607 479.463 185.182 476.675 187.173L471.208 176.754L481.989 164.898L483.578 163.286C483.578 163.286 484.886 166.183 486.475 169.921Z" fill="#263238"/>
<path d="M451.012 162.843C453.348 183.354 465.881 184.288 470.308 183.786C474.327 183.319 487.935 181.251 487.748 160.611C487.561 139.971 477.293 134.552 468.054 135.112C458.814 135.673 448.699 142.319 451.012 162.843Z" fill="#DD6A57"/>
<path d="M453.558 158.976C454.025 158.847 454.446 158.66 454.901 158.497C455.397 158.389 455.844 158.122 456.175 157.738C456.257 157.598 456.291 157.435 456.27 157.274C456.249 157.113 456.174 156.963 456.058 156.85C455.796 156.659 455.487 156.542 455.165 156.512C454.842 156.481 454.517 156.537 454.224 156.675C453.582 156.857 453.031 157.274 452.682 157.843C452.615 157.977 452.587 158.127 452.601 158.276C452.616 158.425 452.672 158.567 452.764 158.685C452.855 158.803 452.978 158.894 453.119 158.945C453.259 158.996 453.412 159.007 453.558 158.976Z" fill="#263238"/>
<path d="M467.575 157.072C467.098 157.066 466.622 157.031 466.15 156.967C465.642 156.998 465.137 156.863 464.713 156.581C464.599 156.467 464.525 156.318 464.504 156.157C464.483 155.997 464.516 155.834 464.596 155.694C464.801 155.441 465.069 155.248 465.372 155.133C465.676 155.018 466.005 154.986 466.325 155.04C466.99 155.041 467.629 155.296 468.112 155.752C468.216 155.861 468.285 155.998 468.313 156.146C468.341 156.293 468.326 156.446 468.269 156.585C468.212 156.724 468.117 156.844 467.994 156.931C467.871 157.017 467.725 157.066 467.575 157.072Z" fill="#263238"/>
<path d="M464.97 162.492C464.97 162.492 465.087 162.492 465.099 162.597C465.204 163.999 465.566 165.588 466.886 165.915V165.996C465.309 165.95 464.854 163.835 464.97 162.492Z" fill="#263238"/>
<path d="M466.056 160.892C468.287 160.472 468.965 164.957 466.897 165.342C464.83 165.728 464.187 161.242 466.056 160.892Z" fill="#263238"/>
<path d="M466.968 160.997C467.4 161.184 467.856 161.581 468.335 161.558C468.813 161.534 469.234 160.997 469.503 160.483C469.503 160.483 469.573 160.483 469.584 160.483C469.716 160.883 469.69 161.318 469.512 161.7C469.334 162.082 469.017 162.382 468.627 162.539C467.797 162.784 467.085 162.107 466.734 161.277C466.699 161.172 466.804 160.915 466.968 160.997Z" fill="#263238"/>
<path d="M457.203 163.368C457.203 163.368 457.097 163.449 457.109 163.508C457.378 164.886 457.448 166.51 456.268 167.176C456.268 167.176 456.268 167.257 456.268 167.246C457.787 166.79 457.67 164.629 457.203 163.368Z" fill="#263238"/>
<path d="M455.731 162.106C453.465 162.293 454.014 166.779 456.105 166.627C458.195 166.475 457.623 161.954 455.731 162.106Z" fill="#263238"/>
<path d="M454.832 162.515C454.504 162.807 454.201 163.275 453.78 163.356C453.36 163.438 452.869 163.006 452.495 162.574H452.425C452.507 163.438 452.904 164.303 453.745 164.373C454.586 164.443 454.983 163.625 455.089 162.737C455.112 162.632 454.96 162.41 454.832 162.515Z" fill="#263238"/>
<path d="M460.333 169.652C460.333 169.652 460.333 171.766 460.473 172.748C460.473 172.841 460.73 172.853 461.069 172.829C461.929 172.873 462.785 172.678 463.542 172.266C464.298 171.853 464.926 171.24 465.356 170.493C465.414 170.388 465.274 170.306 465.192 170.388C464.057 171.412 462.625 172.046 461.104 172.199C460.999 171.93 461.221 168.566 461.104 168.578C460.348 168.746 459.621 169.022 458.943 169.395C458.803 164.98 459.387 160.576 459.188 156.184C459.188 156.021 458.943 156.009 458.919 156.184C458.156 160.882 457.866 165.644 458.055 170.4C458.055 170.89 459.971 169.921 460.333 169.652Z" fill="#263238"/>
<path d="M461.139 172.339C461.795 173.075 462.627 173.634 463.557 173.962C464.066 174.126 464.613 174.126 465.122 173.962C466.29 173.6 466.197 172.561 465.928 171.685C465.78 171.22 465.58 170.773 465.333 170.353C464.182 171.445 462.713 172.141 461.139 172.339Z" fill="#263238"/>
<path d="M463.557 173.963C464.066 174.126 464.613 174.126 465.122 173.963C466.29 173.601 466.197 172.561 465.928 171.685C465.334 171.743 464.777 171.999 464.347 172.412C463.916 172.825 463.638 173.372 463.557 173.963Z" fill="#FF9CBD"/>
<path d="M486.405 162.363C484.162 162.363 477.866 156.687 476.861 145.893C476.861 145.893 478.427 155.53 479.268 156.897C480.109 158.263 475.763 153.673 474.806 144.982C472.214 147.16 469.322 148.954 466.22 150.309C462.19 151.769 459.667 151.932 459.352 151.652C459.036 151.372 464.947 149.001 466.442 146.98C466.442 146.98 455.929 152.902 450.86 153.673C450.288 153.766 448.664 141.817 456.081 136.152C463.499 130.486 476.277 134.984 479.852 137.974C479.852 137.974 483.788 138.231 488.472 143.686C493.156 149.141 488.834 162.328 486.405 162.363Z" fill="#263238"/>
<path d="M468.218 168.964C466.499 168.954 464.855 168.265 463.644 167.045C462.433 165.826 461.755 164.176 461.758 162.458C461.762 161.244 462.106 160.056 462.752 159.028C463.398 158 464.319 157.175 465.41 156.645C466.502 156.115 467.721 155.902 468.928 156.031C470.134 156.159 471.281 156.624 472.237 157.372C473.192 158.12 473.919 159.121 474.334 160.261C474.748 161.402 474.835 162.636 474.583 163.823C474.331 165.01 473.751 166.103 472.908 166.977C472.066 167.85 470.995 168.47 469.818 168.765C469.295 168.896 468.757 168.963 468.218 168.964ZM462.623 162.458C462.618 163.569 462.943 164.657 463.557 165.584C464.171 166.511 465.047 167.235 466.072 167.664C467.098 168.093 468.228 168.208 469.319 167.995C470.41 167.782 471.413 167.25 472.202 166.466C472.99 165.682 473.528 164.682 473.748 163.593C473.968 162.503 473.86 161.372 473.437 160.344C473.015 159.316 472.296 158.436 471.374 157.817C470.451 157.197 469.365 156.865 468.253 156.862C467.788 156.86 467.324 156.919 466.875 157.038C465.664 157.339 464.588 158.036 463.818 159.018C463.048 159.999 462.627 161.21 462.623 162.458Z" fill="#F25E3D"/>
<path d="M454.633 170.681C452.005 171.019 449.481 168.414 449.026 164.84C448.786 163.24 449.055 161.606 449.797 160.168C450.078 159.532 450.518 158.979 451.074 158.563C451.631 158.147 452.286 157.881 452.975 157.792C453.664 157.703 454.365 157.793 455.009 158.054C455.654 158.314 456.22 158.737 456.653 159.28C457.733 160.484 458.411 161.995 458.592 163.602C459.025 166.954 457.424 169.956 455.088 170.61L454.633 170.681ZM450.556 160.577C449.904 161.85 449.667 163.296 449.879 164.712C450.276 167.784 452.367 170.05 454.551 169.769C456.735 169.489 458.149 166.767 457.751 163.695C457.592 162.273 456.996 160.935 456.046 159.864C455.687 159.441 455.234 159.11 454.722 158.897C454.21 158.683 453.655 158.595 453.102 158.638L452.787 158.696C452.304 158.836 451.856 159.075 451.472 159.399C451.087 159.723 450.775 160.124 450.556 160.577Z" fill="#F25E3D"/>
<path d="M462.062 163.169L462.529 162.445C461.454 161.744 459.025 160.938 457.705 162.819L458.405 163.333C459.62 161.639 461.968 163.111 462.062 163.169Z" fill="#F25E3D"/>
<path d="M490.937 161.114L491.649 160.611C491.416 160.284 489.313 157.376 487.386 157.306C485.458 157.236 474.175 159.829 473.696 159.934L473.883 160.786C477.153 160.039 485.937 158.123 487.362 158.17C488.787 158.217 490.353 160.308 490.937 161.114Z" fill="#F25E3D"/>
<path d="M488.601 168.169C488.318 168.339 488.021 168.483 487.713 168.601C487.405 168.717 487.083 168.788 486.755 168.811C486.337 168.857 485.914 168.809 485.517 168.671C485.204 168.565 484.906 168.42 484.629 168.239C484.243 167.973 483.907 167.64 483.636 167.258V161.627C483.636 161.627 486.778 154.409 489.956 155.413C493.133 156.418 491.766 166.241 488.601 168.169Z" fill="#DD6A57"/>
<path d="M489.547 158.24C489.605 158.24 489.629 158.299 489.547 158.322C487.374 159.759 486.568 162.2 486.159 164.641C486.249 164.378 486.395 164.136 486.586 163.934C486.778 163.732 487.011 163.574 487.27 163.471C487.529 163.368 487.806 163.322 488.085 163.336C488.363 163.351 488.634 163.425 488.881 163.555C488.951 163.555 488.881 163.695 488.881 163.695C488.443 163.643 487.999 163.728 487.61 163.937C487.222 164.145 486.907 164.469 486.708 164.863C486.391 165.531 486.148 166.233 485.984 166.954C485.914 167.188 485.505 167.153 485.54 166.896C484.898 163.847 486.381 159.175 489.547 158.24Z" fill="#263238"/>
<path d="M488.192 167.374C488.192 167.564 488.135 167.749 488.03 167.906C487.925 168.064 487.775 168.187 487.6 168.259C487.425 168.332 487.233 168.351 487.047 168.314C486.861 168.277 486.69 168.186 486.556 168.052C486.422 167.918 486.331 167.747 486.294 167.561C486.257 167.375 486.276 167.183 486.349 167.008C486.421 166.833 486.544 166.683 486.702 166.578C486.859 166.473 487.044 166.417 487.234 166.417C487.488 166.417 487.731 166.517 487.911 166.697C488.091 166.877 488.192 167.12 488.192 167.374Z" fill="white"/>
<path d="M489.839 165.565C489.839 165.699 489.799 165.83 489.725 165.941C489.65 166.052 489.544 166.139 489.421 166.191C489.297 166.242 489.161 166.255 489.029 166.229C488.898 166.203 488.777 166.138 488.682 166.044C488.588 165.949 488.523 165.828 488.497 165.697C488.471 165.565 488.484 165.429 488.535 165.305C488.587 165.182 488.674 165.076 488.785 165.001C488.896 164.927 489.027 164.887 489.161 164.887C489.341 164.887 489.513 164.959 489.64 165.086C489.768 165.213 489.839 165.385 489.839 165.565Z" fill="white"/>
<path d="M504.51 191.052C519.858 211.949 540.533 247.225 530.897 254.818C515.057 267.281 469.374 273.729 458.908 274.78C454.387 275.224 445.954 245.578 449.037 241.828C452.121 238.079 500.316 236.362 500.713 233.418C500.935 231.748 497.314 217.299 492.981 199.322C487.97 178.588 500.106 185.106 504.51 191.052Z" fill="#DD6A57"/>
<path d="M456.981 239.562C456.981 239.562 443.162 239.177 434.121 239.352C429.075 239.445 420.443 240.391 416.764 242.155C411.274 244.795 389.979 259.349 393.402 264.594C396.497 269.336 413.259 254.502 413.259 254.502C413.259 254.502 395.014 268.04 399.826 273.004C404.639 277.969 421.249 258.765 421.249 258.765C421.249 258.765 402.875 273.028 408.622 277.455C412.967 280.784 429.028 264.185 429.028 264.185C429.028 264.185 413.329 276.555 417.64 280.165C422.417 284.159 438.198 269.769 438.198 269.769C450.72 277.104 459.691 275.481 465.928 273.565C467.412 273.074 456.981 239.562 456.981 239.562Z" fill="#DD6A57"/>
<path d="M419.193 249.444C416.997 250.951 414.766 252.457 412.71 254.116C410.654 255.775 408.669 257.62 406.776 259.454C404.272 261.869 402.046 264.557 400.142 267.467C403.891 262.538 411.145 256.359 413.201 254.618C415.257 252.878 417.207 251.114 419.251 249.432C419.31 249.479 419.24 249.409 419.193 249.444Z" fill="#263238"/>
<path d="M425.443 256.745C422.733 258.777 419.953 260.716 417.324 262.877C414.696 265.038 412.418 267.304 409.965 269.629C409.767 269.815 409.965 269.851 410.129 269.629C412.675 267.409 415.21 265.54 417.78 263.344C420.35 261.148 422.849 258.847 425.501 256.756L425.443 256.745Z" fill="#263238"/>
<path d="M431.937 262.036C427.697 265.07 423.783 268.534 420.256 272.374C420.081 272.561 420.256 272.584 420.49 272.374C424.309 268.87 427.276 266.089 432.054 262.153C432.112 262.13 432.031 261.978 431.937 262.036Z" fill="#263238"/>
<path d="M467.318 238.265C465.379 238.265 461.279 238.919 456.735 239.024C446.515 239.235 432.077 238.896 426.926 239.024C413.002 239.445 404.335 249.537 400.364 253.041C397.988 255.162 395.825 257.51 393.904 260.05C392.911 261.44 391.942 263.414 393.203 265.003C394.734 266.93 400.679 265.003 406.928 259.618C407.15 259.419 407.01 259.291 406.776 259.466C398.039 266.264 394.628 265.4 393.752 264.138C393.192 263.356 393.752 262.024 394.313 261.019C395.189 259.565 396.24 258.223 397.443 257.025C401.468 252.869 405.907 249.135 410.69 245.881C415.828 242.205 421.903 240.062 428.211 239.702C432.696 239.422 446.456 239.83 456.759 239.527C461.267 239.386 465.356 238.581 467.271 238.429C467.482 238.487 467.458 238.265 467.318 238.265Z" fill="#263238"/>
<path d="M524.122 217.579L494.792 216.831C494.792 216.831 491.638 202.429 491.007 194.217C490.178 183.342 494.021 180.481 503.564 189.849C509.942 196.121 524.122 217.579 524.122 217.579Z" fill="#F25E3D"/>
<path d="M495.831 188.424C494.753 187.221 493.983 185.773 493.588 184.207C494.666 185.41 495.436 186.857 495.831 188.424ZM512.535 206.447C513.245 206.074 513.905 205.611 514.497 205.069C512.931 205.464 511.484 206.234 510.28 207.312C511.066 207.124 511.824 206.833 512.535 206.447ZM500.083 198.633C499.839 199.389 499.697 200.175 499.662 200.969C500.084 200.283 500.414 199.545 500.644 198.773C500.881 198.015 501.022 197.23 501.064 196.437C500.638 197.12 500.308 197.859 500.083 198.633Z" fill="white"/>
<path d="M498.378 216.936C498.062 216.866 495.048 216.691 494.873 216.738C494.546 215.033 494.242 213.327 493.892 211.633C493.717 210.781 493.53 209.928 493.331 209.087C493.133 208.246 492.899 207.09 492.712 206.272C492.712 206.143 492.514 206.167 492.525 206.272C492.677 207.37 492.817 208.176 492.958 209.122C493.098 210.068 493.215 210.816 493.378 211.657C493.705 213.432 493.986 215.336 494.406 217.1C495.746 217.158 497.088 217.13 498.424 217.018L498.378 216.936Z" fill="#263238"/>
<path d="M521.213 214.717C516.95 214.32 512.698 213.969 508.423 213.817C506.285 213.747 504.159 213.701 502.022 213.689C499.884 213.677 497.747 213.888 495.621 213.841C495.596 213.841 495.572 213.851 495.555 213.868C495.537 213.886 495.527 213.909 495.527 213.934C495.527 213.959 495.537 213.983 495.555 214C495.572 214.018 495.596 214.028 495.621 214.028C497.747 213.958 499.908 214.18 502.034 214.226L508.435 214.39C512.698 214.53 516.962 214.658 521.225 214.904C521.307 214.904 521.307 214.729 521.213 214.717Z" fill="#263238"/>
<path d="M380.752 272.865H445.452V267.842L380.752 265.751V272.865Z" fill="#455A64"/>
<path d="M329.893 272.783H372.587C376.219 272.783 370.951 262.41 357.659 258.427C344.366 254.444 325.7 268.893 329.893 272.783Z" fill="#37474F"/>
<path d="M346.644 272.783C345.949 270.596 345.017 268.493 343.864 266.51C343.291 265.545 342.626 264.637 341.878 263.8C341.102 262.958 340.263 262.177 339.367 261.464C340.524 261.808 341.595 262.393 342.509 263.181C343.439 263.96 344.229 264.892 344.845 265.938C345.469 266.976 345.944 268.097 346.258 269.267C346.58 270.409 346.711 271.597 346.644 272.783Z" fill="#263238"/>
<path d="M341.586 262.913C339.343 264.361 337.101 265.681 334.998 267.188C333.94 267.91 332.948 268.723 332.031 269.617C331.079 270.489 330.346 271.574 329.894 272.783C329.915 271.391 330.433 270.054 331.354 269.01C332.202 267.943 333.201 267.007 334.321 266.23C335.427 265.459 336.6 264.786 337.825 264.221C339.029 263.653 340.29 263.215 341.586 262.913Z" fill="#263238"/>
<path d="M299.267 252.703H403.027L386.534 175.446H282.762L299.267 252.703Z" fill="#455A64"/>
<path d="M295.435 252.703H399.196L382.691 175.446H278.93L295.435 252.703Z" fill="#37474F"/>
<path d="M351.398 225.008H353.827L350.136 207.674H347.695L351.398 225.008Z" fill="#263238"/>
<path d="M346.597 225.008H349.027L345.336 207.674H342.895L346.597 225.008Z" fill="#263238"/>
<path d="M341.796 225.008H344.226L340.535 207.674H338.093L341.796 225.008Z" fill="#263238"/>
<path d="M336.995 225.008H339.425L335.734 207.674H333.292L336.995 225.008Z" fill="#263238"/>
<path d="M332.183 225.008H334.624L330.921 207.674H328.492L332.183 225.008Z" fill="#263238"/>
<path d="M327.382 225.008H329.823L326.121 207.674H323.691L327.382 225.008Z" fill="#263238"/>
<path d="M322.581 225.008H325.023L321.32 207.674H318.89L322.581 225.008Z" fill="#263238"/>
<path d="M324.777 272.876H375.81V268.916L324.777 267.258V272.876Z" fill="#455A64"/>
<path d="M310.9 272.864H338.304L354.809 229.587H327.405L310.9 272.864Z" fill="#455A64"/>
<path d="M306.392 272.864H333.795L350.288 229.587H322.897L306.392 272.864Z" fill="#263238"/>
<path d="M552.226 272.864H184.351V279.557H552.226V272.864Z" fill="#37474F"/>
<path d="M543.466 279.557H193.111V296.354H543.466V279.557Z" fill="#37474F"/>
<path d="M543.466 279.557H193.111V287.956H543.466V279.557Z" fill="#263238"/>
<path d="M240.606 427.647H209.208V433.172H240.606V427.647Z" fill="#37474F"/>
<path d="M257.636 508.431H254.248L226.588 379.323L225.011 371.964L220.047 348.79L218.201 340.146L211.24 307.72L208.81 296.354H220.888L222.862 307.72L224.147 315.172L225.011 320.137L229.976 348.79L231.576 358.018L257.636 508.431Z" fill="#37474F"/>
<path d="M220.888 296.354L222.862 307.72H211.24L208.81 296.354H220.888Z" fill="#263238"/>
<path d="M231.576 358.018L226.588 379.323L225.012 371.965L220.047 348.79L218.202 340.146L224.147 315.172L225.012 320.137L229.976 348.79L231.576 358.018Z" fill="#263238"/>
<path d="M241.213 296.354L238.783 307.72L229.976 348.79L225.012 371.964L195.775 508.431H192.387L220.047 348.79L225.012 320.137L227.161 307.72L229.123 296.354H241.213Z" fill="#37474F"/>
<path d="M241.213 296.354L238.784 307.72H227.161L229.124 296.354H241.213Z" fill="#263238"/>
<path d="M527.159 427.647H495.761V433.172H527.159V427.647Z" fill="#37474F"/>
<path d="M544.19 508.431H540.791L513.142 379.323L511.566 371.964L506.589 348.79L504.744 340.146L497.794 307.72L495.353 296.354H507.442L509.405 307.72L510.701 315.172L511.566 320.137L516.518 348.79L518.118 358.018L544.19 508.431Z" fill="#37474F"/>
<path d="M507.442 296.354L509.405 307.72H497.794L495.353 296.354H507.442Z" fill="#263238"/>
<path d="M518.119 358.018L513.143 379.323L511.566 371.965L506.59 348.79L504.744 340.146L510.701 315.172L511.566 320.137L516.518 348.79L518.119 358.018Z" fill="#263238"/>
<path d="M527.755 296.354L525.325 307.72L516.518 348.79L511.565 371.964L482.317 508.431H478.941L506.589 348.79L511.565 320.137L513.703 307.72L515.677 296.354H527.755Z" fill="#37474F"/>
<path d="M527.755 296.354L525.326 307.72H513.703L515.677 296.354H527.755Z" fill="#263238"/>
<path d="M215.48 266.229L213.167 265.926L223.225 189.358L252.871 170.435L262.437 176.696L261.164 178.647L252.847 173.215L225.397 190.736L215.48 266.229Z" fill="#263238"/>
<path d="M222.348 190.047C222.346 190.438 222.46 190.822 222.676 191.148C222.892 191.474 223.2 191.729 223.561 191.88C223.923 192.031 224.32 192.071 224.704 191.995C225.088 191.919 225.441 191.731 225.718 191.454C225.995 191.178 226.183 190.825 226.259 190.441C226.335 190.057 226.295 189.659 226.144 189.298C225.993 188.937 225.738 188.628 225.412 188.412C225.085 188.196 224.702 188.082 224.311 188.085C223.79 188.085 223.291 188.291 222.923 188.659C222.555 189.027 222.348 189.526 222.348 190.047Z" fill="#F25E3D"/>
<path d="M252.765 173.787C253.849 173.787 254.727 172.908 254.727 171.825C254.727 170.741 253.849 169.862 252.765 169.862C251.681 169.862 250.803 170.741 250.803 171.825C250.803 172.908 251.681 173.787 252.765 173.787Z" fill="#F25E3D"/>
<path d="M278.86 179.382L265.789 193.971L259.762 186.519L256.094 181.975L265.883 171.054L270.8 174.219L278.86 179.382Z" fill="#F25E3D"/>
<path opacity="0.1" d="M278.86 179.382L265.789 193.972L259.762 186.519L270.8 174.219L278.86 179.382Z" fill="black"/>
<path d="M297.795 186.577L275.017 211.995L259.891 192.698L276.956 173.658L297.795 186.577Z" fill="#F25E3D"/>
<path d="M232.207 272.875H198.508L200.575 262.292H230.139L232.207 272.875Z" fill="#F25E3D"/>
<path d="M572.855 371.135C571.872 377.979 572.225 384.949 573.894 391.658C574.685 394.767 575.736 397.803 577.037 400.734C578.672 404.484 580.377 408.152 579.969 412.263C579.571 412.532 580.938 412.485 580.973 412.088C591.953 405.839 606.04 404.694 614.485 394.473C618.492 389.626 620.513 383.493 621.494 377.361C622.533 370.68 622.814 363.344 621.097 356.698C619.637 351.126 616.424 345.753 611.156 343.019C605.888 340.286 598.681 340.45 592.993 342.213C580.693 346.033 574.595 359.267 572.855 371.135Z" fill="#F25E3D"/>
<path d="M567.225 452.41C568.72 447.423 570.215 442.423 571.757 437.447C574.77 427.682 577.901 417.964 581.37 408.35C583.449 402.603 585.637 396.907 587.935 391.261C587.689 387.701 587.253 384.157 586.626 380.643C585.715 376.392 584.372 372.28 583.122 368.11C583.102 368.051 583.106 367.987 583.133 367.931C583.161 367.875 583.209 367.832 583.268 367.812C583.327 367.792 583.391 367.796 583.447 367.823C583.503 367.851 583.546 367.899 583.566 367.958C586.031 373.705 589.255 381.041 589.325 387.815C592.011 381.426 594.873 375.13 597.957 368.928C598.31 363.68 598.15 358.41 597.478 353.193C597.469 353.144 597.479 353.093 597.508 353.051C597.536 353.009 597.58 352.981 597.63 352.972C597.679 352.962 597.73 352.973 597.772 353.001C597.814 353.03 597.842 353.074 597.852 353.123C598.783 357.691 599.144 362.356 598.926 367.012C601.262 362.34 603.762 357.749 606.414 353.217C606.647 352.808 607.22 353.217 607.009 353.626C602.886 361.569 599.055 369.687 595.457 377.898C600.516 373.52 606.358 370.14 612.675 367.935C612.955 367.841 613.154 368.238 612.873 368.343C605.982 371.315 599.677 375.492 594.254 380.678C591.676 386.698 589.22 392.764 586.883 398.877C593.752 392.137 603.155 387.71 612.242 385.339C612.558 385.257 612.64 385.725 612.336 385.818C601.823 388.983 593.647 394.952 585.633 402.171C584.699 404.64 583.788 407.116 582.9 409.6C579.497 418.999 576.265 428.465 573.205 437.996C571.733 442.552 570.273 447.131 568.848 451.698C567.318 456.627 566.115 461.825 564.176 466.579C563.989 467.035 563.171 466.93 563.276 466.381C564.356 461.66 565.674 456.997 567.225 452.41Z" fill="#263238"/>
<path d="M585.435 361.487C587.384 364.484 588.729 367.833 589.395 371.346C589.395 371.439 589.266 371.486 589.231 371.346C588.004 368.036 586.572 364.806 584.944 361.674C584.781 361.487 585.248 361.242 585.435 361.487Z" fill="#263238"/>
<path d="M605.024 384.404C608.076 382.707 611.414 381.583 614.871 381.087C614.964 381.087 615.023 381.204 614.871 381.239C613.282 381.905 611.623 382.407 610.023 382.979C608.423 383.552 606.834 384.346 605.211 384.907C605.151 384.91 605.091 384.894 605.041 384.861C604.991 384.829 604.953 384.781 604.932 384.724C604.911 384.668 604.908 384.607 604.925 384.549C604.942 384.492 604.976 384.441 605.024 384.404Z" fill="#263238"/>
<path d="M610.537 356.884C611.532 356.132 612.596 355.475 613.714 354.922C613.751 354.899 613.796 354.891 613.839 354.901C613.882 354.911 613.919 354.937 613.942 354.975C613.965 355.012 613.973 355.057 613.963 355.099C613.953 355.142 613.927 355.179 613.889 355.202C612.916 355.976 611.871 356.657 610.771 357.235C610.572 357.352 610.338 357.013 610.537 356.884Z" fill="#263238"/>
<path d="M535.838 408.432C543.746 410.768 551.701 412.941 559.609 415.265C560.298 415.476 573.626 389.86 568.825 376.66C564.363 364.442 554.142 355.308 541.959 351.149C536.317 349.234 529.379 347.645 523.41 348.942C518.107 350.11 514.357 354.455 512.64 359.454C510.304 366.229 511.075 374.324 512.348 381.239C513.37 387.737 516.054 393.861 520.139 399.017C524.321 404.005 529.682 406.598 535.838 408.432Z" fill="#F25E3D"/>
<path d="M524.38 384.078C529.377 386.521 534.56 388.563 539.88 390.187C543.429 391.144 546.891 392.398 550.229 393.936C546.9 386.484 543.221 379.195 539.343 371.976C534.226 370.493 528.83 368.192 525.01 364.571C524.967 364.534 524.94 364.481 524.936 364.424C524.931 364.367 524.95 364.31 524.987 364.267C525.024 364.224 525.077 364.197 525.134 364.193C525.191 364.188 525.247 364.207 525.291 364.244C529.507 367.222 534.156 369.01 538.817 371.019C537.766 369.08 536.699 367.133 535.616 365.178C535.324 364.641 536.06 364.104 536.422 364.629C540.576 370.665 544.33 376.967 547.659 383.494C548.511 377.773 548.785 371.982 548.477 366.206C548.471 366.189 548.47 366.17 548.473 366.152C548.475 366.133 548.483 366.116 548.493 366.101C548.504 366.086 548.518 366.074 548.535 366.066C548.551 366.057 548.57 366.053 548.588 366.053C548.607 366.053 548.625 366.057 548.641 366.066C548.658 366.074 548.672 366.086 548.683 366.101C548.693 366.116 548.701 366.133 548.703 366.152C548.706 366.17 548.705 366.189 548.699 366.206C549.688 372.504 549.625 378.922 548.512 385.199C551.28 390.736 553.804 396.413 556.081 402.148C556.981 398.702 558.149 395.303 558.931 391.822C560.138 386.857 560.532 381.729 560.099 376.637C560.099 376.485 560.298 376.474 560.321 376.637C561.727 386.08 560.582 395.727 557.004 404.578C558.324 408.082 559.586 411.504 560.742 414.974C566.707 432.715 570.244 451.183 571.255 469.873C571.255 469.963 571.219 470.049 571.155 470.113C571.092 470.176 571.006 470.212 570.916 470.212C570.826 470.212 570.74 470.176 570.676 470.113C570.613 470.049 570.577 469.963 570.577 469.873C568.51 451.445 564.565 433.277 558.803 415.651C556.467 408.759 553.862 402.066 550.965 395.49C546.293 394.112 541.62 392.243 537.053 390.654C532.486 389.065 527.989 387.302 524.204 384.358C524.052 384.241 524.216 383.996 524.38 384.078Z" fill="#263238"/>
<path d="M517.009 376.672C521.845 378.401 526.424 380.807 531.259 382.513C531.481 382.594 531.353 382.956 531.119 382.91C526.015 381.847 520.945 380.27 516.822 376.917C516.635 376.789 516.834 376.579 517.009 376.672Z" fill="#263238"/>
<path d="M556.49 366.159C556.49 365.902 556.817 365.762 556.887 366.019C558.219 370.481 559.13 375.212 557.845 379.767C557.845 379.943 557.506 379.954 557.494 379.767C557.272 375.2 557.518 370.738 556.49 366.159Z" fill="#263238"/>
<path d="M536.492 355.915C538.032 358.13 538.77 360.805 538.583 363.496C538.583 363.659 538.303 363.765 538.256 363.496C537.672 360.949 536.691 358.625 535.92 356.149C535.916 356.081 535.934 356.013 535.97 355.956C536.007 355.898 536.06 355.854 536.123 355.828C536.186 355.802 536.255 355.797 536.321 355.812C536.388 355.828 536.447 355.864 536.492 355.915Z" fill="#263238"/>
<path d="M629.939 419.727C627.603 427.086 622.113 437.249 613.387 437.342C607.734 437.342 602.033 436.723 596.368 436.641C590.294 436.548 584.22 436.559 578.158 436.922C577.667 436.922 578.882 418.746 593.471 409.88C597.56 407.392 602.559 406.61 607.196 405.605C612.506 404.349 617.955 403.78 623.409 403.912C626.762 404.052 629.553 404.764 630.745 408.187C631.936 411.609 631.014 416.235 629.939 419.727Z" fill="#F25E3D"/>
<path d="M623.631 410.546C620.127 411.457 616.506 412.497 612.943 413.63C613.872 412.623 614.855 411.668 615.887 410.768C617.417 409.495 619.099 408.432 620.734 407.369C620.875 407.276 620.793 407.007 620.618 407.077C617.166 408.511 614.184 410.882 612.009 413.922C607.582 415.359 603.19 416.936 598.961 418.676C596.04 419.869 593.239 421.34 590.598 423.068C591.445 421.228 592.458 419.469 593.623 417.812C595.562 415.3 598.179 413.899 600.713 412.123C600.765 412.092 600.801 412.042 600.815 411.984C600.83 411.926 600.82 411.865 600.789 411.814C600.758 411.762 600.708 411.726 600.65 411.711C600.592 411.697 600.531 411.707 600.48 411.738C597.822 412.879 595.432 414.564 593.465 416.684C591.497 418.805 589.995 421.313 589.056 424.049C586.054 426.238 583.311 428.762 580.879 431.572C571.219 442.54 563.615 457.129 563.592 472.011C563.592 472.373 564.164 472.466 564.234 472.104C566.708 457.507 573.067 443.845 582.643 432.553C583.332 431.747 584.045 430.988 584.757 430.217C587.403 429.861 590.067 429.662 592.735 429.621C595.843 429.621 598.926 430.076 602.022 430.333C607.115 430.742 612.745 430.812 617.335 428.243C617.381 428.218 617.417 428.177 617.434 428.127C617.451 428.078 617.45 428.024 617.429 427.975C617.409 427.927 617.371 427.888 617.323 427.866C617.276 427.844 617.222 427.841 617.172 427.857C606.939 431.583 596.146 426.864 585.926 429.084C590.322 424.895 595.476 421.581 601.111 419.318L602.057 418.945C608.633 419.727 615.571 421.444 621.973 419.307C622.013 419.296 622.047 419.27 622.068 419.233C622.089 419.197 622.094 419.154 622.083 419.114C622.073 419.074 622.046 419.039 622.01 419.019C621.974 418.998 621.931 418.992 621.891 419.003C615.7 420.545 609.766 418.606 603.669 418.302C610.315 415.709 617.09 413.63 623.76 411.083C624.227 410.873 624.239 410.359 623.631 410.546Z" fill="#263238"/>
<path d="M626.528 416.994C623.354 417.404 620.161 417.646 616.962 417.718C616.891 417.718 616.868 417.835 616.962 417.847C620.182 418.447 623.501 418.238 626.622 417.239C626.75 417.193 626.68 416.971 626.528 416.994Z" fill="#263238"/>
<path d="M604.919 410.687C603.152 411.479 601.548 412.592 600.188 413.969C600.013 414.121 600.246 414.425 600.422 414.284C601.228 413.7 602.057 413.116 602.886 412.614C603.691 412.171 604.471 411.683 605.222 411.154C605.409 410.979 605.176 410.547 604.919 410.687Z" fill="#263238"/>
<path d="M553.406 434.376C553.511 434.609 553.161 434.843 553.021 434.586C552.997 434.624 552.964 434.657 552.926 434.681C552.887 434.705 552.844 434.721 552.799 434.726C546.927 436.13 540.974 437.172 534.974 437.845C530.15 438.265 524.59 438.534 520.361 435.742C514.638 431.946 510.876 421.795 513.972 415.347C517.628 407.697 528.655 411.843 534.191 414.577C542.709 418.733 549.506 425.737 553.406 434.376Z" fill="#F25E3D"/>
<path d="M557.681 437.914C554.467 434.802 550.895 432.081 547.04 429.808C544.265 425.415 540.585 421.664 536.247 418.805C536.037 418.664 535.862 418.991 536.049 419.143C539.499 421.907 542.56 425.125 545.148 428.71C540.847 426.363 536.381 424.333 531.785 422.636C530.151 419.59 527.656 417.092 524.613 415.452C524.555 415.452 524.485 415.452 524.543 415.546C527.05 417.455 529.238 419.749 531.026 422.344C528.304 421.328 525.571 420.393 522.849 419.482C522.604 419.4 522.51 419.774 522.744 419.867C527.627 421.771 532.603 423.781 537.439 426.093C531.546 427.034 525.541 427.034 519.649 426.093C519.618 426.088 519.586 426.095 519.559 426.112C519.533 426.129 519.514 426.155 519.505 426.185C519.496 426.215 519.499 426.247 519.513 426.276C519.526 426.304 519.55 426.326 519.579 426.339C525.725 428.161 532.254 428.262 538.455 426.631C541.533 428.123 544.521 429.797 547.402 431.642C544.976 431.44 542.533 431.641 540.172 432.237C536.001 433.204 531.733 433.687 527.451 433.674C527.288 433.674 527.253 433.931 527.451 433.955C534.822 435.228 541.795 431.875 549.108 432.786C551.823 434.632 554.371 436.711 556.724 439.001C561.285 443.561 565.04 448.862 567.832 454.676C570.904 460.937 572.574 467.525 575.062 474.043C575.078 474.104 575.117 474.155 575.17 474.187C575.224 474.219 575.288 474.228 575.349 474.212C575.409 474.197 575.461 474.158 575.493 474.104C575.524 474.051 575.534 473.987 575.518 473.926C573.334 461.077 566.979 447.002 557.681 437.914Z" fill="#263238"/>
<path d="M535.43 420.405C534.943 419.519 534.302 418.728 533.537 418.068C532.922 417.395 532.185 416.844 531.365 416.445C531.295 416.445 531.248 416.515 531.295 416.562C531.902 417.251 532.743 417.73 533.397 418.407C534.051 419.085 534.565 419.844 535.255 420.498C535.272 420.508 535.291 420.514 535.311 420.514C535.331 420.514 535.351 420.509 535.368 420.5C535.386 420.491 535.401 420.477 535.411 420.46C535.422 420.444 535.428 420.424 535.43 420.405Z" fill="#263238"/>
<path d="M523.27 424.365C522.172 424.096 521.015 424.12 519.905 423.886C518.799 423.622 517.707 423.298 516.635 422.917C516.606 422.911 516.576 422.916 516.55 422.931C516.524 422.945 516.504 422.968 516.493 422.995C516.482 423.023 516.481 423.053 516.49 423.081C516.499 423.11 516.517 423.134 516.541 423.15C518.554 424.389 520.916 424.939 523.27 424.715C523.305 424.702 523.336 424.678 523.358 424.647C523.38 424.616 523.391 424.578 523.391 424.54C523.391 424.502 523.38 424.465 523.358 424.433C523.336 424.402 523.305 424.378 523.27 424.365Z" fill="#263238"/>
<path d="M592.759 451.417L591.556 465.084L587.479 511.212H551.351L546.246 465.084L544.739 451.417H592.759Z" fill="#455A64"/>
<path d="M592.759 451.417L591.556 465.084H546.246L544.739 451.417H592.759Z" fill="#263238"/>
<path d="M596.334 447.691H541.165V458.777H596.334V447.691Z" fill="#455A64"/>
</svg>
